{
.appVersion = "1245";
copyright = "Copyright 2015 Google Inc. All Rights Reserved.";
customParameters = (
{
name = description;
value = "Designed by Monotype design team.";
},
{
name = license;
value = "This Font Software is licensed under the SIL Open Font License, Version 1.1. This Font Software is distributed on an \"AS IS\" BASIS, WITHOUT WARRANTIES OR CONDITIONS OF ANY KIND, either express or implied. See the SIL Open Font License for the specific language, permissions and limitations governing your use of this Font Software.";
},
{
name = licenseURL;
value = "http://scripts.sil.org/OFL";
},
{
name = vendorID;
value = GOOG;
},
{
name = glyphOrder;
value = (
.notdef,
NULL,
CR,
space,
uni0591,
uni0592,
uni0593,
uni0594,
uni0595,
uni0596,
uni0597,
uni0598,
uni0599,
uni059A,
uni059B,
uni059C,
uni059D,
uni059E,
uni059F,
uni05A0,
uni05A1,
uni05A2,
uni05A3,
uni05A4,
uni05A5,
uni05A6,
uni05A7,
uni05A8,
uni05A9,
uni05AA,
uni05AB,
uni05AC,
uni05AD,
uni05AE,
uni05AF,
sheva,
hatafsegol,
hatafpatah,
hatafqamats,
hiriq,
tsere,
segol,
patah,
qamats,
holam,
uni05BA,
qubuts,
dagesh,
meteg,
maqaf,
rafe,
paseq,
shindot,
sindot,
sofpasuq,
upper_dot,
lowerdot,
uni05C6,
qamatsqatan,
alef,
bet,
gimel,
dalet,
he,
vav,
zayin,
het,
tet,
yod,
finalkaf,
kaf,
lamed,
finalmem,
mem,
finalnun,
nun,
samekh,
ayin,
finalpe,
pe,
finaltsadi,
tsadi,
qof,
resh,
shin,
tav,
vavvav,
vavyod,
yodyod,
geresh,
gershayim,
sheqel,
uniFB1D,
uniFB1E,
yodyod_patah,
alternativeayin,
alefwide,
daletwide,
hewide,
kafwide,
lamedwide,
finalmemwide,
reshwide,
tavwide,
alt_plussign,
shinshindot,
shinsindot,
shindageshshindot,
shindageshsindot,
alefpatah,
alefqamats,
alefmapiq,
betdagesh,
gimeldagesh,
daletdagesh,
hedagesh,
vavdagesh,
zayindagesh,
tetdagesh,
yoddagesh,
finalkafdagesh,
kafdagesh,
lameddagesh,
memdagesh,
nundagesh,
samekhdagesh,
finalpedagesh,
pedagesh,
tsadidagesh,
qofdagesh,
reshdagesh,
shindagesh,
tavdagesh,
vavholam,
betrafe,
kafrafe,
perafe,
aleflamed,
lamedholamdagesh,
lamedholam,

glyphs = (
{
glyphname = .notdef;
lastChange = "2016-07-07 18:36:03 +0000";
layers = (
{
associatedMasterId = "1F954AD7-537E-453D-9D07-161C7E95D0AA";
layerId = "0A718E2F-231D-484E-9433-16A5230D2CE8";
name = Bold;
paths = (
{
closed = 1;
nodes = (
"496 0 LINE",
"496 714 LINE",
"85 714 LINE",
"85 0 LINE"
);
},
{
closed = 1;
nodes = (
"136 663 LINE",
"445 663 LINE",
"445 51 LINE",
"136 51 LINE"
);
}
);
width = 582;
},
{
associatedMasterId = "1F954AD7-537E-453D-9D07-161C7E95D0AA";
layerId = "98E204A9-1C79-49C7-AB3E-40A925F56409";
name = "Bold Condensed";
paths = (
{
closed = 1;
nodes = (
"496 0 LINE",
"496 714 LINE",
"85 714 LINE",
"85 0 LINE"
);
},
{
closed = 1;
nodes = (
"136 663 LINE",
"445 663 LINE",
"445 51 LINE",
"136 51 LINE"
);
}
);
width = 582;
},
{
associatedMasterId = "1F954AD7-537E-453D-9D07-161C7E95D0AA";
layerId = "9FF96064-8718-4A86-A5C8-73C592101F67";
name = Regular;
paths = (
{
closed = 1;
nodes = (
"505 0 LINE",
"505 714 LINE",
"94 714 LINE",
"94 0 LINE"
);
},
{
closed = 1;
nodes = (
"145 663 LINE",
"454 663 LINE",
"454 51 LINE",
"145 51 LINE"
);
}
);
width = 600;
},
{
associatedMasterId = "1F954AD7-537E-453D-9D07-161C7E95D0AA";
layerId = "134B12F2-BF5D-48E3-8003-C7502B438C7E";
name = SemiBold;
paths = (
{
closed = 1;
nodes = (
"505 0 LINE",
"505 714 LINE",
"94 714 LINE",
"94 0 LINE"
);
},
{
closed = 1;
nodes = (
"145 663 LINE",
"454 663 LINE",
"454 51 LINE",
"145 51 LINE"
);
}
);
width = 600;
},
{
associatedMasterId = "1F954AD7-537E-453D-9D07-161C7E95D0AA";
layerId = "36F3C8CB-53EE-4548-BFDE-2C03212BACAA";
name = Condensed;
paths = (
{
closed = 1;
nodes = (
"496 0 LINE",
"496 714 LINE",
"85 714 LINE",
"85 0 LINE"
);
},
{
closed = 1;
nodes = (
"136 663 LINE",
"445 663 LINE",
"445 51 LINE",
"136 51 LINE"
);
}
);
width = 595;
},
{
associatedMasterId = "1F954AD7-537E-453D-9D07-161C7E95D0AA";
layerId = "43B45EC1-5522-4B1A-B0C7-88628E50A583";
name = "SemiBold Condensed";
paths = (
{
closed = 1;
nodes = (
"496 0 LINE",
"496 714 LINE",
"85 714 LINE",
"85 0 LINE"
);
},
{
closed = 1;
nodes = (
"136 663 LINE",
"445 663 LINE",
"445 51 LINE",
"136 51 LINE"
);
}
);
width = 587;
},
{
layerId = "1F954AD7-537E-453D-9D07-161C7E95D0AA";
paths = (
{
closed = 1;
nodes = (
"505 0 LINE",
"505 714 LINE",
"94 714 LINE",
"94 0 LINE"
);
},
{
closed = 1;
nodes = (
"145 663 LINE",
"454 663 LINE",
"454 51 LINE",
"145 51 LINE"
);
}
);
width = 600;
},
{
associatedMasterId = "1F954AD7-537E-453D-9D07-161C7E95D0AA";
layerId = "029FEF0C-5FA4-4A3E-AC23-838A1147A554";
name = "Light Condensed";
paths = (
{
closed = 1;
nodes = (
"496 0 LINE",
"496 714 LINE",
"85 714 LINE",
"85 0 LINE"
);
},
{
closed = 1;
nodes = (
"136 663 LINE",
"445 663 LINE",
"445 51 LINE",
"136 51 LINE"
);
}
);
width = 600;
},
{
associatedMasterId = "3FB868F8-5CDC-4A46-BA32-95627737ABE0";
layerId = "6D228CAF-D3D7-4333-A99C-26716E667E2A";
name = Bold;
paths = (
{
closed = 1;
nodes = (
"496 0 LINE",
"496 714 LINE",
"85 714 LINE",
"85 0 LINE"
);
},
{
closed = 1;
nodes = (
"136 663 LINE",
"445 663 LINE",
"445 51 LINE",
"136 51 LINE"
);
}
);
width = 582;
},
{
associatedMasterId = "3FB868F8-5CDC-4A46-BA32-95627737ABE0";
layerId = "0F275DA8-301B-4F20-BD77-158CA365DF6E";
name = "Bold Condensed";
paths = (
{
closed = 1;
nodes = (
"496 0 LINE",
"496 714 LINE",
"85 714 LINE",
"85 0 LINE"
);
},
{
closed = 1;
nodes = (
"136 663 LINE",
"445 663 LINE",
"445 51 LINE",
"136 51 LINE"
);
}
);
width = 582;
},
{
associatedMasterId = "3FB868F8-5CDC-4A46-BA32-95627737ABE0";
layerId = "D46BE755-DD9E-4EEB-B458-600115B36096";
name = Regular;
paths = (
{
closed = 1;
nodes = (
"505 0 LINE",
"505 714 LINE",
"94 714 LINE",
"94 0 LINE"
);
},
{
closed = 1;
nodes = (
"145 663 LINE",
"454 663 LINE",
"454 51 LINE",
"145 51 LINE"
);
}
);
width = 600;
},
{
associatedMasterId = "3FB868F8-5CDC-4A46-BA32-95627737ABE0";
layerId = "7FE48EA0-3A2C-4D49-ABA4-E32E78AB57C1";
name = SemiBold;
paths = (
{
closed = 1;
nodes = (
"505 0 LINE",
"505 714 LINE",
"94 714 LINE",
"94 0 LINE"
);
},
{
closed = 1;
nodes = (
"145 663 LINE",
"454 663 LINE",
"454 51 LINE",
"145 51 LINE"
);
}
);
width = 600;
},
{
associatedMasterId = "3FB868F8-5CDC-4A46-BA32-95627737ABE0";
layerId = "0C5F2DE2-4894-433A-AF78-14A7760305F4";
name = Condensed;
paths = (
{
closed = 1;
nodes = (
"496 0 LINE",
"496 714 LINE",
"85 714 LINE",
"85 0 LINE"
);
},
{
closed = 1;
nodes = (
"136 663 LINE",
"445 663 LINE",
"445 51 LINE",
"136 51 LINE"
);
}
);
width = 595;
},
{
associatedMasterId = "3FB868F8-5CDC-4A46-BA32-95627737ABE0";
layerId = "218C21A7-D612-4AB3-84F9-0D3A7F75CFA6";
name = "SemiBold Condensed";
paths = (
{
closed = 1;
nodes = (
"496 0 LINE",
"496 714 LINE",
"85 714 LINE",
"85 0 LINE"
);
},
{
closed = 1;
nodes = (
"136 663 LINE",
"445 663 LINE",
"445 51 LINE",
"136 51 LINE"
);
}
);
width = 587;
},
{
layerId = "3FB868F8-5CDC-4A46-BA32-95627737ABE0";
paths = (
{
closed = 1;
nodes = (
"505 0 LINE",
"505 714 LINE",
"94 714 LINE",
"94 0 LINE"
);
},
{
closed = 1;
nodes = (
"145 663 LINE",
"454 663 LINE",
"454 51 LINE",
"145 51 LINE"
);
}
);
width = 600;
},
{
associatedMasterId = "3FB868F8-5CDC-4A46-BA32-95627737ABE0";
layerId = "5BFF9FCA-B510-42EF-B974-4F4703A3DF37";
name = "Light Condensed";
paths = (
{
closed = 1;
nodes = (
"496 0 LINE",
"496 714 LINE",
"85 714 LINE",
"85 0 LINE"
);
},
{
closed = 1;
nodes = (
"136 663 LINE",
"445 663 LINE",
"445 51 LINE",
"136 51 LINE"
);
}
);
width = 600;
},
{
associatedMasterId = "BD31AAF9-E65B-4A30-ACC0-7018B0C27C60";
layerId = "10F16149-C491-4EC1-A76D-4B0D82B949A8";
name = Bold;
paths = (
{
closed = 1;
nodes = (
"496 0 LINE",
"496 714 LINE",
"85 714 LINE",
"85 0 LINE"
);
},
{
closed = 1;
nodes = (
"136 663 LINE",
"445 663 LINE",
"445 51 LINE",
"136 51 LINE"
);
}
);
width = 582;
},
{
associatedMasterId = "BD31AAF9-E65B-4A30-ACC0-7018B0C27C60";
layerId = "72186310-A4A1-43C8-93EC-DE7F7E0C04DC";
name = "Bold Condensed";
paths = (
{
closed = 1;
nodes = (
"496 0 LINE",
"496 714 LINE",
"85 714 LINE",
"85 0 LINE"
);
},
{
closed = 1;
nodes = (
"136 663 LINE",
"445 663 LINE",
"445 51 LINE",
"136 51 LINE"
);
}
);
width = 582;
},
{
associatedMasterId = "BD31AAF9-E65B-4A30-ACC0-7018B0C27C60";
layerId = "3AA2D878-A039-41E2-8382-305C1EBDDC14";
name = Regular;
paths = (
{
closed = 1;
nodes = (
"505 0 LINE",
"505 714 LINE",
"94 714 LINE",
"94 0 LINE"
);
},
{
closed = 1;
nodes = (
"145 663 LINE",
"454 663 LINE",
"454 51 LINE",
"145 51 LINE"
);
}
);
width = 600;
},
{
associatedMasterId = "BD31AAF9-E65B-4A30-ACC0-7018B0C27C60";
layerId = "910244F3-C233-4E50-A821-AC6322E08668";
name = SemiBold;
paths = (
{
closed = 1;
nodes = (
"505 0 LINE",
"505 714 LINE",
"94 714 LINE",
"94 0 LINE"
);
},
{
closed = 1;
nodes = (
"145 663 LINE",
"454 663 LINE",
"454 51 LINE",
"145 51 LINE"
);
}
);
width = 600;
},
{
associatedMasterId = "BD31AAF9-E65B-4A30-ACC0-7018B0C27C60";
layerId = "3D21177B-E83B-427F-9FBC-21300ED8A213";
name = Condensed;
paths = (
{
closed = 1;
nodes = (
"496 0 LINE",
"496 714 LINE",
"85 714 LINE",
"85 0 LINE"
);
},
{
closed = 1;
nodes = (
"136 663 LINE",
"445 663 LINE",
"445 51 LINE",
"136 51 LINE"
);
}
);
width = 595;
},
{
associatedMasterId = "BD31AAF9-E65B-4A30-ACC0-7018B0C27C60";
layerId = "4355EC66-3F59-4296-9F4C-72EC0B481B5D";
name = "SemiBold Condensed";
paths = (
{
closed = 1;
nodes = (
"496 0 LINE",
"496 714 LINE",
"85 714 LINE",
"85 0 LINE"
);
},
{
closed = 1;
nodes = (
"136 663 LINE",
"445 663 LINE",
"445 51 LINE",
"136 51 LINE"
);
}
);
width = 587;
},
{
layerId = "BD31AAF9-E65B-4A30-ACC0-7018B0C27C60";
paths = (
{
closed = 1;
nodes = (
"505 0 LINE",
"505 714 LINE",
"94 714 LINE",
"94 0 LINE"
);
},
{
closed = 1;
nodes = (
"145 663 LINE",
"454 663 LINE",
"454 51 LINE",
"145 51 LINE"
);
}
);
width = 600;
},
{
associatedMasterId = "BD31AAF9-E65B-4A30-ACC0-7018B0C27C60";
layerId = "D77228BB-6669-4F59-82EB-EFDED494D297";
name = "Light Condensed";
paths = (
{
closed = 1;
nodes = (
"496 0 LINE",
"496 714 LINE",
"85 714 LINE",
"85 0 LINE"
);
},
{
closed = 1;
nodes = (
"136 663 LINE",
"445 663 LINE",
"445 51 LINE",
"136 51 LINE"
);
}
);
width = 600;
},
{
associatedMasterId = "1F954AD7-537E-453D-9D07-161C7E95D0AA";
layerId = "4A97D365-134C-40CE-A1F4-ACEEDAC52A69";
name = Bold;
paths = (
{
closed = 1;
nodes = (
"496 0 LINE",
"496 714 LINE",
"85 714 LINE",
"85 0 LINE"
);
},
{
closed = 1;
nodes = (
"136 663 LINE",
"445 663 LINE",
"445 51 LINE",
"136 51 LINE"
);
}
);
width = 582;
},
{
associatedMasterId = "1F954AD7-537E-453D-9D07-161C7E95D0AA";
layerId = "E30ED5CA-5FDA-483A-B078-9F166668F082";
name = "Bold Condensed";
paths = (
{
closed = 1;
nodes = (
"496 0 LINE",
"496 714 LINE",
"85 714 LINE",
"85 0 LINE"
);
},
{
closed = 1;
nodes = (
"136 663 LINE",
"445 663 LINE",
"445 51 LINE",
"136 51 LINE"
);
}
);
width = 582;
},
{
associatedMasterId = "1F954AD7-537E-453D-9D07-161C7E95D0AA";
layerId = "5E9EB60B-4C02-4C45-9028-66D331043723";
name = Regular;
paths = (
{
closed = 1;
nodes = (
"505 0 LINE",
"505 714 LINE",
"94 714 LINE",
"94 0 LINE"
);
},
{
closed = 1;
nodes = (
"145 663 LINE",
"454 663 LINE",
"454 51 LINE",
"145 51 LINE"
);
}
);
width = 600;
},
{
associatedMasterId = "1F954AD7-537E-453D-9D07-161C7E95D0AA";
layerId = "CF4745A3-289E-483C-9D08-2C2CDA3793CE";
name = SemiBold;
paths = (
{
closed = 1;
nodes = (
"505 0 LINE",
"505 714 LINE",
"94 714 LINE",
"94 0 LINE"
);
},
{
closed = 1;
nodes = (
"145 663 LINE",
"454 663 LINE",
"454 51 LINE",
"145 51 LINE"
);
}
);
width = 600;
},
{
associatedMasterId = "1F954AD7-537E-453D-9D07-161C7E95D0AA";
layerId = "0007F7B2-5B0D-4ECF-8993-9E445AE70882";
name = Condensed;
paths = (
{
closed = 1;
nodes = (
"496 0 LINE",
"496 714 LINE",
"85 714 LINE",
"85 0 LINE"
);
},
{
closed = 1;
nodes = (
"136 663 LINE",
"445 663 LINE",
"445 51 LINE",
"136 51 LINE"
);
}
);
width = 595;
},
{
associatedMasterId = "1F954AD7-537E-453D-9D07-161C7E95D0AA";
layerId = "A6240D38-CEDA-4780-B12F-EAC7EDB843D9";
name = "SemiBold Condensed";
paths = (
{
closed = 1;
nodes = (
"496 0 LINE",
"496 714 LINE",
"85 714 LINE",
"85 0 LINE"
);
},
{
closed = 1;
nodes = (
"136 663 LINE",
"445 663 LINE",
"445 51 LINE",
"136 51 LINE"
);
}
);
width = 587;
},
{
associatedMasterId = "1F954AD7-537E-453D-9D07-161C7E95D0AA";
layerId = "79A278C6-3EFA-4DDB-B984-DD1D15CE97C9";
name = "Light Condensed";
paths = (
{
closed = 1;
nodes = (
"496 0 LINE",
"496 714 LINE",
"85 714 LINE",
"85 0 LINE"
);
},
{
closed = 1;
nodes = (
"136 663 LINE",
"445 663 LINE",
"445 51 LINE",
"136 51 LINE"
);
}
);
width = 600;
},
{
associatedMasterId = "AD6F6DAA-2D58-4E1D-98AF-ACAAF76D7B9E";
layerId = "3DB921F2-2B03-4BC4-8509-8FCD7A6F784E";
name = Bold;
paths = (
{
closed = 1;
nodes = (
"496 0 LINE",
"496 714 LINE",
"85 714 LINE",
"85 0 LINE"
);
},
{
closed = 1;
nodes = (
"136 663 LINE",
"445 663 LINE",
"445 51 LINE",
"136 51 LINE"
);
}
);
width = 582;
},
{
associatedMasterId = "AD6F6DAA-2D58-4E1D-98AF-ACAAF76D7B9E";
layerId = "2F2377A1-11C3-41B6-919D-D55F8AA75D07";
name = "Bold Condensed";
paths = (
{
closed = 1;
nodes = (
"496 0 LINE",
"496 714 LINE",
"85 714 LINE",
"85 0 LINE"
);
},
{
closed = 1;
nodes = (
"136 663 LINE",
"445 663 LINE",
"445 51 LINE",
"136 51 LINE"
);
}
);
width = 582;
},
{
associatedMasterId = "AD6F6DAA-2D58-4E1D-98AF-ACAAF76D7B9E";
layerId = "18EFA2A5-94BA-44A1-8C61-68BF4E401414";
name = Regular;
paths = (
{
closed = 1;
nodes = (
"505 0 LINE",
"505 714 LINE",
"94 714 LINE",
"94 0 LINE"
);
},
{
closed = 1;
nodes = (
"145 663 LINE",
"454 663 LINE",
"454 51 LINE",
"145 51 LINE"
);
}
);
width = 600;
},
{
associatedMasterId = "AD6F6DAA-2D58-4E1D-98AF-ACAAF76D7B9E";
layerId = "9E2FF5C0-3F8B-4CDD-8C0B-518BB51B0C53";
name = SemiBold;
paths = (
{
closed = 1;
nodes = (
"505 0 LINE",
"505 714 LINE",
"94 714 LINE",
"94 0 LINE"
);
},
{
closed = 1;
nodes = (
"145 663 LINE",
"454 663 LINE",
"454 51 LINE",
"145 51 LINE"
);
}
);
width = 600;
},
{
associatedMasterId = "AD6F6DAA-2D58-4E1D-98AF-ACAAF76D7B9E";
layerId = "49C7FBBB-5D49-485A-90F5-A2972E78A97C";
name = Condensed;
paths = (
{
closed = 1;
nodes = (
"496 0 LINE",
"496 714 LINE",
"85 714 LINE",
"85 0 LINE"
);
},
{
closed = 1;
nodes = (
"136 663 LINE",
"445 663 LINE",
"445 51 LINE",
"136 51 LINE"
);
}
);
width = 595;
},
{
associatedMasterId = "AD6F6DAA-2D58-4E1D-98AF-ACAAF76D7B9E";
layerId = "42E87011-FEDB-43C8-99A4-706BFF7CA79F";
name = "SemiBold Condensed";
paths = (
{
closed = 1;
nodes = (
"496 0 LINE",
"496 714 LINE",
"85 714 LINE",
"85 0 LINE"
);
},
{
closed = 1;
nodes = (
"136 663 LINE",
"445 663 LINE",
"445 51 LINE",
"136 51 LINE"
);
}
);
width = 587;
},
{
layerId = "AD6F6DAA-2D58-4E1D-98AF-ACAAF76D7B9E";
paths = (
{
closed = 1;
nodes = (
"505 0 LINE",
"505 714 LINE",
"94 714 LINE",
"94 0 LINE"
);
},
{
closed = 1;
nodes = (
"145 663 LINE",
"454 663 LINE",
"454 51 LINE",
"145 51 LINE"
);
}
);
width = 600;
},
{
associatedMasterId = "AD6F6DAA-2D58-4E1D-98AF-ACAAF76D7B9E";
layerId = "001EDBC9-3154-4441-98CE-7D8995D9200E";
name = "Light Condensed";
paths = (
{
closed = 1;
nodes = (
"496 0 LINE",
"496 714 LINE",
"85 714 LINE",
"85 0 LINE"
);
},
{
closed = 1;
nodes = (
"136 663 LINE",
"445 663 LINE",
"445 51 LINE",
"136 51 LINE"
);
}
);
width = 600;
}
);
},
{
glyphname = sheqel;
lastChange = "2016-07-07 18:36:03 +0000";
layers = (
{
layerId = "1F954AD7-537E-453D-9D07-161C7E95D0AA";
paths = (
{
closed = 1;
nodes = (
"476 0 LINE SMOOTH",
"577 0 OFFCURVE",
"636 53 OFFCURVE",
"636 165 CURVE SMOOTH",
"636 584 LINE",
"610 584 LINE",
"610 168 LINE SMOOTH",
"610 66 OFFCURVE",
"559 27 OFFCURVE",
"471 27 CURVE SMOOTH",
"289 27 LINE",
"289 434 LINE",
"263 434 LINE",
"263 0 LINE"
);
},
{
closed = 1;
nodes = (
"116 0 LINE",
"116 557 LINE",
"298 557 LINE SMOOTH",
"386 557 OFFCURVE",
"437 518 OFFCURVE",
"437 416 CURVE SMOOTH",
"437 150 LINE",
"463 150 LINE",
"463 419 LINE SMOOTH",
"463 531 OFFCURVE",
"404 584 OFFCURVE",
"303 584 CURVE SMOOTH",
"90 584 LINE",
"90 0 LINE"
);
}
);
width = 721;
},
{
layerId = "3FB868F8-5CDC-4A46-BA32-95627737ABE0";
paths = (
{
closed = 1;
nodes = (
"552 0 LINE SMOOTH",
"759 0 OFFCURVE",
"841 83 OFFCURVE",
"841 315 CURVE SMOOTH",
"841 609 LINE",
"649 609 LINE",
"649 315 LINE SMOOTH",
"649 185 OFFCURVE",
"617 159 OFFCURVE",
"513 159 CURVE SMOOTH",
"435 159 LINE",
"435 390 LINE",
"313 390 LINE",
"313 0 LINE"
);
},
{
closed = 1;
nodes = (
"267 0 LINE",
"267 450 LINE",
"435 450 LINE SMOOTH",
"465 450 OFFCURVE",
"481 428 OFFCURVE",
"481 384 CURVE SMOOTH",
"481 219 LINE",
"603 219 LINE",
"603 412 LINE SMOOTH",
"603 545 OFFCURVE",
"560 609 OFFCURVE",
"395 609 CURVE SMOOTH",
"75 609 LINE",
"75 0 LINE"
);
}
);
width = 911;
},
{
layerId = "BD31AAF9-E65B-4A30-ACC0-7018B0C27C60";
paths = (
{
closed = 1;
nodes = (
"364 0 LINE SMOOTH",
"465 0 OFFCURVE",
"509 38 OFFCURVE",
"509 150 CURVE SMOOTH",
"509 584 LINE",
"483 584 LINE",
"483 155 LINE SMOOTH",
"483 53 OFFCURVE",
"447 27 OFFCURVE",
"359 27 CURVE SMOOTH",
"237 27 LINE",
"237 434 LINE",
"211 434 LINE",
"211 0 LINE"
);
},
{
closed = 1;
nodes = (
"101 0 LINE",
"101 557 LINE",
"223 557 LINE SMOOTH",
"311 557 OFFCURVE",
"347 531 OFFCURVE",
"347 429 CURVE SMOOTH",
"347 150 LINE",
"373 150 LINE",
"373 434 LINE SMOOTH",
"373 546 OFFCURVE",
"329 584 OFFCURVE",
"228 584 CURVE SMOOTH",
"75 584 LINE",
"75 0 LINE"
);
}
);
width = 579;
},
{
layerId = "AD6F6DAA-2D58-4E1D-98AF-ACAAF76D7B9E";
paths = (
{
closed = 1;
nodes = (
"456 0 LINE SMOOTH",
"608 0 OFFCURVE",
"694 83 OFFCURVE",
"694 309 CURVE SMOOTH",
"694 609 LINE",
"534 609 LINE",
"534 309 LINE SMOOTH",
"534 181 OFFCURVE",
"523 147 OFFCURVE",
"407 147 CURVE SMOOTH",
"358 147 LINE",
"358 390 LINE",
"258 390 LINE",
"258 0 LINE"
);
},
{
closed = 1;
nodes = (
"220 0 LINE",
"220 462 LINE",
"349 462 LINE SMOOTH",
"387 462 OFFCURVE",
"396 437 OFFCURVE",
"396 390 CURVE SMOOTH",
"396 225 LINE",
"496 225 LINE",
"496 418 LINE SMOOTH",
"496 560 OFFCURVE",
"455 609 OFFCURVE",
"309 609 CURVE SMOOTH",
"60 609 LINE",
"60 0 LINE"
);
}
);
width = 749;
}
);
note = sheqel;
unicode = 20AA;
},
{
glyphname = uni25CC;
lastChange = "2016-07-07 18:36:03 +0000";
layers = (
{
layerId = "1F954AD7-537E-453D-9D07-161C7E95D0AA";
paths = (
{
closed = 1;
nodes = (
"480 466 OFFCURVE",
"472 475 OFFCURVE",
"455 475 CURVE SMOOTH",
"437 475 OFFCURVE",
"428 466 OFFCURVE",
"428 448 CURVE SMOOTH",
"428 431 OFFCURVE",
"437 422 OFFCURVE",
"455 422 CURVE SMOOTH",
"472 422 OFFCURVE",
"480 431 OFFCURVE",
"480 448 CURVE SMOOTH"
);
},
{
closed = 1;
nodes = (
"408 514 OFFCURVE",
"400 523 OFFCURVE",
"383 523 CURVE SMOOTH",
"364 523 OFFCURVE",
"355 514 OFFCURVE",
"355 496 CURVE SMOOTH",
"355 479 OFFCURVE",
"364 470 OFFCURVE",
"383 470 CURVE SMOOTH",
"400 470 OFFCURVE",
"408 479 OFFCURVE",
"408 496 CURVE SMOOTH"
);
},
{
closed = 1;
nodes = (
"529 393 OFFCURVE",
"520 402 OFFCURVE",
"503 402 CURVE SMOOTH",
"485 402 OFFCURVE",
"476 393 OFFCURVE",
"476 376 CURVE SMOOTH",
"476 358 OFFCURVE",
"485 349 OFFCURVE",
"502 349 CURVE SMOOTH",
"520 349 OFFCURVE",
"529 358 OFFCURVE",
"529 376 CURVE SMOOTH"
);
},
{
closed = 1;
nodes = (
"546 308 OFFCURVE",
"538 317 OFFCURVE",
"521 317 CURVE SMOOTH",
"503 317 OFFCURVE",
"494 308 OFFCURVE",
"494 291 CURVE SMOOTH",
"494 274 OFFCURVE",
"503 265 OFFCURVE",
"521 265 CURVE SMOOTH",
"538 265 OFFCURVE",
"546 274 OFFCURVE",
"546 291 CURVE SMOOTH"
);
},
{
closed = 1;
nodes = (
"323 531 OFFCURVE",
"314 540 OFFCURVE",
"297 540 CURVE SMOOTH",
"280 540 OFFCURVE",
"271 531 OFFCURVE",
"271 514 CURVE SMOOTH",
"271 496 OFFCURVE",
"280 487 OFFCURVE",
"297 487 CURVE SMOOTH",
"314 487 OFFCURVE",
"323 496 OFFCURVE",
"323 514 CURVE SMOOTH"
);
},
{
closed = 1;
nodes = (
"239 514 OFFCURVE",
"230 523 OFFCURVE",
"212 523 CURVE SMOOTH",
"195 523 OFFCURVE",
"186 514 OFFCURVE",
"186 496 CURVE SMOOTH",
"186 479 OFFCURVE",
"195 470 OFFCURVE",
"212 470 CURVE SMOOTH",
"230 470 OFFCURVE",
"239 479 OFFCURVE",
"239 496 CURVE SMOOTH"
);
},
{
closed = 1;
nodes = (
"529 224 OFFCURVE",
"520 233 OFFCURVE",
"502 233 CURVE SMOOTH",
"485 233 OFFCURVE",
"476 224 OFFCURVE",
"476 206 CURVE SMOOTH",
"476 189 OFFCURVE",
"485 180 OFFCURVE",
"502 180 CURVE SMOOTH",
"520 180 OFFCURVE",
"529 189 OFFCURVE",
"529 206 CURVE SMOOTH"
);
},
{
closed = 1;
nodes = (
"167 466 OFFCURVE",
"158 475 OFFCURVE",
"140 475 CURVE SMOOTH",
"123 475 OFFCURVE",
"114 466 OFFCURVE",
"114 447 CURVE SMOOTH",
"114 430 OFFCURVE",
"123 422 OFFCURVE",
"140 422 CURVE SMOOTH",
"158 422 OFFCURVE",
"167 431 OFFCURVE",
"167 448 CURVE SMOOTH"
);
},
{
closed = 1;
nodes = (
"480 151 OFFCURVE",
"472 160 OFFCURVE",
"455 160 CURVE SMOOTH",
"437 160 OFFCURVE",
"428 151 OFFCURVE",
"428 133 CURVE SMOOTH",
"428 116 OFFCURVE",
"437 107 OFFCURVE",
"455 107 CURVE SMOOTH",
"472 107 OFFCURVE",
"480 116 OFFCURVE",
"480 133 CURVE SMOOTH"
);
},
{
closed = 1;
nodes = (
"408 103 OFFCURVE",
"400 112 OFFCURVE",
"383 112 CURVE SMOOTH",
"364 112 OFFCURVE",
"355 103 OFFCURVE",
"355 85 CURVE SMOOTH",
"355 68 OFFCURVE",
"364 60 OFFCURVE",
"383 60 CURVE SMOOTH",
"400 60 OFFCURVE",
"408 68 OFFCURVE",
"408 85 CURVE SMOOTH"
);
},
{
closed = 1;
nodes = (
"118 393 OFFCURVE",
"109 402 OFFCURVE",
"92 402 CURVE SMOOTH",
"74 402 OFFCURVE",
"65 393 OFFCURVE",
"65 376 CURVE SMOOTH",
"65 358 OFFCURVE",
"74 349 OFFCURVE",
"93 349 CURVE SMOOTH",
"110 349 OFFCURVE",
"118 358 OFFCURVE",
"118 376 CURVE SMOOTH"
);
},
{
closed = 1;
nodes = (
"101 308 OFFCURVE",
"92 317 OFFCURVE",
"75 317 CURVE SMOOTH",
"57 317 OFFCURVE",
"48 308 OFFCURVE",
"48 291 CURVE SMOOTH",
"48 274 OFFCURVE",
"57 265 OFFCURVE",
"75 265 CURVE SMOOTH",
"92 265 OFFCURVE",
"101 274 OFFCURVE",
"101 291 CURVE SMOOTH"
);
},
{
closed = 1;
nodes = (
"323 86 OFFCURVE",
"314 95 OFFCURVE",
"297 95 CURVE SMOOTH",
"280 95 OFFCURVE",
"271 86 OFFCURVE",
"271 69 CURVE SMOOTH",
"271 51 OFFCURVE",
"280 42 OFFCURVE",
"297 42 CURVE SMOOTH",
"314 42 OFFCURVE",
"323 51 OFFCURVE",
"323 69 CURVE SMOOTH"
);
},
{
closed = 1;
nodes = (
"118 224 OFFCURVE",
"109 233 OFFCURVE",
"92 233 CURVE SMOOTH",
"74 233 OFFCURVE",
"65 224 OFFCURVE",
"65 206 CURVE SMOOTH",
"65 189 OFFCURVE",
"74 180 OFFCURVE",
"92 180 CURVE SMOOTH",
"109 180 OFFCURVE",
"118 189 OFFCURVE",
"118 206 CURVE SMOOTH"
);
},
{
closed = 1;
nodes = (
"239 104 OFFCURVE",
"230 112 OFFCURVE",
"212 112 CURVE SMOOTH",
"195 112 OFFCURVE",
"186 103 OFFCURVE",
"186 85 CURVE SMOOTH",
"186 68 OFFCURVE",
"195 60 OFFCURVE",
"212 60 CURVE SMOOTH",
"230 60 OFFCURVE",
"239 69 OFFCURVE",
"239 87 CURVE SMOOTH"
);
},
{
closed = 1;
nodes = (
"167 151 OFFCURVE",
"158 160 OFFCURVE",
"140 160 CURVE SMOOTH",
"123 160 OFFCURVE",
"114 151 OFFCURVE",
"114 133 CURVE SMOOTH",
"114 116 OFFCURVE",
"123 107 OFFCURVE",
"140 107 CURVE SMOOTH",
"158 107 OFFCURVE",
"167 116 OFFCURVE",
"167 133 CURVE SMOOTH"
);
}
);
width = 594;
},
{
layerId = "3FB868F8-5CDC-4A46-BA32-95627737ABE0";
paths = (
{
closed = 1;
nodes = (
"480 466 OFFCURVE",
"472 475 OFFCURVE",
"455 475 CURVE SMOOTH",
"437 475 OFFCURVE",
"428 466 OFFCURVE",
"428 448 CURVE SMOOTH",
"428 431 OFFCURVE",
"437 422 OFFCURVE",
"455 422 CURVE SMOOTH",
"472 422 OFFCURVE",
"480 431 OFFCURVE",
"480 448 CURVE SMOOTH"
);
},
{
closed = 1;
nodes = (
"408 514 OFFCURVE",
"400 523 OFFCURVE",
"383 523 CURVE SMOOTH",
"364 523 OFFCURVE",
"355 514 OFFCURVE",
"355 496 CURVE SMOOTH",
"355 479 OFFCURVE",
"364 470 OFFCURVE",
"383 470 CURVE SMOOTH",
"400 470 OFFCURVE",
"408 479 OFFCURVE",
"408 496 CURVE SMOOTH"
);
},
{
closed = 1;
nodes = (
"529 393 OFFCURVE",
"520 402 OFFCURVE",
"503 402 CURVE SMOOTH",
"485 402 OFFCURVE",
"476 393 OFFCURVE",
"476 376 CURVE SMOOTH",
"476 358 OFFCURVE",
"485 349 OFFCURVE",
"502 349 CURVE SMOOTH",
"520 349 OFFCURVE",
"529 358 OFFCURVE",
"529 376 CURVE SMOOTH"
);
},
{
closed = 1;
nodes = (
"546 308 OFFCURVE",
"538 317 OFFCURVE",
"521 317 CURVE SMOOTH",
"503 317 OFFCURVE",
"494 308 OFFCURVE",
"494 291 CURVE SMOOTH",
"494 274 OFFCURVE",
"503 265 OFFCURVE",
"521 265 CURVE SMOOTH",
"538 265 OFFCURVE",
"546 274 OFFCURVE",
"546 291 CURVE SMOOTH"
);
},
{
closed = 1;
nodes = (
"323 531 OFFCURVE",
"314 540 OFFCURVE",
"297 540 CURVE SMOOTH",
"280 540 OFFCURVE",
"271 531 OFFCURVE",
"271 514 CURVE SMOOTH",
"271 496 OFFCURVE",
"280 487 OFFCURVE",
"297 487 CURVE SMOOTH",
"314 487 OFFCURVE",
"323 496 OFFCURVE",
"323 514 CURVE SMOOTH"
);
},
{
closed = 1;
nodes = (
"239 514 OFFCURVE",
"230 523 OFFCURVE",
"212 523 CURVE SMOOTH",
"195 523 OFFCURVE",
"186 514 OFFCURVE",
"186 496 CURVE SMOOTH",
"186 479 OFFCURVE",
"195 470 OFFCURVE",
"212 470 CURVE SMOOTH",
"230 470 OFFCURVE",
"239 479 OFFCURVE",
"239 496 CURVE SMOOTH"
);
},
{
closed = 1;
nodes = (
"529 224 OFFCURVE",
"520 233 OFFCURVE",
"502 233 CURVE SMOOTH",
"485 233 OFFCURVE",
"476 224 OFFCURVE",
"476 206 CURVE SMOOTH",
"476 189 OFFCURVE",
"485 180 OFFCURVE",
"502 180 CURVE SMOOTH",
"520 180 OFFCURVE",
"529 189 OFFCURVE",
"529 206 CURVE SMOOTH"
);
},
{
closed = 1;
nodes = (
"167 466 OFFCURVE",
"158 475 OFFCURVE",
"140 475 CURVE SMOOTH",
"123 475 OFFCURVE",
"114 466 OFFCURVE",
"114 447 CURVE SMOOTH",
"114 430 OFFCURVE",
"123 422 OFFCURVE",
"140 422 CURVE SMOOTH",
"158 422 OFFCURVE",
"167 431 OFFCURVE",
"167 448 CURVE SMOOTH"
);
},
{
closed = 1;
nodes = (
"480 151 OFFCURVE",
"472 160 OFFCURVE",
"455 160 CURVE SMOOTH",
"437 160 OFFCURVE",
"428 151 OFFCURVE",
"428 133 CURVE SMOOTH",
"428 116 OFFCURVE",
"437 107 OFFCURVE",
"455 107 CURVE SMOOTH",
"472 107 OFFCURVE",
"480 116 OFFCURVE",
"480 133 CURVE SMOOTH"
);
},
{
closed = 1;
nodes = (
"408 103 OFFCURVE",
"400 112 OFFCURVE",
"383 112 CURVE SMOOTH",
"364 112 OFFCURVE",
"355 103 OFFCURVE",
"355 85 CURVE SMOOTH",
"355 68 OFFCURVE",
"364 60 OFFCURVE",
"383 60 CURVE SMOOTH",
"400 60 OFFCURVE",
"408 68 OFFCURVE",
"408 85 CURVE SMOOTH"
);
},
{
closed = 1;
nodes = (
"118 393 OFFCURVE",
"109 402 OFFCURVE",
"92 402 CURVE SMOOTH",
"74 402 OFFCURVE",
"65 393 OFFCURVE",
"65 376 CURVE SMOOTH",
"65 358 OFFCURVE",
"74 349 OFFCURVE",
"93 349 CURVE SMOOTH",
"110 349 OFFCURVE",
"118 358 OFFCURVE",
"118 376 CURVE SMOOTH"
);
},
{
closed = 1;
nodes = (
"101 308 OFFCURVE",
"92 317 OFFCURVE",
"75 317 CURVE SMOOTH",
"57 317 OFFCURVE",
"48 308 OFFCURVE",
"48 291 CURVE SMOOTH",
"48 274 OFFCURVE",
"57 265 OFFCURVE",
"75 265 CURVE SMOOTH",
"92 265 OFFCURVE",
"101 274 OFFCURVE",
"101 291 CURVE SMOOTH"
);
},
{
closed = 1;
nodes = (
"323 86 OFFCURVE",
"314 95 OFFCURVE",
"297 95 CURVE SMOOTH",
"280 95 OFFCURVE",
"271 86 OFFCURVE",
"271 69 CURVE SMOOTH",
"271 51 OFFCURVE",
"280 42 OFFCURVE",
"297 42 CURVE SMOOTH",
"314 42 OFFCURVE",
"323 51 OFFCURVE",
"323 69 CURVE SMOOTH"
);
},
{
closed = 1;
nodes = (
"118 224 OFFCURVE",
"109 233 OFFCURVE",
"92 233 CURVE SMOOTH",
"74 233 OFFCURVE",
"65 224 OFFCURVE",
"65 206 CURVE SMOOTH",
"65 189 OFFCURVE",
"74 180 OFFCURVE",
"92 180 CURVE SMOOTH",
"109 180 OFFCURVE",
"118 189 OFFCURVE",
"118 206 CURVE SMOOTH"
);
},
{
closed = 1;
nodes = (
"239 104 OFFCURVE",
"230 112 OFFCURVE",
"212 112 CURVE SMOOTH",
"195 112 OFFCURVE",
"186 103 OFFCURVE",
"186 85 CURVE SMOOTH",
"186 68 OFFCURVE",
"195 60 OFFCURVE",
"212 60 CURVE SMOOTH",
"230 60 OFFCURVE",
"239 69 OFFCURVE",
"239 87 CURVE SMOOTH"
);
},
{
closed = 1;
nodes = (
"167 151 OFFCURVE",
"158 160 OFFCURVE",
"140 160 CURVE SMOOTH",
"123 160 OFFCURVE",
"114 151 OFFCURVE",
"114 133 CURVE SMOOTH",
"114 116 OFFCURVE",
"123 107 OFFCURVE",
"140 107 CURVE SMOOTH",
"158 107 OFFCURVE",
"167 116 OFFCURVE",
"167 133 CURVE SMOOTH"
);
}
);
width = 594;
},
{
layerId = "BD31AAF9-E65B-4A30-ACC0-7018B0C27C60";
paths = (
{
closed = 1;
nodes = (
"480 466 OFFCURVE",
"472 475 OFFCURVE",
"455 475 CURVE SMOOTH",
"437 475 OFFCURVE",
"428 466 OFFCURVE",
"428 448 CURVE SMOOTH",
"428 431 OFFCURVE",
"437 422 OFFCURVE",
"455 422 CURVE SMOOTH",
"472 422 OFFCURVE",
"480 431 OFFCURVE",
"480 448 CURVE SMOOTH"
);
},
{
closed = 1;
nodes = (
"408 514 OFFCURVE",
"400 523 OFFCURVE",
"383 523 CURVE SMOOTH",
"364 523 OFFCURVE",
"355 514 OFFCURVE",
"355 496 CURVE SMOOTH",
"355 479 OFFCURVE",
"364 470 OFFCURVE",
"383 470 CURVE SMOOTH",
"400 470 OFFCURVE",
"408 479 OFFCURVE",
"408 496 CURVE SMOOTH"
);
},
{
closed = 1;
nodes = (
"529 393 OFFCURVE",
"520 402 OFFCURVE",
"503 402 CURVE SMOOTH",
"485 402 OFFCURVE",
"476 393 OFFCURVE",
"476 376 CURVE SMOOTH",
"476 358 OFFCURVE",
"485 349 OFFCURVE",
"502 349 CURVE SMOOTH",
"520 349 OFFCURVE",
"529 358 OFFCURVE",
"529 376 CURVE SMOOTH"
);
},
{
closed = 1;
nodes = (
"546 308 OFFCURVE",
"538 317 OFFCURVE",
"521 317 CURVE SMOOTH",
"503 317 OFFCURVE",
"494 308 OFFCURVE",
"494 291 CURVE SMOOTH",
"494 274 OFFCURVE",
"503 265 OFFCURVE",
"521 265 CURVE SMOOTH",
"538 265 OFFCURVE",
"546 274 OFFCURVE",
"546 291 CURVE SMOOTH"
);
},
{
closed = 1;
nodes = (
"323 531 OFFCURVE",
"314 540 OFFCURVE",
"297 540 CURVE SMOOTH",
"280 540 OFFCURVE",
"271 531 OFFCURVE",
"271 514 CURVE SMOOTH",
"271 496 OFFCURVE",
"280 487 OFFCURVE",
"297 487 CURVE SMOOTH",
"314 487 OFFCURVE",
"323 496 OFFCURVE",
"323 514 CURVE SMOOTH"
);
},
{
closed = 1;
nodes = (
"239 514 OFFCURVE",
"230 523 OFFCURVE",
"212 523 CURVE SMOOTH",
"195 523 OFFCURVE",
"186 514 OFFCURVE",
"186 496 CURVE SMOOTH",
"186 479 OFFCURVE",
"195 470 OFFCURVE",
"212 470 CURVE SMOOTH",
"230 470 OFFCURVE",
"239 479 OFFCURVE",
"239 496 CURVE SMOOTH"
);
},
{
closed = 1;
nodes = (
"529 224 OFFCURVE",
"520 233 OFFCURVE",
"502 233 CURVE SMOOTH",
"485 233 OFFCURVE",
"476 224 OFFCURVE",
"476 206 CURVE SMOOTH",
"476 189 OFFCURVE",
"485 180 OFFCURVE",
"502 180 CURVE SMOOTH",
"520 180 OFFCURVE",
"529 189 OFFCURVE",
"529 206 CURVE SMOOTH"
);
},
{
closed = 1;
nodes = (
"167 466 OFFCURVE",
"158 475 OFFCURVE",
"140 475 CURVE SMOOTH",
"123 475 OFFCURVE",
"114 466 OFFCURVE",
"114 447 CURVE SMOOTH",
"114 430 OFFCURVE",
"123 422 OFFCURVE",
"140 422 CURVE SMOOTH",
"158 422 OFFCURVE",
"167 431 OFFCURVE",
"167 448 CURVE SMOOTH"
);
},
{
closed = 1;
nodes = (
"480 151 OFFCURVE",
"472 160 OFFCURVE",
"455 160 CURVE SMOOTH",
"437 160 OFFCURVE",
"428 151 OFFCURVE",
"428 133 CURVE SMOOTH",
"428 116 OFFCURVE",
"437 107 OFFCURVE",
"455 107 CURVE SMOOTH",
"472 107 OFFCURVE",
"480 116 OFFCURVE",
"480 133 CURVE SMOOTH"
);
},
{
closed = 1;
nodes = (
"408 103 OFFCURVE",
"400 112 OFFCURVE",
"383 112 CURVE SMOOTH",
"364 112 OFFCURVE",
"355 103 OFFCURVE",
"355 85 CURVE SMOOTH",
"355 68 OFFCURVE",
"364 60 OFFCURVE",
"383 60 CURVE SMOOTH",
"400 60 OFFCURVE",
"408 68 OFFCURVE",
"408 85 CURVE SMOOTH"
);
},
{
closed = 1;
nodes = (
"118 393 OFFCURVE",
"109 402 OFFCURVE",
"92 402 CURVE SMOOTH",
"74 402 OFFCURVE",
"65 393 OFFCURVE",
"65 376 CURVE SMOOTH",
"65 358 OFFCURVE",
"74 349 OFFCURVE",
"93 349 CURVE SMOOTH",
"110 349 OFFCURVE",
"118 358 OFFCURVE",
"118 376 CURVE SMOOTH"
);
},
{
closed = 1;
nodes = (
"101 308 OFFCURVE",
"92 317 OFFCURVE",
"75 317 CURVE SMOOTH",
"57 317 OFFCURVE",
"48 308 OFFCURVE",
"48 291 CURVE SMOOTH",
"48 274 OFFCURVE",
"57 265 OFFCURVE",
"75 265 CURVE SMOOTH",
"92 265 OFFCURVE",
"101 274 OFFCURVE",
"101 291 CURVE SMOOTH"
);
},
{
closed = 1;
nodes = (
"323 86 OFFCURVE",
"314 95 OFFCURVE",
"297 95 CURVE SMOOTH",
"280 95 OFFCURVE",
"271 86 OFFCURVE",
"271 69 CURVE SMOOTH",
"271 51 OFFCURVE",
"280 42 OFFCURVE",
"297 42 CURVE SMOOTH",
"314 42 OFFCURVE",
"323 51 OFFCURVE",
"323 69 CURVE SMOOTH"
);
},
{
closed = 1;
nodes = (
"118 224 OFFCURVE",
"109 233 OFFCURVE",
"92 233 CURVE SMOOTH",
"74 233 OFFCURVE",
"65 224 OFFCURVE",
"65 206 CURVE SMOOTH",
"65 189 OFFCURVE",
"74 180 OFFCURVE",
"92 180 CURVE SMOOTH",
"109 180 OFFCURVE",
"118 189 OFFCURVE",
"118 206 CURVE SMOOTH"
);
},
{
closed = 1;
nodes = (
"239 104 OFFCURVE",
"230 112 OFFCURVE",
"212 112 CURVE SMOOTH",
"195 112 OFFCURVE",
"186 103 OFFCURVE",
"186 85 CURVE SMOOTH",
"186 68 OFFCURVE",
"195 60 OFFCURVE",
"212 60 CURVE SMOOTH",
"230 60 OFFCURVE",
"239 69 OFFCURVE",
"239 87 CURVE SMOOTH"
);
},
{
closed = 1;
nodes = (
"167 151 OFFCURVE",
"158 160 OFFCURVE",
"140 160 CURVE SMOOTH",
"123 160 OFFCURVE",
"114 151 OFFCURVE",
"114 133 CURVE SMOOTH",
"114 116 OFFCURVE",
"123 107 OFFCURVE",
"140 107 CURVE SMOOTH",
"158 107 OFFCURVE",
"167 116 OFFCURVE",
"167 133 CURVE SMOOTH"
);
}
);
width = 594;
},
{
layerId = "AD6F6DAA-2D58-4E1D-98AF-ACAAF76D7B9E";
paths = (
{
closed = 1;
nodes = (
"480 466 OFFCURVE",
"472 475 OFFCURVE",
"455 475 CURVE SMOOTH",
"437 475 OFFCURVE",
"428 466 OFFCURVE",
"428 448 CURVE SMOOTH",
"428 431 OFFCURVE",
"437 422 OFFCURVE",
"455 422 CURVE SMOOTH",
"472 422 OFFCURVE",
"480 431 OFFCURVE",
"480 448 CURVE SMOOTH"
);
},
{
closed = 1;
nodes = (
"408 514 OFFCURVE",
"400 523 OFFCURVE",
"383 523 CURVE SMOOTH",
"364 523 OFFCURVE",
"355 514 OFFCURVE",
"355 496 CURVE SMOOTH",
"355 479 OFFCURVE",
"364 470 OFFCURVE",
"383 470 CURVE SMOOTH",
"400 470 OFFCURVE",
"408 479 OFFCURVE",
"408 496 CURVE SMOOTH"
);
},
{
closed = 1;
nodes = (
"529 393 OFFCURVE",
"520 402 OFFCURVE",
"503 402 CURVE SMOOTH",
"485 402 OFFCURVE",
"476 393 OFFCURVE",
"476 376 CURVE SMOOTH",
"476 358 OFFCURVE",
"485 349 OFFCURVE",
"502 349 CURVE SMOOTH",
"520 349 OFFCURVE",
"529 358 OFFCURVE",
"529 376 CURVE SMOOTH"
);
},
{
closed = 1;
nodes = (
"546 308 OFFCURVE",
"538 317 OFFCURVE",
"521 317 CURVE SMOOTH",
"503 317 OFFCURVE",
"494 308 OFFCURVE",
"494 291 CURVE SMOOTH",
"494 274 OFFCURVE",
"503 265 OFFCURVE",
"521 265 CURVE SMOOTH",
"538 265 OFFCURVE",
"546 274 OFFCURVE",
"546 291 CURVE SMOOTH"
);
},
{
closed = 1;
nodes = (
"323 531 OFFCURVE",
"314 540 OFFCURVE",
"297 540 CURVE SMOOTH",
"280 540 OFFCURVE",
"271 531 OFFCURVE",
"271 514 CURVE SMOOTH",
"271 496 OFFCURVE",
"280 487 OFFCURVE",
"297 487 CURVE SMOOTH",
"314 487 OFFCURVE",
"323 496 OFFCURVE",
"323 514 CURVE SMOOTH"
);
},
{
closed = 1;
nodes = (
"239 514 OFFCURVE",
"230 523 OFFCURVE",
"212 523 CURVE SMOOTH",
"195 523 OFFCURVE",
"186 514 OFFCURVE",
"186 496 CURVE SMOOTH",
"186 479 OFFCURVE",
"195 470 OFFCURVE",
"212 470 CURVE SMOOTH",
"230 470 OFFCURVE",
"239 479 OFFCURVE",
"239 496 CURVE SMOOTH"
);
},
{
closed = 1;
nodes = (
"529 224 OFFCURVE",
"520 233 OFFCURVE",
"502 233 CURVE SMOOTH",
"485 233 OFFCURVE",
"476 224 OFFCURVE",
"476 206 CURVE SMOOTH",
"476 189 OFFCURVE",
"485 180 OFFCURVE",
"502 180 CURVE SMOOTH",
"520 180 OFFCURVE",
"529 189 OFFCURVE",
"529 206 CURVE SMOOTH"
);
},
{
closed = 1;
nodes = (
"167 466 OFFCURVE",
"158 475 OFFCURVE",
"140 475 CURVE SMOOTH",
"123 475 OFFCURVE",
"114 466 OFFCURVE",
"114 447 CURVE SMOOTH",
"114 430 OFFCURVE",
"123 422 OFFCURVE",
"140 422 CURVE SMOOTH",
"158 422 OFFCURVE",
"167 431 OFFCURVE",
"167 448 CURVE SMOOTH"
);
},
{
closed = 1;
nodes = (
"480 151 OFFCURVE",
"472 160 OFFCURVE",
"455 160 CURVE SMOOTH",
"437 160 OFFCURVE",
"428 151 OFFCURVE",
"428 133 CURVE SMOOTH",
"428 116 OFFCURVE",
"437 107 OFFCURVE",
"455 107 CURVE SMOOTH",
"472 107 OFFCURVE",
"480 116 OFFCURVE",
"480 133 CURVE SMOOTH"
);
},
{
closed = 1;
nodes = (
"408 103 OFFCURVE",
"400 112 OFFCURVE",
"383 112 CURVE SMOOTH",
"364 112 OFFCURVE",
"355 103 OFFCURVE",
"355 85 CURVE SMOOTH",
"355 68 OFFCURVE",
"364 60 OFFCURVE",
"383 60 CURVE SMOOTH",
"400 60 OFFCURVE",
"408 68 OFFCURVE",
"408 85 CURVE SMOOTH"
);
},
{
closed = 1;
nodes = (
"118 393 OFFCURVE",
"109 402 OFFCURVE",
"92 402 CURVE SMOOTH",
"74 402 OFFCURVE",
"65 393 OFFCURVE",
"65 376 CURVE SMOOTH",
"65 358 OFFCURVE",
"74 349 OFFCURVE",
"93 349 CURVE SMOOTH",
"110 349 OFFCURVE",
"118 358 OFFCURVE",
"118 376 CURVE SMOOTH"
);
},
{
closed = 1;
nodes = (
"101 308 OFFCURVE",
"92 317 OFFCURVE",
"75 317 CURVE SMOOTH",
"57 317 OFFCURVE",
"48 308 OFFCURVE",
"48 291 CURVE SMOOTH",
"48 274 OFFCURVE",
"57 265 OFFCURVE",
"75 265 CURVE SMOOTH",
"92 265 OFFCURVE",
"101 274 OFFCURVE",
"101 291 CURVE SMOOTH"
);
},
{
closed = 1;
nodes = (
"323 86 OFFCURVE",
"314 95 OFFCURVE",
"297 95 CURVE SMOOTH",
"280 95 OFFCURVE",
"271 86 OFFCURVE",
"271 69 CURVE SMOOTH",
"271 51 OFFCURVE",
"280 42 OFFCURVE",
"297 42 CURVE SMOOTH",
"314 42 OFFCURVE",
"323 51 OFFCURVE",
"323 69 CURVE SMOOTH"
);
},
{
closed = 1;
nodes = (
"118 224 OFFCURVE",
"109 233 OFFCURVE",
"92 233 CURVE SMOOTH",
"74 233 OFFCURVE",
"65 224 OFFCURVE",
"65 206 CURVE SMOOTH",
"65 189 OFFCURVE",
"74 180 OFFCURVE",
"92 180 CURVE SMOOTH",
"109 180 OFFCURVE",
"118 189 OFFCURVE",
"118 206 CURVE SMOOTH"
);
},
{
closed = 1;
nodes = (
"239 104 OFFCURVE",
"230 112 OFFCURVE",
"212 112 CURVE SMOOTH",
"195 112 OFFCURVE",
"186 103 OFFCURVE",
"186 85 CURVE SMOOTH",
"186 68 OFFCURVE",
"195 60 OFFCURVE",
"212 60 CURVE SMOOTH",
"230 60 OFFCURVE",
"239 69 OFFCURVE",
"239 87 CURVE SMOOTH"
);
},
{
closed = 1;
nodes = (
"167 151 OFFCURVE",
"158 160 OFFCURVE",
"140 160 CURVE SMOOTH",
"123 160 OFFCURVE",
"114 151 OFFCURVE",
"114 133 CURVE SMOOTH",
"114 116 OFFCURVE",
"123 107 OFFCURVE",
"140 107 CURVE SMOOTH",
"158 107 OFFCURVE",
"167 116 OFFCURVE",
"167 133 CURVE SMOOTH"
);
}
);
width = 594;
}
);
note = uni25CC;
unicode = 25CC;
},
{
glyphname = uni200C;
lastChange = "2016-07-07 18:36:03 +0000";
layers = (
{
layerId = "1F954AD7-537E-453D-9D07-161C7E95D0AA";
paths = (
{
closed = 1;
nodes = (
"-18 679 LINE",
"-18 -45 LINE",
"18 -45 LINE",
"18 679 LINE"
);
}
);
width = 0;
},
{
layerId = "3FB868F8-5CDC-4A46-BA32-95627737ABE0";
paths = (
{
closed = 1;
nodes = (
"-18 679 LINE",
"-18 -45 LINE",
"18 -45 LINE",
"18 679 LINE"
);
}
);
width = 0;
},
{
layerId = "BD31AAF9-E65B-4A30-ACC0-7018B0C27C60";
paths = (
{
closed = 1;
nodes = (
"-18 679 LINE",
"-18 -45 LINE",
"18 -45 LINE",
"18 679 LINE"
);
}
);
width = 0;
},
{
layerId = "AD6F6DAA-2D58-4E1D-98AF-ACAAF76D7B9E";
paths = (
{
closed = 1;
nodes = (
"-18 679 LINE",
"-18 -45 LINE",
"18 -45 LINE",
"18 679 LINE"
);
}
);
width = 0;
}
);
note = uni200C;
unicode = 200C;
},
{
glyphname = uni200D;
lastChange = "2016-07-07 18:36:03 +0000";
layers = (
{
layerId = "1F954AD7-537E-453D-9D07-161C7E95D0AA";
paths = (
{
closed = 1;
nodes = (
"18 533 LINE",
"83 467 LINE",
"107 491 LINE",
"23 573 LINE",
"107 655 LINE",
"83 679 LINE",
"0 596 LINE",
"-83 679 LINE",
"-107 655 LINE",
"-23 573 LINE",
"-107 491 LINE",
"-83 467 LINE",
"-18 533 LINE",
"-18 -45 LINE",
"18 -45 LINE"
);
}
);
width = 0;
},
{
layerId = "3FB868F8-5CDC-4A46-BA32-95627737ABE0";
paths = (
{
closed = 1;
nodes = (
"18 533 LINE",
"83 467 LINE",
"107 491 LINE",
"23 573 LINE",
"107 655 LINE",
"83 679 LINE",
"0 596 LINE",
"-83 679 LINE",
"-107 655 LINE",
"-23 573 LINE",
"-107 491 LINE",
"-83 467 LINE",
"-18 533 LINE",
"-18 -45 LINE",
"18 -45 LINE"
);
}
);
width = 0;
},
{
layerId = "BD31AAF9-E65B-4A30-ACC0-7018B0C27C60";
paths = (
{
closed = 1;
nodes = (
"18 533 LINE",
"83 467 LINE",
"107 491 LINE",
"23 573 LINE",
"107 655 LINE",
"83 679 LINE",
"0 596 LINE",
"-83 679 LINE",
"-107 655 LINE",
"-23 573 LINE",
"-107 491 LINE",
"-83 467 LINE",
"-18 533 LINE",
"-18 -45 LINE",
"18 -45 LINE"
);
}
);
width = 0;
},
{
layerId = "AD6F6DAA-2D58-4E1D-98AF-ACAAF76D7B9E";
paths = (
{
closed = 1;
nodes = (
"18 533 LINE",
"83 467 LINE",
"107 491 LINE",
"23 573 LINE",
"107 655 LINE",
"83 679 LINE",
"0 596 LINE",
"-83 679 LINE",
"-107 655 LINE",
"-23 573 LINE",
"-107 491 LINE",
"-83 467 LINE",
"-18 533 LINE",
"-18 -45 LINE",
"18 -45 LINE"
);
}
);
width = 0;
}
);
note = uni200D;
unicode = 200D;
},
{
glyphname = uni200E;
lastChange = "2016-07-07 18:36:03 +0000";
layers = (
{
layerId = "1F954AD7-537E-453D-9D07-161C7E95D0AA";
paths = (
{
closed = 1;
nodes = (
"104 679 LINE",
"80 655 LINE",
"147 592 LINE",
"-18 592 LINE",
"-18 -45 LINE",
"17 -45 LINE",
"17 557 LINE",
"147 557 LINE",
"80 494 LINE",
"104 470 LINE",
"210 574 LINE"
);
}
);
width = 0;
},
{
layerId = "3FB868F8-5CDC-4A46-BA32-95627737ABE0";
paths = (
{
closed = 1;
nodes = (
"104 679 LINE",
"80 655 LINE",
"147 592 LINE",
"-18 592 LINE",
"-18 -45 LINE",
"17 -45 LINE",
"17 557 LINE",
"147 557 LINE",
"80 494 LINE",
"104 470 LINE",
"210 574 LINE"
);
}
);
width = 0;
},
{
layerId = "BD31AAF9-E65B-4A30-ACC0-7018B0C27C60";
paths = (
{
closed = 1;
nodes = (
"104 679 LINE",
"80 655 LINE",
"147 592 LINE",
"-18 592 LINE",
"-18 -45 LINE",
"17 -45 LINE",
"17 557 LINE",
"147 557 LINE",
"80 494 LINE",
"104 470 LINE",
"210 574 LINE"
);
}
);
width = 0;
},
{
layerId = "AD6F6DAA-2D58-4E1D-98AF-ACAAF76D7B9E";
paths = (
{
closed = 1;
nodes = (
"104 679 LINE",
"80 655 LINE",
"147 592 LINE",
"-18 592 LINE",
"-18 -45 LINE",
"17 -45 LINE",
"17 557 LINE",
"147 557 LINE",
"80 494 LINE",
"104 470 LINE",
"210 574 LINE"
);
}
);
width = 0;
}
);
note = uni200E;
unicode = 200E;
},
{
glyphname = uni200F;
lastChange = "2016-07-07 18:36:03 +0000";
layers = (
{
layerId = "1F954AD7-537E-453D-9D07-161C7E95D0AA";
paths = (
{
closed = 1;
nodes = (
"17 592 LINE",
"-147 592 LINE",
"-81 655 LINE",
"-104 679 LINE",
"-210 574 LINE",
"-104 470 LINE",
"-81 494 LINE",
"-147 557 LINE",
"-18 557 LINE",
"-18 -45 LINE",
"17 -45 LINE"
);
}
);
width = 0;
},
{
layerId = "3FB868F8-5CDC-4A46-BA32-95627737ABE0";
paths = (
{
closed = 1;
nodes = (
"17 592 LINE",
"-147 592 LINE",
"-81 655 LINE",
"-104 679 LINE",
"-210 574 LINE",
"-104 470 LINE",
"-81 494 LINE",
"-147 557 LINE",
"-18 557 LINE",
"-18 -45 LINE",
"17 -45 LINE"
);
}
);
width = 0;
},
{
layerId = "BD31AAF9-E65B-4A30-ACC0-7018B0C27C60";
paths = (
{
closed = 1;
nodes = (
"17 592 LINE",
"-147 592 LINE",
"-81 655 LINE",
"-104 679 LINE",
"-210 574 LINE",
"-104 470 LINE",
"-81 494 LINE",
"-147 557 LINE",
"-18 557 LINE",
"-18 -45 LINE",
"17 -45 LINE"
);
}
);
width = 0;
},
{
layerId = "AD6F6DAA-2D58-4E1D-98AF-ACAAF76D7B9E";
paths = (
{
closed = 1;
nodes = (
"17 592 LINE",
"-147 592 LINE",
"-81 655 LINE",
"-104 679 LINE",
"-210 574 LINE",
"-104 470 LINE",
"-81 494 LINE",
"-147 557 LINE",
"-18 557 LINE",
"-18 -45 LINE",
"17 -45 LINE"
);
}
);
width = 0;
}
);
note = uni200F;
unicode = 200F;
},
{
glyphname = "aleflamed-hb";
lastChange = "2019-06-10 07:48:17 +0000";
layers = (
{
anchors = (
{
name = caret_1;
position = "{284.5, 0}";
}
);
layerId = "1F954AD7-537E-453D-9D07-161C7E95D0AA";
paths = (
{
closed = 1;
nodes = (
"528 0 LINE",
"478 85 OFFCURVE",
"419 173 OFFCURVE",
"362 251 CURVE",
"451 304 OFFCURVE",
"502 379 OFFCURVE",
"512 501 CURVE SMOOTH",
"519 584 LINE",
"487 584 LINE",
"480 498 LINE SMOOTH",
"471 390 OFFCURVE",
"427 321 OFFCURVE",
"346 273 CURVE",
"310 323 OFFCURVE",
"275 368 OFFCURVE",
"245 405 CURVE SMOOTH",
"164 504 OFFCURVE",
"131 542 OFFCURVE",
"95 584 CURVE",
"47 584 LINE",
"47 760 LINE",
"15 755 LINE",
"15 557 LINE",
"82 557 LINE",
"112 523 OFFCURVE",
"147 480 OFFCURVE",
"211 401 CURVE SMOOTH",
"289 303 OFFCURVE",
"406 149 OFFCURVE",
"493 0 CURVE"
);
}
);
width = 569;
},
{
anchors = (
{
name = caret_1;
position = "{383.5, 0}";
}
);
layerId = "3FB868F8-5CDC-4A46-BA32-95627737ABE0";
paths = (
{
closed = 1;
nodes = (
"715 0 LINE",
"658 91 OFFCURVE",
"598 174 OFFCURVE",
"539 259 CURVE",
"650 304 OFFCURVE",
"690 397 OFFCURVE",
"700 487 CURVE SMOOTH",
"713 609 LINE",
"522 609 LINE",
"508 500 LINE SMOOTH",
"502 454 OFFCURVE",
"498 401 OFFCURVE",
"459 376 CURVE",
"447 395 OFFCURVE",
"434 414 OFFCURVE",
"422 434 CURVE SMOOTH",
"400 469 OFFCURVE",
"337 561 OFFCURVE",
"298 609 CURVE",
"217 609 LINE",
"217 760 LINE",
"25 740 LINE",
"25 451 LINE",
"185 451 LINE",
"203 428 OFFCURVE",
"222 404 OFFCURVE",
"240 381 CURVE SMOOTH",
"341 256 OFFCURVE",
"404 152 OFFCURVE",
"492 0 CURVE"
);
}
);
width = 767;
},
{
anchors = (
{
name = caret_1;
position = "{213, 0}";
}
);
layerId = "BD31AAF9-E65B-4A30-ACC0-7018B0C27C60";
paths = (
{
closed = 1;
nodes = (
"359 0 LINE",
"333 72 OFFCURVE",
"302 149 OFFCURVE",
"271 220 CURVE",
"342 281 OFFCURVE",
"346 355 OFFCURVE",
"355 471 CURVE SMOOTH",
"364 584 LINE",
"332 584 LINE",
"323 468 LINE SMOOTH",
"315 369 OFFCURVE",
"317 302 OFFCURVE",
"259 248 CURVE",
"231 312 OFFCURVE",
"202 370 OFFCURVE",
"177 415 CURVE SMOOTH",
"121 514 OFFCURVE",
"106 542 OFFCURVE",
"79 584 CURVE",
"47 584 LINE",
"47 760 LINE",
"15 755 LINE",
"15 557 LINE",
"62 557 LINE",
"82 526 OFFCURVE",
"104 489 OFFCURVE",
"146 411 CURVE SMOOTH",
"199 312 OFFCURVE",
"273 149 OFFCURVE",
"327 0 CURVE"
);
}
);
width = 426;
},
{
anchors = (
{
name = caret_1;
position = "{281.5, 0}";
}
);
layerId = "AD6F6DAA-2D58-4E1D-98AF-ACAAF76D7B9E";
paths = (
{
closed = 1;
nodes = (
"537 0 LINE",
"497 95 OFFCURVE",
"454 182 OFFCURVE",
"411 270 CURVE",
"502 318 OFFCURVE",
"532 404 OFFCURVE",
"534 487 CURVE SMOOTH",
"538 609 LINE",
"367 609 LINE",
"360 500 LINE SMOOTH",
"358 469 OFFCURVE",
"357 436 OFFCURVE",
"347 409 CURVE",
"343 418 OFFCURVE",
"340 426 OFFCURVE",
"336 434 CURVE SMOOTH",
"321 469 OFFCURVE",
"277 561 OFFCURVE",
"248 609 CURVE",
"207 609 LINE",
"207 760 LINE",
"15 740 LINE",
"15 451 LINE",
"134 451 LINE",
"149 424 OFFCURVE",
"162 399 OFFCURVE",
"172 381 CURVE SMOOTH",
"237 256 OFFCURVE",
"278 152 OFFCURVE",
"334 0 CURVE"
);
}
);
width = 563;
}
);
note = aleflamed;
unicode = FB4F;
},
{
glyphname = "alef-hb";
lastChange = "2019-06-25 19:00:48 +0000";
layers = (
{
anchors = (
{
name = bottom;
position = "{311, 0}";
},
{
name = bottomleft;
position = "{110, 0}";
},
{
name = center;
position = "{265, 127}";
},
{
name = top;
position = "{299, 528}";
},
{
name = topleft;
position = "{83, 528}";
}
);
layerId = "1F954AD7-537E-453D-9D07-161C7E95D0AA";
paths = (
{
closed = 1;
nodes = (
"543 0 LINE",
"456 148 OFFCURVE",
"340 307 OFFCURVE",
"260 405 CURVE SMOOTH",
"179 504 OFFCURVE",
"146 542 OFFCURVE",
"110 584 CURVE",
"74 584 LINE",
"109 543 OFFCURVE",
"145 502 OFFCURVE",
"226 401 CURVE SMOOTH",
"305 304 OFFCURVE",
"421 149 OFFCURVE",
"508 0 CURVE"
);
},
{
closed = 1;
nodes = (
"77 0 LINE",
"101 174 LINE SMOOTH",
"116 283 OFFCURVE",
"149 356 OFFCURVE",
"233 404 CURVE",
"217 426 LINE",
"125 373 OFFCURVE",
"86 294 OFFCURVE",
"69 171 CURVE SMOOTH",
"45 0 LINE"
);
},
{
closed = 1;
nodes = (
"464 301 OFFCURVE",
"517 377 OFFCURVE",
"527 501 CURVE SMOOTH",
"534 584 LINE",
"502 584 LINE",
"495 498 LINE SMOOTH",
"486 388 OFFCURVE",
"440 318 OFFCURVE",
"356 270 CURVE",
"372 248 LINE"
);
}
);
width = 588;
},
{
anchors = (
{
name = bottom;
position = "{351, 0}";
},
{
name = bottomleft;
position = "{205, 0}";
},
{
name = center;
position = "{324, 70}";
},
{
name = top;
position = "{355, 553}";
},
{
name = topleft;
position = "{34, 553}";
}
);
layerId = "3FB868F8-5CDC-4A46-BA32-95627737ABE0";
paths = (
{
closed = 1;
nodes = (
"685 0 LINE",
"589 152 OFFCURVE",
"487 283 OFFCURVE",
"392 434 CURVE SMOOTH",
"370 469 OFFCURVE",
"307 561 OFFCURVE",
"268 609 CURVE",
"32 609 LINE",
"66 570 OFFCURVE",
"164 438 OFFCURVE",
"210 381 CURVE SMOOTH",
"311 256 OFFCURVE",
"374 152 OFFCURVE",
"462 0 CURVE"
);
},
{
closed = 1;
nodes = (
"211 0 LINE",
"234 145 LINE SMOOTH",
"243 203 OFFCURVE",
"248 264 OFFCURVE",
"300 279 CURVE",
"245 402 LINE",
"97 367 OFFCURVE",
"60 261 OFFCURVE",
"44 158 CURVE SMOOTH",
"20 0 LINE"
);
},
{
closed = 1;
nodes = (
"608 278 OFFCURVE",
"659 384 OFFCURVE",
"670 487 CURVE SMOOTH",
"683 609 LINE",
"492 609 LINE",
"478 500 LINE SMOOTH",
"471 445 OFFCURVE",
"467 381 OFFCURVE",
"404 366 CURVE",
"458 243 LINE"
);
}
);
width = 705;
},
{
anchors = (
{
name = bottom;
position = "{185, 0}";
},
{
name = bottomleft;
position = "{152, 0}";
},
{
name = center;
position = "{181, 127}";
},
{
name = top;
position = "{258, 528}";
},
{
name = topleft;
position = "{107, 528}";
}
);
layerId = "BD31AAF9-E65B-4A30-ACC0-7018B0C27C60";
paths = (
{
closed = 1;
nodes = (
"382 0 LINE",
"318 148 OFFCURVE",
"245 316 OFFCURVE",
"190 415 CURVE SMOOTH",
"135 514 OFFCURVE",
"119 542 OFFCURVE",
"92 584 CURVE",
"58 584 LINE",
"84 543 OFFCURVE",
"107 512 OFFCURVE",
"160 411 CURVE SMOOTH",
"212 312 OFFCURVE",
"286 149 OFFCURVE",
"350 0 CURVE"
);
},
{
closed = 1;
nodes = (
"71 0 LINE",
"88 184 LINE SMOOTH",
"99 304 OFFCURVE",
"116 350 OFFCURVE",
"175 393 CURVE",
"156 416 LINE",
"91 368 OFFCURVE",
"68 311 OFFCURVE",
"56 181 CURVE SMOOTH",
"39 0 LINE"
);
},
{
closed = 1;
nodes = (
"318 275 OFFCURVE",
"353 375 OFFCURVE",
"361 450 CURVE SMOOTH",
"376 584 LINE",
"344 584 LINE",
"328 447 LINE SMOOTH",
"321 385 OFFCURVE",
"294 293 OFFCURVE",
"247 274 CURVE",
"265 251 LINE"
);
}
);
width = 421;
},
{
anchors = (
{
name = bottom;
position = "{294, 0}";
},
{
name = bottomleft;
position = "{123, 0}";
},
{
name = center;
position = "{253, 81}";
},
{
name = top;
position = "{259, 536}";
},
{
name = topleft;
position = "{21, 536}";
}
);
layerId = "AD6F6DAA-2D58-4E1D-98AF-ACAAF76D7B9E";
paths = (
{
closed = 1;
nodes = (
"525 0 LINE",
"459 152 OFFCURVE",
"387 303 OFFCURVE",
"325 435 CURVE SMOOTH",
"309 470 OFFCURVE",
"265 561 OFFCURVE",
"245 609 CURVE",
"36 609 LINE",
"63 570 OFFCURVE",
"135 440 OFFCURVE",
"164 381 CURVE SMOOTH",
"225 257 OFFCURVE",
"268 152 OFFCURVE",
"326 0 CURVE"
);
},
{
closed = 1;
nodes = (
"209 0 LINE",
"224 226 LINE SMOOTH",
"228 292 OFFCURVE",
"252 341 OFFCURVE",
"277 339 CURVE",
"247 431 LINE",
"138 408 OFFCURVE",
"60 350 OFFCURVE",
"50 239 CURVE SMOOTH",
"28 0 LINE"
);
},
{
closed = 1;
nodes = (
"440 260 OFFCURVE",
"514 317 OFFCURVE",
"522 437 CURVE SMOOTH",
"534 609 LINE",
"353 609 LINE",
"347 450 LINE SMOOTH",
"344 378 OFFCURVE",
"320 344 OFFCURVE",
"295 336 CURVE",
"331 247 LINE"
);
}
);
width = 562;
}
);
unicode = 05D0;
},
{
glyphname = "bet-hb";
lastChange = "2019-06-15 12:43:08 +0000";
layers = (
{
anchors = (
{
name = bottom;
position = "{252, 0}";
},
{
name = bottomleft;
position = "{43, 0}";
},
{
name = center;
position = "{222, 296}";
},
{
name = top;
position = "{214, 528}";
},
{
name = topleft;
position = "{43, 528}";
}
);
layerId = "1F954AD7-537E-453D-9D07-161C7E95D0AA";
paths = (
{
closed = 1;
nodes = (
"417 0 LINE",
"424 6 OFFCURVE",
"427 9 OFFCURVE",
"427 17 CURVE",
"427 419 LINE SMOOTH",
"427 527 OFFCURVE",
"370 584 OFFCURVE",
"264 584 CURVE SMOOTH",
"85 584 LINE",
"80 557 LINE",
"259 557 LINE SMOOTH",
"352 557 OFFCURVE",
"395 511 OFFCURVE",
"395 416 CURVE SMOOTH",
"395 0 LINE"
);
},
{
closed = 1;
nodes = (
"494 0 LINE",
"499 27 LINE",
"50 27 LINE",
"50 0 LINE"
);
}
);
width = 549;
},
{
anchors = (
{
name = bottom;
position = "{310, 0}";
},
{
name = bottomleft;
position = "{15, 0}";
},
{
name = center;
position = "{185, 306}";
},
{
name = top;
position = "{247, 553}";
},
{
name = topleft;
position = "{15, 553}";
}
);
layerId = "3FB868F8-5CDC-4A46-BA32-95627737ABE0";
paths = (
{
closed = 1;
nodes = (
"433 0 LINE",
"466 45 OFFCURVE",
"504 98 OFFCURVE",
"518 147 CURVE",
"518 382 LINE SMOOTH",
"518 533 OFFCURVE",
"433 609 OFFCURVE",
"266 609 CURVE SMOOTH",
"75 609 LINE",
"55 451 LINE",
"257 451 LINE SMOOTH",
"300 451 OFFCURVE",
"326 427 OFFCURVE",
"326 379 CURVE SMOOTH",
"326 0 LINE"
);
},
{
closed = 1;
nodes = (
"574 0 LINE",
"594 158 LINE",
"25 158 LINE",
"25 0 LINE"
);
}
);
width = 609;
},
{
anchors = (
{
name = bottom;
position = "{150, 0}";
},
{
name = bottomleft;
position = "{30, 0}";
},
{
name = center;
position = "{110, 296}";
},
{
name = top;
position = "{129, 528}";
},
{
name = topleft;
position = "{30, 528}";
}
);
layerId = "BD31AAF9-E65B-4A30-ACC0-7018B0C27C60";
paths = (
{
closed = 1;
nodes = (
"253 0 LINE",
"260 6 OFFCURVE",
"263 9 OFFCURVE",
"263 17 CURVE",
"263 419 LINE SMOOTH",
"263 527 OFFCURVE",
"226 584 OFFCURVE",
"120 584 CURVE SMOOTH",
"34 584 LINE",
"29 557 LINE",
"115 557 LINE SMOOTH",
"208 557 OFFCURVE",
"231 511 OFFCURVE",
"231 416 CURVE SMOOTH",
"231 0 LINE"
);
},
{
closed = 1;
nodes = (
"313 0 LINE",
"318 27 LINE",
"29 27 LINE",
"29 0 LINE"
);
}
);
width = 347;
},
{
anchors = (
{
name = bottom;
position = "{249, 0}";
},
{
name = bottomleft;
position = "{38, 0}";
},
{
name = center;
position = "{109, 306}";
},
{
name = top;
position = "{219, 553}";
},
{
name = topleft;
position = "{38, 553}";
}
);
layerId = "AD6F6DAA-2D58-4E1D-98AF-ACAAF76D7B9E";
paths = (
{
closed = 1;
nodes = (
"316 0 LINE",
"349 45 OFFCURVE",
"387 98 OFFCURVE",
"401 147 CURVE",
"401 382 LINE SMOOTH",
"401 533 OFFCURVE",
"336 609 OFFCURVE",
"169 609 CURVE SMOOTH",
"58 609 LINE",
"38 451 LINE",
"160 451 LINE SMOOTH",
"203 451 OFFCURVE",
"209 427 OFFCURVE",
"209 379 CURVE SMOOTH",
"209 0 LINE"
);
},
{
closed = 1;
nodes = (
"442 0 LINE",
"462 158 LINE",
"23 158 LINE",
"23 0 LINE"
);
}
);
width = 485;
}
);
unicode = 05D1;
},
{
glyphname = "gimel-hb";
lastChange = "2019-06-25 19:05:58 +0000";
layers = (
{
anchors = (
{
name = bottom;
position = "{206, 0}";
},
{
name = bottomleft;
position = "{21, 0}";
},
{
name = center;
position = "{112, 316}";
},
{
name = top;
position = "{155, 528}";
},
{
name = topleft;
position = "{66, 528}";
}
);
layerId = "1F954AD7-537E-453D-9D07-161C7E95D0AA";
paths = (
{
closed = 1;
nodes = (
"313 7 LINE",
"262 146 LINE",
"262 479 LINE SMOOTH",
"262 548 OFFCURVE",
"224 584 OFFCURVE",
"160 584 CURVE SMOOTH",
"93 584 LINE",
"88 557 LINE",
"155 557 LINE SMOOTH",
"205 557 OFFCURVE",
"230 529 OFFCURVE",
"230 476 CURVE SMOOTH",
"230 184 LINE",
"207 120 OFFCURVE",
"112 27 OFFCURVE",
"28 27 CURVE SMOOTH",
"25 27 LINE",
"25 0 LINE",
"31 0 LINE SMOOTH",
"113 0 OFFCURVE",
"183 59 OFFCURVE",
"233 131 CURVE",
"236 131 LINE",
"284 -5 LINE"
);
}
);
width = 336;
},
{
anchors = (
{
name = bottom;
position = "{201, 0}";
},
{
name = bottomleft;
position = "{2, 0}";
},
{
name = center;
position = "{101, 306}";
},
{
name = top;
position = "{213, 553}";
},
{
name = topleft;
position = "{40, 553}";
}
);
layerId = "3FB868F8-5CDC-4A46-BA32-95627737ABE0";
paths = (
{
closed = 1;
nodes = (
"414 23 LINE",
"386 186 LINE",
"386 409 LINE SMOOTH",
"386 539 OFFCURVE",
"320 609 OFFCURVE",
"169 609 CURVE SMOOTH",
"80 609 LINE",
"60 450 LINE",
"116 450 LINE SMOOTH",
"175 450 OFFCURVE",
"194 439 OFFCURVE",
"194 390 CURVE SMOOTH",
"194 223 LINE",
"172 197 OFFCURVE",
"125 164 OFFCURVE",
"50 162 CURVE",
"20 162 LINE",
"20 0 LINE",
"50 0 LINE SMOOTH",
"137 0 OFFCURVE",
"166 23 OFFCURVE",
"209 122 CURVE",
"222 122 LINE",
"244 -5 LINE"
);
}
);
width = 437;
},
{
anchors = (
{
name = bottom;
position = "{155, 0}";
},
{
name = bottomleft;
position = "{36, 0}";
},
{
name = center;
position = "{77, 296}";
},
{
name = top;
position = "{137, 528}";
},
{
name = topleft;
position = "{75, 528}";
}
);
layerId = "BD31AAF9-E65B-4A30-ACC0-7018B0C27C60";
paths = (
{
closed = 1;
nodes = (
"242 7 LINE",
"201 144 LINE",
"201 479 LINE SMOOTH",
"201 548 OFFCURVE",
"173 584 OFFCURVE",
"109 584 CURVE SMOOTH",
"80 584 LINE",
"75 557 LINE",
"104 557 LINE SMOOTH",
"154 557 OFFCURVE",
"169 529 OFFCURVE",
"169 476 CURVE SMOOTH",
"169 168 LINE",
"152 130 OFFCURVE",
"102 27 OFFCURVE",
"35 27 CURVE SMOOTH",
"24 27 LINE",
"24 0 LINE",
"35 0 LINE SMOOTH",
"120 0 OFFCURVE",
"162 101 OFFCURVE",
"173 119 CURVE",
"176 119 LINE",
"213 -5 LINE"
);
}
);
width = 271;
},
{
anchors = (
{
name = bottom;
position = "{179, 3}";
},
{
name = bottomleft;
position = "{41, 0}";
},
{
name = center;
position = "{84, 306}";
},
{
name = top;
position = "{208, 553}";
},
{
name = topleft;
position = "{79, 553}";
}
);
layerId = "AD6F6DAA-2D58-4E1D-98AF-ACAAF76D7B9E";
paths = (
{
closed = 1;
nodes = (
"385 23 LINE",
"358 186 LINE",
"358 409 LINE SMOOTH",
"358 539 OFFCURVE",
"312 609 OFFCURVE",
"161 609 CURVE SMOOTH",
"80 609 LINE",
"60 450 LINE",
"108 450 LINE SMOOTH",
"157 450 OFFCURVE",
"166 439 OFFCURVE",
"166 390 CURVE SMOOTH",
"166 213 LINE",
"144 187 OFFCURVE",
"95 164 OFFCURVE",
"30 162 CURVE",
"20 162 LINE",
"20 0 LINE",
"30 0 LINE SMOOTH",
"107 0 OFFCURVE",
"150 13 OFFCURVE",
"183 85 CURVE",
"196 85 LINE",
"215 -5 LINE"
);
}
);
width = 413;
}
);
unicode = 05D2;
},
{
glyphname = "dalet-hb";
lastChange = "2019-06-15 12:43:08 +0000";
layers = (
{
anchors = (
{
name = bottom;
position = "{361, 0}";
},
{
name = bottomleft;
position = "{181, 0}";
},
{
name = center;
position = "{181, 296}";
},
{
name = top;
position = "{242, 528}";
},
{
name = topleft;
position = "{13, 528}";
}
);
layerId = "1F954AD7-537E-453D-9D07-161C7E95D0AA";
paths = (
{
closed = 1;
nodes = (
"468 557 LINE",
"473 584 LINE",
"40 584 LINE",
"40 557 LINE"
);
},
{
closed = 1;
nodes = (
"378 0 LINE",
"378 509 LINE",
"378 528 OFFCURVE",
"380 548 OFFCURVE",
"383 557 CURVE",
"359 557 LINE",
"350 550 OFFCURVE",
"346 528 OFFCURVE",
"346 509 CURVE",
"346 0 LINE"
);
}
);
width = 513;
},
{
anchors = (
{
name = bottom;
position = "{378, 0}";
},
{
name = bottomleft;
position = "{-15, 0}";
},
{
name = center;
position = "{129, 306}";
},
{
name = top;
position = "{280, 553}";
},
{
name = topleft;
position = "{-25, 553}";
}
);
layerId = "3FB868F8-5CDC-4A46-BA32-95627737ABE0";
paths = (
{
closed = 1;
nodes = (
"555 451 LINE",
"575 609 LINE",
"35 609 LINE",
"35 451 LINE"
);
},
{
closed = 1;
nodes = (
"474 0 LINE",
"474 384 LINE",
"474 416 OFFCURVE",
"474 439 OFFCURVE",
"495 451 CURVE",
"342 451 LINE",
"293 427 OFFCURVE",
"282 366 OFFCURVE",
"282 336 CURVE",
"282 0 LINE"
);
}
);
width = 590;
},
{
anchors = (
{
name = bottom;
position = "{240, 0}";
},
{
name = bottomleft;
position = "{85, 0}";
},
{
name = center;
position = "{125, 296}";
},
{
name = top;
position = "{176, 528}";
},
{
name = topleft;
position = "{27, 528}";
}
);
layerId = "BD31AAF9-E65B-4A30-ACC0-7018B0C27C60";
paths = (
{
closed = 1;
nodes = (
"317 557 LINE",
"322 584 LINE",
"29 584 LINE",
"29 557 LINE"
);
},
{
closed = 1;
nodes = (
"257 0 LINE",
"257 509 LINE",
"257 528 OFFCURVE",
"259 548 OFFCURVE",
"262 557 CURVE",
"238 557 LINE",
"229 550 OFFCURVE",
"225 528 OFFCURVE",
"225 509 CURVE",
"225 0 LINE"
);
}
);
width = 351;
},
{
anchors = (
{
name = bottom;
position = "{269, 0}";
},
{
name = bottomleft;
position = "{37, 0}";
},
{
name = center;
position = "{81, 306}";
},
{
name = top;
position = "{241, 553}";
},
{
name = topleft;
position = "{27, 553}";
}
);
layerId = "AD6F6DAA-2D58-4E1D-98AF-ACAAF76D7B9E";
paths = (
{
closed = 1;
nodes = (
"428 451 LINE",
"448 609 LINE",
"23 609 LINE",
"23 451 LINE"
);
},
{
closed = 1;
nodes = (
"367 0 LINE",
"367 384 LINE",
"367 416 OFFCURVE",
"367 439 OFFCURVE",
"388 451 CURVE",
"235 451 LINE",
"186 427 OFFCURVE",
"175 366 OFFCURVE",
"175 336 CURVE",
"175 0 LINE"
);
}
);
width = 471;
}
);
unicode = 05D3;
},
{
glyphname = "he-hb";
lastChange = "2019-06-15 12:43:08 +0000";
layers = (
{
anchors = (
{
name = bottom;
position = "{278, 0}";
},
{
name = bottomleft;
position = "{47, 0}";
},
{
name = center;
position = "{278, 296}";
},
{
name = top;
position = "{275, 528}";
},
{
name = topleft;
position = "{45, 528}";
}
);
layerId = "1F954AD7-537E-453D-9D07-161C7E95D0AA";
paths = (
{
closed = 1;
nodes = (
"511 0 LINE",
"511 419 LINE SMOOTH",
"511 527 OFFCURVE",
"454 584 OFFCURVE",
"348 584 CURVE SMOOTH",
"60 584 LINE",
"55 557 LINE",
"343 557 LINE SMOOTH",
"436 557 OFFCURVE",
"479 511 OFFCURVE",
"479 416 CURVE SMOOTH",
"479 0 LINE"
);
},
{
closed = 1;
nodes = (
"106 0 LINE",
"106 355 LINE",
"74 350 LINE",
"74 0 LINE"
);
}
);
width = 596;
},
{
anchors = (
{
name = bottom;
position = "{330, 0}";
},
{
name = bottomleft;
position = "{35, 0}";
},
{
name = center;
position = "{327, 306}";
},
{
name = top;
position = "{330, 553}";
},
{
name = topleft;
position = "{35, 553}";
}
);
layerId = "3FB868F8-5CDC-4A46-BA32-95627737ABE0";
paths = (
{
closed = 1;
nodes = (
"629 0 LINE",
"629 382 LINE SMOOTH",
"629 533 OFFCURVE",
"544 609 OFFCURVE",
"377 609 CURVE SMOOTH",
"70 609 LINE",
"50 451 LINE",
"368 451 LINE SMOOTH",
"411 451 OFFCURVE",
"437 427 OFFCURVE",
"437 379 CURVE SMOOTH",
"437 0 LINE"
);
},
{
closed = 1;
nodes = (
"252 0 LINE",
"252 326 LINE",
"60 316 LINE",
"60 0 LINE"
);
}
);
width = 679;
},
{
anchors = (
{
name = bottom;
position = "{226, 0}";
},
{
name = bottomleft;
position = "{58, 0}";
},
{
name = center;
position = "{216, 296}";
},
{
name = top;
position = "{209, 528}";
},
{
name = topleft;
position = "{56, 528}";
}
);
layerId = "BD31AAF9-E65B-4A30-ACC0-7018B0C27C60";
paths = (
{
closed = 1;
nodes = (
"370 0 LINE",
"370 419 LINE SMOOTH",
"370 527 OFFCURVE",
"333 584 OFFCURVE",
"227 584 CURVE SMOOTH",
"69 584 LINE",
"64 557 LINE",
"222 557 LINE SMOOTH",
"315 557 OFFCURVE",
"338 511 OFFCURVE",
"338 416 CURVE SMOOTH",
"338 0 LINE"
);
},
{
closed = 1;
nodes = (
"105 0 LINE",
"105 395 LINE",
"73 390 LINE",
"73 0 LINE"
);
}
);
width = 444;
},
{
anchors = (
{
name = bottom;
position = "{272, 0}";
},
{
name = bottomleft;
position = "{48, 0}";
},
{
name = center;
position = "{288, 306}";
},
{
name = top;
position = "{272, 553}";
},
{
name = topleft;
position = "{48, 553}";
}
);
layerId = "AD6F6DAA-2D58-4E1D-98AF-ACAAF76D7B9E";
paths = (
{
closed = 1;
nodes = (
"522 0 LINE",
"522 382 LINE SMOOTH",
"522 533 OFFCURVE",
"457 609 OFFCURVE",
"290 609 CURVE SMOOTH",
"63 609 LINE",
"43 451 LINE",
"281 451 LINE SMOOTH",
"324 451 OFFCURVE",
"330 427 OFFCURVE",
"330 379 CURVE SMOOTH",
"330 0 LINE"
);
},
{
closed = 1;
nodes = (
"245 0 LINE",
"245 346 LINE",
"53 336 LINE",
"53 0 LINE"
);
}
);
width = 565;
}
);
unicode = 05D4;
},
{
glyphname = "vav-hb";
lastChange = "2019-06-15 12:43:08 +0000";
layers = (
{
anchors = (
{
name = bottom;
position = "{154, 0}";
},
{
name = bottomleft;
position = "{84, 0}";
},
{
name = center;
position = "{54, 296}";
},
{
name = top;
position = "{156, 528}";
},
{
name = topleft;
position = "{156, 528}";
}
);
layerId = "1F954AD7-537E-453D-9D07-161C7E95D0AA";
paths = (
{
closed = 1;
nodes = (
"172 0 LINE",
"172 584 LINE",
"140 584 LINE",
"140 0 LINE"
);
},
{
closed = 1;
nodes = (
"160 557 LINE",
"160 584 LINE",
"45 584 LINE",
"40 557 LINE"
);
}
);
width = 264;
},
{
anchors = (
{
name = bottom;
position = "{206, 0}";
},
{
name = bottomleft;
position = "{72, 0}";
},
{
name = center;
position = "{29, 306}";
},
{
name = top;
position = "{206, 553}";
},
{
name = topleft;
position = "{206, 553}";
}
);
layerId = "3FB868F8-5CDC-4A46-BA32-95627737ABE0";
paths = (
{
closed = 1;
nodes = (
"302 0 LINE",
"302 609 LINE",
"110 609 LINE",
"110 0 LINE"
);
},
{
closed = 1;
nodes = (
"237 451 LINE",
"237 609 LINE",
"55 609 LINE",
"35 451 LINE"
);
}
);
width = 362;
},
{
anchors = (
{
name = bottom;
position = "{132, 0}";
},
{
name = bottomleft;
position = "{60, 0}";
},
{
name = center;
position = "{50, 296}";
},
{
name = top;
position = "{132, 528}";
},
{
name = topleft;
position = "{132, 528}";
}
);
layerId = "BD31AAF9-E65B-4A30-ACC0-7018B0C27C60";
paths = (
{
closed = 1;
nodes = (
"146 0 LINE",
"146 584 LINE",
"114 584 LINE",
"114 0 LINE"
);
},
{
closed = 1;
nodes = (
"134 557 LINE",
"134 584 LINE",
"49 584 LINE",
"44 557 LINE"
);
}
);
width = 220;
},
{
anchors = (
{
name = bottom;
position = "{204, 0}";
},
{
name = bottomleft;
position = "{73, 0}";
},
{
name = center;
position = "{38, 306}";
},
{
name = top;
position = "{207, 553}";
},
{
name = topleft;
position = "{207, 553}";
}
);
layerId = "AD6F6DAA-2D58-4E1D-98AF-ACAAF76D7B9E";
paths = (
{
closed = 1;
nodes = (
"290 0 LINE",
"290 609 LINE",
"98 609 LINE",
"98 0 LINE"
);
},
{
closed = 1;
nodes = (
"225 451 LINE",
"225 609 LINE",
"53 609 LINE",
"33 451 LINE"
);
}
);
width = 343;
}
);
unicode = 05D5;
},
{
glyphname = "zayin-hb";
lastChange = "2019-06-25 19:08:35 +0000";
layers = (
{
anchors = (
{
name = bottom;
position = "{155, 0}";
},
{
name = bottomleft;
position = "{8, 0}";
},
{
name = center;
position = "{25, 296}";
},
{
name = top;
position = "{146, 528}";
},
{
name = topleft;
position = "{39, 528}";
}
);
layerId = "1F954AD7-537E-453D-9D07-161C7E95D0AA";
paths = (
{
closed = 1;
nodes = (
"163 0 LINE",
"146 135 OFFCURVE",
"128 311 OFFCURVE",
"128 382 CURVE SMOOTH",
"128 443 OFFCURVE",
"145 528 OFFCURVE",
"243 557 CURVE",
"190 557 LINE",
"124 527 OFFCURVE",
"96 442 OFFCURVE",
"96 382 CURVE SMOOTH",
"96 311 OFFCURVE",
"114 131 OFFCURVE",
"131 0 CURVE"
);
},
{
closed = 1;
nodes = (
"243 557 LINE",
"248 584 LINE",
"45 584 LINE",
"45 557 LINE"
);
}
);
width = 289;
},
{
anchors = (
{
name = bottom;
position = "{199, 0}";
},
{
name = bottomleft;
position = "{14, 0}";
},
{
name = center;
position = "{4, 306}";
},
{
name = top;
position = "{205, 553}";
},
{
name = topleft;
position = "{29, 553}";
}
);
layerId = "3FB868F8-5CDC-4A46-BA32-95627737ABE0";
paths = (
{
closed = 1;
nodes = (
"303 3 LINE",
"295 48 OFFCURVE",
"259 223 OFFCURVE",
"253 288 CURVE SMOOTH",
"247 356 OFFCURVE",
"254 417 OFFCURVE",
"363 451 CURVE",
"200 455 LINE",
"79 405 OFFCURVE",
"66 329 OFFCURVE",
"66 262 CURVE SMOOTH",
"66 197 OFFCURVE",
"81 92 OFFCURVE",
"103 3 CURVE"
);
},
{
closed = 1;
nodes = (
"363 451 LINE",
"383 609 LINE",
"37 609 LINE",
"37 451 LINE"
);
}
);
width = 398;
},
{
anchors = (
{
name = bottom;
position = "{106, 0}";
},
{
name = bottomleft;
position = "{38, 0}";
},
{
name = center;
position = "{24, 296}";
},
{
name = top;
position = "{122, 528}";
},
{
name = topleft;
position = "{59, 528}";
}
);
layerId = "BD31AAF9-E65B-4A30-ACC0-7018B0C27C60";
paths = (
{
closed = 1;
nodes = (
"125 0 LINE",
"113 135 OFFCURVE",
"95 324 OFFCURVE",
"98 395 CURVE SMOOTH",
"101 466 OFFCURVE",
"122 528 OFFCURVE",
"182 557 CURVE",
"137 557 LINE",
"101 527 OFFCURVE",
"69 475 OFFCURVE",
"66 395 CURVE SMOOTH",
"63 324 OFFCURVE",
"81 131 OFFCURVE",
"93 0 CURVE"
);
},
{
closed = 1;
nodes = (
"182 557 LINE",
"187 584 LINE",
"34 584 LINE",
"34 557 LINE"
);
}
);
width = 216;
},
{
anchors = (
{
name = bottom;
position = "{180, 0}";
},
{
name = bottomleft;
position = "{50, 0}";
},
{
name = center;
position = "{-5, 307}";
},
{
name = top;
position = "{196, 553}";
},
{
name = topleft;
position = "{65, 553}";
}
);
layerId = "AD6F6DAA-2D58-4E1D-98AF-ACAAF76D7B9E";
paths = (
{
closed = 1;
nodes = (
"281 3 LINE",
"277 48 OFFCURVE",
"243 223 OFFCURVE",
"241 288 CURVE SMOOTH",
"239 356 OFFCURVE",
"249 417 OFFCURVE",
"309 451 CURVE",
"186 455 LINE",
"74 405 OFFCURVE",
"56 329 OFFCURVE",
"52 262 CURVE SMOOTH",
"48 197 OFFCURVE",
"65 92 OFFCURVE",
"81 3 CURVE"
);
},
{
closed = 1;
nodes = (
"309 451 LINE",
"329 609 LINE",
"33 609 LINE",
"33 451 LINE"
);
}
);
width = 357;
}
);
unicode = 05D6;
},
{
glyphname = "het-hb";
lastChange = "2019-06-15 12:43:08 +0000";
layers = (
{
anchors = (
{
name = bottom;
position = "{332, 0}";
},
{
name = bottomleft;
position = "{98, 0}";
},
{
name = center;
position = "{332, 296}";
},
{
name = top;
position = "{332, 528}";
},
{
name = topleft;
position = "{98, 528}";
}
);
layerId = "1F954AD7-537E-453D-9D07-161C7E95D0AA";
paths = (
{
closed = 1;
nodes = (
"108 584 LINE",
"108 557 LINE",
"140 557 LINE",
"125 543 OFFCURVE",
"108 488 OFFCURVE",
"108 421 CURVE",
"108 0 LINE",
"140 0 LINE",
"140 421 LINE",
"140 503 OFFCURVE",
"158 543 OFFCURVE",
"166 557 CURVE",
"384 557 LINE SMOOTH",
"477 557 OFFCURVE",
"520 511 OFFCURVE",
"520 416 CURVE SMOOTH",
"520 0 LINE",
"552 0 LINE",
"552 419 LINE SMOOTH",
"552 527 OFFCURVE",
"495 584 OFFCURVE",
"389 584 CURVE SMOOTH"
);
},
{
closed = 1;
nodes = (
"218 557 LINE",
"218 584 LINE",
"60 584 LINE",
"55 557 LINE"
);
}
);
width = 637;
},
{
anchors = (
{
name = bottom;
position = "{349, 0}";
},
{
name = bottomleft;
position = "{45, 0}";
},
{
name = center;
position = "{349, 306}";
},
{
name = top;
position = "{344, 553}";
},
{
name = topleft;
position = "{45, 553}";
}
);
layerId = "3FB868F8-5CDC-4A46-BA32-95627737ABE0";
paths = (
{
closed = 1;
nodes = (
"115 609 LINE",
"115 457 LINE",
"115 447 LINE",
"79 403 OFFCURVE",
"75 364 OFFCURVE",
"75 316 CURVE",
"75 0 LINE",
"267 0 LINE",
"267 377 LINE",
"267 429 OFFCURVE",
"270 441 OFFCURVE",
"277 451 CURVE",
"388 451 LINE SMOOTH",
"431 451 OFFCURVE",
"457 427 OFFCURVE",
"457 379 CURVE SMOOTH",
"457 0 LINE",
"649 0 LINE",
"649 382 LINE SMOOTH",
"649 533 OFFCURVE",
"564 609 OFFCURVE",
"397 609 CURVE SMOOTH"
);
},
{
closed = 1;
nodes = (
"367 451 LINE",
"367 609 LINE",
"45 609 LINE",
"25 451 LINE"
);
}
);
width = 704;
},
{
anchors = (
{
name = bottom;
position = "{222, 0}";
},
{
name = bottomleft;
position = "{67, 0}";
},
{
name = center;
position = "{222, 296}";
},
{
name = top;
position = "{222, 528}";
},
{
name = topleft;
position = "{67, 528}";
}
);
layerId = "BD31AAF9-E65B-4A30-ACC0-7018B0C27C60";
paths = (
{
closed = 1;
nodes = (
"78 584 LINE",
"78 557 LINE",
"110 557 LINE",
"95 543 OFFCURVE",
"78 488 OFFCURVE",
"78 421 CURVE",
"78 0 LINE",
"110 0 LINE",
"110 421 LINE",
"110 503 OFFCURVE",
"128 543 OFFCURVE",
"136 557 CURVE",
"233 557 LINE SMOOTH",
"326 557 OFFCURVE",
"349 511 OFFCURVE",
"349 416 CURVE SMOOTH",
"349 0 LINE",
"381 0 LINE",
"381 419 LINE SMOOTH",
"381 527 OFFCURVE",
"344 584 OFFCURVE",
"238 584 CURVE SMOOTH"
);
},
{
closed = 1;
nodes = (
"178 557 LINE",
"178 584 LINE",
"49 584 LINE",
"44 557 LINE"
);
}
);
width = 445;
},
{
anchors = (
{
name = bottom;
position = "{299, 0}";
},
{
name = bottomleft;
position = "{73, 0}";
},
{
name = center;
position = "{299, 306}";
},
{
name = top;
position = "{299, 553}";
},
{
name = topleft;
position = "{73, 553}";
}
);
layerId = "AD6F6DAA-2D58-4E1D-98AF-ACAAF76D7B9E";
paths = (
{
closed = 1;
nodes = (
"93 609 LINE",
"93 457 LINE",
"93 447 LINE",
"57 403 OFFCURVE",
"53 364 OFFCURVE",
"53 316 CURVE",
"53 0 LINE",
"245 0 LINE",
"245 377 LINE",
"245 429 OFFCURVE",
"248 441 OFFCURVE",
"255 451 CURVE",
"289 451 LINE SMOOTH",
"332 451 OFFCURVE",
"358 427 OFFCURVE",
"358 379 CURVE SMOOTH",
"358 0 LINE",
"550 0 LINE",
"550 382 LINE SMOOTH",
"550 533 OFFCURVE",
"465 609 OFFCURVE",
"298 609 CURVE SMOOTH"
);
},
{
closed = 1;
nodes = (
"258 451 LINE",
"258 609 LINE",
"53 609 LINE",
"33 451 LINE"
);
}
);
width = 593;
}
);
unicode = 05D7;
},
{
glyphname = "tet-hb";
lastChange = "2019-06-15 12:43:08 +0000";
layers = (
{
anchors = (
{
name = bottom;
position = "{299, 0}";
},
{
name = bottomleft;
position = "{3, 0}";
},
{
name = center;
position = "{299, 316}";
},
{
name = top;
position = "{236, 528}";
},
{
name = topleft;
position = "{83, 528}";
}
);
layerId = "1F954AD7-537E-453D-9D07-161C7E95D0AA";
paths = (
{
closed = 1;
nodes = (
"456 -10 OFFCURVE",
"547 103 OFFCURVE",
"547 320 CURVE SMOOTH",
"547 493 OFFCURVE",
"499 591 OFFCURVE",
"369 587 CURVE SMOOTH",
"340 586 OFFCURVE",
"310 582 OFFCURVE",
"281 577 CURVE",
"281 550 LINE",
"309 555 OFFCURVE",
"337 559 OFFCURVE",
"365 560 CURVE SMOOTH",
"476 564 OFFCURVE",
"515 476 OFFCURVE",
"515 320 CURVE SMOOTH",
"515 120 OFFCURVE",
"435 15 OFFCURVE",
"300 15 CURVE SMOOTH",
"176 15 OFFCURVE",
"102 120 OFFCURVE",
"102 320 CURVE SMOOTH",
"102 584 LINE",
"70 584 LINE",
"70 320 LINE SMOOTH",
"70 103 OFFCURVE",
"155 -10 OFFCURVE",
"300 -10 CURVE SMOOTH"
);
}
);
width = 607;
},
{
anchors = (
{
name = bottom;
position = "{342, -9}";
},
{
name = bottomleft;
position = "{12, 0}";
},
{
name = center;
position = "{345, 306}";
},
{
name = top;
position = "{325, 553}";
},
{
name = topleft;
position = "{2, 553}";
}
);
layerId = "3FB868F8-5CDC-4A46-BA32-95627737ABE0";
paths = (
{
closed = 1;
nodes = (
"535 -9 OFFCURVE",
"643 107 OFFCURVE",
"643 330 CURVE SMOOTH",
"643 513 OFFCURVE",
"573 613 OFFCURVE",
"426 617 CURVE SMOOTH",
"384 618 OFFCURVE",
"353 611 OFFCURVE",
"312 603 CURVE",
"312 451 LINE",
"341 459 OFFCURVE",
"361 466 OFFCURVE",
"391 464 CURVE SMOOTH",
"436 461 OFFCURVE",
"452 413 OFFCURVE",
"452 330 CURVE SMOOTH",
"452 208 OFFCURVE",
"408 144 OFFCURVE",
"338 144 CURVE SMOOTH",
"269 144 OFFCURVE",
"226 208 OFFCURVE",
"226 330 CURVE SMOOTH",
"226 609 LINE",
"35 609 LINE",
"35 330 LINE SMOOTH",
"35 107 OFFCURVE",
"145 -9 OFFCURVE",
"342 -9 CURVE SMOOTH"
);
}
);
width = 678;
},
{
anchors = (
{
name = bottom;
position = "{210, 0}";
},
{
name = bottomleft;
position = "{51, 0}";
},
{
name = center;
position = "{210, 296}";
},
{
name = top;
position = "{210, 528}";
},
{
name = topleft;
position = "{41, 528}";
}
);
layerId = "BD31AAF9-E65B-4A30-ACC0-7018B0C27C60";
paths = (
{
closed = 1;
nodes = (
"320 -10 OFFCURVE",
"376 103 OFFCURVE",
"376 320 CURVE SMOOTH",
"376 493 OFFCURVE",
"348 587 OFFCURVE",
"253 587 CURVE SMOOTH",
"235 587 OFFCURVE",
"213 583 OFFCURVE",
"195 577 CURVE",
"195 550 LINE",
"212 556 OFFCURVE",
"232 560 OFFCURVE",
"249 560 CURVE SMOOTH",
"325 560 OFFCURVE",
"344 476 OFFCURVE",
"344 320 CURVE SMOOTH",
"344 120 OFFCURVE",
"299 15 OFFCURVE",
"214 15 CURVE SMOOTH",
"120 15 OFFCURVE",
"81 120 OFFCURVE",
"81 320 CURVE SMOOTH",
"81 584 LINE",
"49 584 LINE",
"49 320 LINE SMOOTH",
"49 103 OFFCURVE",
"99 -10 OFFCURVE",
"214 -10 CURVE SMOOTH"
);
}
);
width = 425;
},
{
anchors = (
{
name = bottom;
position = "{289, 0}";
},
{
name = bottomleft;
position = "{54, 0}";
},
{
name = center;
position = "{285, 306}";
},
{
name = top;
position = "{289, 553}";
},
{
name = topleft;
position = "{44, 553}";
}
);
layerId = "AD6F6DAA-2D58-4E1D-98AF-ACAAF76D7B9E";
paths = (
{
closed = 1;
nodes = (
"455 -9 OFFCURVE",
"541 107 OFFCURVE",
"541 330 CURVE SMOOTH",
"541 519 OFFCURVE",
"473 617 OFFCURVE",
"344 617 CURVE SMOOTH",
"313 617 OFFCURVE",
"287 612 OFFCURVE",
"270 603 CURVE",
"270 451 LINE",
"276 460 OFFCURVE",
"289 464 OFFCURVE",
"309 464 CURVE SMOOTH",
"336 464 OFFCURVE",
"350 418 OFFCURVE",
"350 330 CURVE SMOOTH",
"350 208 OFFCURVE",
"328 144 OFFCURVE",
"286 144 CURVE SMOOTH",
"245 144 OFFCURVE",
"224 208 OFFCURVE",
"224 330 CURVE SMOOTH",
"224 609 LINE",
"33 609 LINE",
"33 330 LINE SMOOTH",
"33 107 OFFCURVE",
"121 -9 OFFCURVE",
"290 -9 CURVE SMOOTH"
);
}
);
width = 574;
}
);
unicode = 05D8;
},
{
glyphname = "yod-hb";
lastChange = "2019-06-15 12:43:08 +0000";
layers = (
{
anchors = (
{
name = bottom;
position = "{146, 0}";
},
{
name = bottomleft;
position = "{71, 0}";
},
{
name = center;
position = "{59, 427}";
},
{
name = top;
position = "{156, 528}";
},
{
name = topleft;
position = "{143, 528}";
}
);
layerId = "1F954AD7-537E-453D-9D07-161C7E95D0AA";
paths = (
{
closed = 1;
nodes = (
"172 270 LINE",
"172 584 LINE",
"140 584 LINE",
"140 270 LINE"
);
},
{
closed = 1;
nodes = (
"160 557 LINE",
"160 584 LINE",
"45 584 LINE",
"40 557 LINE"
);
}
);
width = 257;
},
{
anchors = (
{
name = bottom;
position = "{206, 0}";
},
{
name = bottomleft;
position = "{10, 0}";
},
{
name = center;
position = "{35, 350}";
},
{
name = top;
position = "{206, 553}";
},
{
name = topleft;
position = "{110, 553}";
}
);
layerId = "3FB868F8-5CDC-4A46-BA32-95627737ABE0";
paths = (
{
closed = 1;
nodes = (
"302 248 LINE",
"302 609 LINE",
"110 609 LINE",
"110 248 LINE"
);
},
{
closed = 1;
nodes = (
"217 451 LINE",
"217 609 LINE",
"55 609 LINE",
"35 451 LINE"
);
}
);
width = 357;
},
{
anchors = (
{
name = bottom;
position = "{125, 0}";
},
{
name = bottomleft;
position = "{40, 0}";
},
{
name = center;
position = "{29, 427}";
},
{
name = top;
position = "{125, 528}";
},
{
name = topleft;
position = "{112, 528}";
}
);
layerId = "BD31AAF9-E65B-4A30-ACC0-7018B0C27C60";
paths = (
{
closed = 1;
nodes = (
"141 230 LINE",
"141 584 LINE",
"109 584 LINE",
"109 230 LINE"
);
},
{
closed = 1;
nodes = (
"129 557 LINE",
"129 584 LINE",
"44 584 LINE",
"39 557 LINE"
);
}
);
width = 220;
},
{
anchors = (
{
name = bottom;
position = "{205, 0}";
},
{
name = bottomleft;
position = "{42, 0}";
},
{
name = center;
position = "{40, 374}";
},
{
name = top;
position = "{205, 553}";
},
{
name = topleft;
position = "{119, 553}";
}
);
layerId = "AD6F6DAA-2D58-4E1D-98AF-ACAAF76D7B9E";
paths = (
{
closed = 1;
nodes = (
"290 238 LINE",
"290 609 LINE",
"98 609 LINE",
"98 238 LINE"
);
},
{
closed = 1;
nodes = (
"205 451 LINE",
"205 609 LINE",
"53 609 LINE",
"33 451 LINE"
);
}
);
width = 338;
}
);
unicode = 05D9;
},
{
glyphname = "finalkaf-hb";
lastChange = "2019-06-15 12:43:08 +0000";
layers = (
{
anchors = (
{
name = bottom;
position = "{212, 199}";
},
{
name = bottomleft;
position = "{10, 0}";
},
{
name = center;
position = "{212, 296}";
},
{
name = top;
position = "{167, 528}";
},
{
name = topleft;
position = "{10, 528}";
}
);
layerId = "1F954AD7-537E-453D-9D07-161C7E95D0AA";
paths = (
{
closed = 1;
nodes = (
"442 -195 LINE",
"442 382 LINE SMOOTH",
"442 509 OFFCURVE",
"382 584 OFFCURVE",
"276 584 CURVE SMOOTH",
"52 584 LINE",
"47 557 LINE",
"276 557 LINE SMOOTH",
"360 557 OFFCURVE",
"410 492 OFFCURVE",
"410 382 CURVE SMOOTH",
"410 -198 LINE"
);
}
);
width = 519;
},
{
anchors = (
{
name = bottom;
position = "{173, 271}";
},
{
name = bottomleft;
position = "{5, 0}";
},
{
name = center;
position = "{173, 306}";
},
{
name = top;
position = "{269, 553}";
},
{
name = topleft;
position = "{-5, 553}";
}
);
layerId = "3FB868F8-5CDC-4A46-BA32-95627737ABE0";
paths = (
{
closed = 1;
nodes = (
"542 -170 LINE",
"542 367 LINE SMOOTH",
"542 526 OFFCURVE",
"451 609 OFFCURVE",
"278 609 CURVE SMOOTH",
"55 609 LINE",
"35 451 LINE",
"270 451 LINE SMOOTH",
"323 451 OFFCURVE",
"350 422 OFFCURVE",
"350 367 CURVE SMOOTH",
"350 -180 LINE"
);
}
);
width = 587;
},
{
anchors = (
{
name = bottom;
position = "{126, 199}";
},
{
name = bottomleft;
position = "{34, 0}";
},
{
name = center;
position = "{126, 296}";
},
{
name = top;
position = "{156, 528}";
},
{
name = topleft;
position = "{34, 528}";
}
);
layerId = "BD31AAF9-E65B-4A30-ACC0-7018B0C27C60";
paths = (
{
closed = 1;
nodes = (
"308 -195 LINE",
"308 382 LINE SMOOTH",
"308 509 OFFCURVE",
"266 584 OFFCURVE",
"160 584 CURVE SMOOTH",
"36 584 LINE",
"31 557 LINE",
"160 557 LINE SMOOTH",
"244 557 OFFCURVE",
"274 492 OFFCURVE",
"274 382 CURVE SMOOTH",
"274 -198 LINE"
);
}
);
width = 373;
},
{
anchors = (
{
name = bottom;
position = "{123, 241}";
},
{
name = bottomleft;
position = "{29, 0}";
},
{
name = center;
position = "{126, 306}";
},
{
name = top;
position = "{211, 553}";
},
{
name = topleft;
position = "{19, 553}";
}
);
layerId = "AD6F6DAA-2D58-4E1D-98AF-ACAAF76D7B9E";
paths = (
{
closed = 1;
nodes = (
"420 -170 LINE",
"420 367 LINE SMOOTH",
"420 526 OFFCURVE",
"349 609 OFFCURVE",
"176 609 CURVE SMOOTH",
"43 609 LINE",
"23 451 LINE",
"168 451 LINE SMOOTH",
"221 451 OFFCURVE",
"228 422 OFFCURVE",
"228 367 CURVE SMOOTH",
"228 -180 LINE"
);
}
);
width = 463;
}
);
unicode = 05DA;
},
{
glyphname = "kaf-hb";
lastChange = "2019-06-15 12:43:08 +0000";
layers = (
{
anchors = (
{
name = bottom;
position = "{186, 0}";
},
{
name = bottomleft;
position = "{20, 0}";
},
{
name = center;
position = "{194, 296}";
},
{
name = top;
position = "{170, 528}";
},
{
name = topleft;
position = "{10, 528}";
}
);
layerId = "1F954AD7-537E-453D-9D07-161C7E95D0AA";
paths = (
{
closed = 1;
nodes = (
"206 0 LINE SMOOTH",
"362 0 OFFCURVE",
"444 100 OFFCURVE",
"444 292 CURVE SMOOTH",
"444 484 OFFCURVE",
"362 584 OFFCURVE",
"206 584 CURVE SMOOTH",
"62 584 LINE",
"57 557 LINE",
"206 557 LINE SMOOTH",
"340 557 OFFCURVE",
"410 466 OFFCURVE",
"410 292 CURVE SMOOTH",
"410 118 OFFCURVE",
"340 27 OFFCURVE",
"206 27 CURVE SMOOTH",
"57 27 LINE",
"57 0 LINE"
);
}
);
width = 501;
},
{
anchors = (
{
name = bottom;
position = "{174, 0}";
},
{
name = bottomleft;
position = "{-25, 0}";
},
{
name = center;
position = "{165, 306}";
},
{
name = top;
position = "{175, 553}";
},
{
name = topleft;
position = "{-25, 553}";
}
);
layerId = "3FB868F8-5CDC-4A46-BA32-95627737ABE0";
paths = (
{
closed = 1;
nodes = (
"213 0 LINE SMOOTH",
"407 0 OFFCURVE",
"512 110 OFFCURVE",
"512 297 CURVE SMOOTH",
"512 493 OFFCURVE",
"407 609 OFFCURVE",
"213 609 CURVE SMOOTH",
"45 609 LINE",
"25 451 LINE",
"213 451 LINE SMOOTH",
"285 451 OFFCURVE",
"317 394 OFFCURVE",
"317 297 CURVE SMOOTH",
"317 210 OFFCURVE",
"285 158 OFFCURVE",
"213 158 CURVE SMOOTH",
"25 158 LINE",
"25 0 LINE"
);
}
);
width = 537;
},
{
anchors = (
{
name = bottom;
position = "{152, 0}";
},
{
name = bottomleft;
position = "{41, 0}";
},
{
name = center;
position = "{142, 296}";
},
{
name = top;
position = "{134, 528}";
},
{
name = topleft;
position = "{31, 528}";
}
);
layerId = "BD31AAF9-E65B-4A30-ACC0-7018B0C27C60";
paths = (
{
closed = 1;
nodes = (
"138 0 LINE SMOOTH",
"258 0 OFFCURVE",
"306 83 OFFCURVE",
"306 292 CURVE SMOOTH",
"306 501 OFFCURVE",
"258 584 OFFCURVE",
"138 584 CURVE SMOOTH",
"44 584 LINE",
"39 557 LINE",
"138 557 LINE SMOOTH",
"234 557 OFFCURVE",
"272 481 OFFCURVE",
"272 292 CURVE SMOOTH",
"272 103 OFFCURVE",
"234 27 OFFCURVE",
"138 27 CURVE SMOOTH",
"39 27 LINE",
"39 0 LINE"
);
}
);
width = 345;
},
{
anchors = (
{
name = bottom;
position = "{185, 0}";
},
{
name = bottomleft;
position = "{27, 0}";
},
{
name = center;
position = "{122, 306}";
},
{
name = top;
position = "{196, 553}";
},
{
name = topleft;
position = "{27, 553}";
}
);
layerId = "AD6F6DAA-2D58-4E1D-98AF-ACAAF76D7B9E";
paths = (
{
closed = 1;
nodes = (
"146 0 LINE SMOOTH",
"330 0 OFFCURVE",
"415 93 OFFCURVE",
"415 297 CURVE SMOOTH",
"415 511 OFFCURVE",
"330 609 OFFCURVE",
"146 609 CURVE SMOOTH",
"48 609 LINE",
"28 451 LINE",
"146 451 LINE SMOOTH",
"197 451 OFFCURVE",
"220 403 OFFCURVE",
"220 297 CURVE SMOOTH",
"220 202 OFFCURVE",
"197 158 OFFCURVE",
"146 158 CURVE SMOOTH",
"28 158 LINE",
"28 0 LINE"
);
}
);
width = 438;
}
);
unicode = 05DB;
},
{
glyphname = "lamed-hb";
lastChange = "2019-06-15 12:43:08 +0000";
layers = (
{
anchors = (
{
name = bottom;
position = "{233, 0}";
},
{
name = bottomleft;
position = "{227, 0}";
},
{
name = center;
position = "{142, 334}";
},
{
name = top;
position = "{239, 528}";
},
{
name = topleft;
position = "{-21, 528}";
}
);
layerId = "1F954AD7-537E-453D-9D07-161C7E95D0AA";
paths = (
{
closed = 1;
nodes = (
"74 760 LINE",
"42 755 LINE",
"42 557 LINE",
"407 557 LINE",
"227 0 LINE",
"259 0 LINE",
"439 557 LINE",
"447 584 LINE",
"74 584 LINE"
);
}
);
width = 489;
},
{
anchors = (
{
name = bottom;
position = "{263, 0}";
},
{
name = bottomleft;
position = "{219, 0}";
},
{
name = center;
position = "{125, 306}";
},
{
name = top;
position = "{357, 553}";
},
{
name = topleft;
position = "{-93, 553}";
}
);
layerId = "3FB868F8-5CDC-4A46-BA32-95627737ABE0";
paths = (
{
closed = 1;
nodes = (
"212 760 LINE",
"20 740 LINE",
"20 451 LINE",
"330 451 LINE",
"162 0 LINE",
"362 0 LINE",
"541 499 LINE",
"553 609 LINE",
"212 609 LINE"
);
}
);
width = 578;
},
{
anchors = (
{
name = bottom;
position = "{144, 0}";
},
{
name = bottomleft;
position = "{142, 0}";
},
{
name = center;
position = "{101, 316}";
},
{
name = top;
position = "{162, 528}";
},
{
name = topleft;
position = "{-10, 528}";
}
);
layerId = "BD31AAF9-E65B-4A30-ACC0-7018B0C27C60";
paths = (
{
closed = 1;
nodes = (
"61 760 LINE",
"29 755 LINE",
"29 557 LINE",
"264 557 LINE",
"131 0 LINE",
"163 0 LINE",
"296 557 LINE",
"303 584 LINE",
"61 584 LINE"
);
}
);
width = 340;
},
{
anchors = (
{
name = bottom;
position = "{231, 0}";
},
{
name = bottomleft;
position = "{58, 0}";
},
{
name = center;
position = "{121, 306}";
},
{
name = top;
position = "{328, 553}";
},
{
name = topleft;
position = "{-17, 553}";
}
);
layerId = "AD6F6DAA-2D58-4E1D-98AF-ACAAF76D7B9E";
paths = (
{
closed = 1;
nodes = (
"220 760 LINE",
"28 740 LINE",
"28 451 LINE",
"258 451 LINE",
"140 0 LINE",
"331 0 LINE",
"450 499 LINE",
"474 609 LINE",
"220 609 LINE"
);
}
);
width = 492;
}
);
unicode = 05DC;
},
{
glyphname = "finalmem-hb";
lastChange = "2019-06-15 12:43:08 +0000";
layers = (
{
anchors = (
{
name = bottom;
position = "{344, 0}";
},
{
name = bottomleft;
position = "{110, 0}";
},
{
name = center;
position = "{344, 292}";
},
{
name = top;
position = "{344, 528}";
},
{
name = topleft;
position = "{110, 528}";
}
);
layerId = "1F954AD7-537E-453D-9D07-161C7E95D0AA";
paths = (
{
closed = 1;
nodes = (
"62 584 LINE",
"57 557 LINE",
"140 557 LINE",
"131 550 OFFCURVE",
"127 528 OFFCURVE",
"127 509 CURVE SMOOTH",
"127 0 LINE",
"581 0 LINE",
"581 419 LINE SMOOTH",
"581 527 OFFCURVE",
"524 584 OFFCURVE",
"418 584 CURVE SMOOTH"
);
},
{
closed = 1;
nodes = (
"159 27 LINE",
"159 509 LINE SMOOTH",
"159 528 OFFCURVE",
"161 548 OFFCURVE",
"164 557 CURVE",
"413 557 LINE SMOOTH",
"506 557 OFFCURVE",
"549 511 OFFCURVE",
"549 416 CURVE SMOOTH",
"549 27 LINE"
);
}
);
width = 666;
},
{
anchors = (
{
name = bottom;
position = "{357, 0}";
},
{
name = bottomleft;
position = "{55, 0}";
},
{
name = center;
position = "{357, 304}";
},
{
name = top;
position = "{357, 553}";
},
{
name = topleft;
position = "{55, 553}";
}
);
layerId = "3FB868F8-5CDC-4A46-BA32-95627737ABE0";
paths = (
{
closed = 1;
nodes = (
"55 609 LINE",
"35 451 LINE",
"145 451 LINE",
"96 427 OFFCURVE",
"85 366 OFFCURVE",
"85 336 CURVE SMOOTH",
"85 0 LINE",
"659 0 LINE",
"659 382 LINE SMOOTH",
"659 533 OFFCURVE",
"574 609 OFFCURVE",
"407 609 CURVE SMOOTH"
);
},
{
closed = 1;
nodes = (
"277 158 LINE",
"277 384 LINE SMOOTH",
"277 406 OFFCURVE",
"277 429 OFFCURVE",
"287 451 CURVE",
"398 451 LINE SMOOTH",
"441 451 OFFCURVE",
"467 427 OFFCURVE",
"467 379 CURVE SMOOTH",
"467 158 LINE"
);
}
);
width = 714;
},
{
anchors = (
{
name = bottom;
position = "{217, 0}";
},
{
name = bottomleft;
position = "{62, 0}";
},
{
name = center;
position = "{217, 292}";
},
{
name = top;
position = "{217, 528}";
},
{
name = topleft;
position = "{62, 528}";
}
);
layerId = "BD31AAF9-E65B-4A30-ACC0-7018B0C27C60";
paths = (
{
closed = 1;
nodes = (
"39 584 LINE",
"34 557 LINE",
"87 557 LINE",
"78 550 OFFCURVE",
"74 528 OFFCURVE",
"74 509 CURVE SMOOTH",
"74 0 LINE",
"378 0 LINE",
"378 419 LINE SMOOTH",
"378 527 OFFCURVE",
"321 584 OFFCURVE",
"215 584 CURVE SMOOTH"
);
},
{
closed = 1;
nodes = (
"106 27 LINE",
"106 509 LINE SMOOTH",
"106 528 OFFCURVE",
"108 548 OFFCURVE",
"111 557 CURVE",
"210 557 LINE SMOOTH",
"303 557 OFFCURVE",
"346 511 OFFCURVE",
"346 416 CURVE SMOOTH",
"346 27 LINE"
);
}
);
width = 442;
},
{
anchors = (
{
name = bottom;
position = "{297, 0}";
},
{
name = bottomleft;
position = "{68, 0}";
},
{
name = center;
position = "{297, 304}";
},
{
name = top;
position = "{297, 553}";
},
{
name = topleft;
position = "{67, 553}";
}
);
layerId = "AD6F6DAA-2D58-4E1D-98AF-ACAAF76D7B9E";
paths = (
{
closed = 1;
nodes = (
"43 609 LINE",
"23 451 LINE",
"113 451 LINE",
"64 427 OFFCURVE",
"53 366 OFFCURVE",
"53 336 CURVE SMOOTH",
"53 0 LINE",
"547 0 LINE",
"547 382 LINE SMOOTH",
"547 533 OFFCURVE",
"482 609 OFFCURVE",
"315 609 CURVE SMOOTH"
);
},
{
closed = 1;
nodes = (
"245 158 LINE",
"245 384 LINE SMOOTH",
"245 406 OFFCURVE",
"245 429 OFFCURVE",
"255 451 CURVE",
"306 451 LINE SMOOTH",
"349 451 OFFCURVE",
"355 427 OFFCURVE",
"355 379 CURVE SMOOTH",
"355 158 LINE"
);
}
);
width = 590;
}
);
unicode = 05DD;
},
{
glyphname = "mem-hb";
lastChange = "2019-06-15 12:43:08 +0000";
layers = (
{
anchors = (
{
name = bottom;
position = "{330, 0}";
},
{
name = bottomleft;
position = "{66, 0}";
},
{
name = center;
position = "{330, 296}";
},
{
name = top;
position = "{345, 528}";
},
{
name = topleft;
position = "{89, 528}";
}
);
layerId = "1F954AD7-537E-453D-9D07-161C7E95D0AA";
paths = (
{
closed = 1;
nodes = (
"102 0 LINE",
"173 376 LINE SMOOTH",
"187 449 OFFCURVE",
"227 566 OFFCURVE",
"358 566 CURVE SMOOTH",
"459 566 OFFCURVE",
"536 496 OFFCURVE",
"536 318 CURVE SMOOTH",
"536 303 LINE SMOOTH",
"536 135 OFFCURVE",
"466 27 OFFCURVE",
"335 27 CURVE SMOOTH",
"235 27 LINE",
"231 0 LINE",
"336 0 LINE SMOOTH",
"488 0 OFFCURVE",
"568 117 OFFCURVE",
"568 303 CURVE SMOOTH",
"568 318 LINE SMOOTH",
"568 513 OFFCURVE",
"481 593 OFFCURVE",
"358 593 CURVE SMOOTH",
"218 593 OFFCURVE",
"172 480 OFFCURVE",
"154 405 CURVE",
"153 405 LINE",
"92 584 LINE",
"60 584 LINE",
"141 356 LINE",
"70 0 LINE"
);
}
);
width = 618;
},
{
anchors = (
{
name = bottom;
position = "{396, 0}";
},
{
name = bottomleft;
position = "{157, 0}";
},
{
name = center;
position = "{396, 306}";
},
{
name = top;
position = "{403, 553}";
},
{
name = topleft;
position = "{61, 553}";
}
);
layerId = "3FB868F8-5CDC-4A46-BA32-95627737ABE0";
paths = (
{
closed = 1;
nodes = (
"243 0 LINE",
"295 312 LINE SMOOTH",
"312 416 OFFCURVE",
"338 458 OFFCURVE",
"420 458 CURVE SMOOTH",
"475 458 OFFCURVE",
"518 406 OFFCURVE",
"518 320 CURVE SMOOTH",
"518 307 LINE SMOOTH",
"518 221 OFFCURVE",
"477 158 OFFCURVE",
"409 158 CURVE SMOOTH",
"348 158 LINE",
"326 0 LINE",
"419 0 LINE SMOOTH",
"602 0 OFFCURVE",
"710 126 OFFCURVE",
"710 307 CURVE SMOOTH",
"710 320 LINE SMOOTH",
"710 503 OFFCURVE",
"609 619 OFFCURVE",
"462 619 CURVE SMOOTH",
"356 619 OFFCURVE",
"295 590 OFFCURVE",
"253 486 CURVE",
"247 486 LINE",
"217 609 LINE",
"25 609 LINE",
"110 353 LINE",
"44 0 LINE"
);
}
);
width = 730;
},
{
anchors = (
{
name = bottom;
position = "{224, 0}";
},
{
name = bottomleft;
position = "{59, 0}";
},
{
name = center;
position = "{222, 296}";
},
{
name = top;
position = "{257, 528}";
},
{
name = topleft;
position = "{77, 528}";
}
);
layerId = "BD31AAF9-E65B-4A30-ACC0-7018B0C27C60";
paths = (
{
closed = 1;
nodes = (
"81 0 LINE",
"122 407 LINE SMOOTH",
"133 519 OFFCURVE",
"184 566 OFFCURVE",
"234 566 CURVE SMOOTH",
"308 566 OFFCURVE",
"345 481 OFFCURVE",
"345 318 CURVE SMOOTH",
"345 303 LINE SMOOTH",
"345 122 OFFCURVE",
"299 27 OFFCURVE",
"213 27 CURVE SMOOTH",
"164 27 LINE",
"160 0 LINE",
"214 0 LINE SMOOTH",
"320 0 OFFCURVE",
"377 104 OFFCURVE",
"377 303 CURVE SMOOTH",
"377 318 LINE SMOOTH",
"377 499 OFFCURVE",
"329 593 OFFCURVE",
"234 593 CURVE SMOOTH",
"172 593 OFFCURVE",
"128 544 OFFCURVE",
"112 471 CURVE",
"111 471 LINE",
"81 584 LINE",
"49 584 LINE",
"95 421 LINE",
"49 0 LINE"
);
}
);
width = 416;
},
{
anchors = (
{
name = bottom;
position = "{329, 0}";
},
{
name = bottomleft;
position = "{183, 0}";
},
{
name = center;
position = "{340, 306}";
},
{
name = top;
position = "{353, 553}";
},
{
name = topleft;
position = "{87, 553}";
}
);
layerId = "AD6F6DAA-2D58-4E1D-98AF-ACAAF76D7B9E";
paths = (
{
closed = 1;
nodes = (
"241 0 LINE",
"272 312 LINE SMOOTH",
"282 408 OFFCURVE",
"310 458 OFFCURVE",
"343 458 CURVE SMOOTH",
"388 458 OFFCURVE",
"411 411 OFFCURVE",
"411 320 CURVE SMOOTH",
"411 307 LINE SMOOTH",
"411 209 OFFCURVE",
"386 158 OFFCURVE",
"334 158 CURVE SMOOTH",
"309 158 LINE",
"294 0 LINE",
"344 0 LINE SMOOTH",
"516 0 OFFCURVE",
"603 105 OFFCURVE",
"603 307 CURVE SMOOTH",
"603 320 LINE SMOOTH",
"603 516 OFFCURVE",
"532 619 OFFCURVE",
"395 619 CURVE SMOOTH",
"313 619 OFFCURVE",
"258 577 OFFCURVE",
"236 496 CURVE",
"230 496 LINE",
"220 609 LINE",
"28 609 LINE",
"93 353 LINE",
"49 0 LINE"
);
}
);
width = 631;
}
);
unicode = 05DE;
},
{
glyphname = "finalnun-hb";
lastChange = "2019-06-15 12:43:08 +0000";
layers = (
{
anchors = (
{
name = bottomleft;
position = "{68, 0}";
},
{
name = center;
position = "{120, 296}";
},
{
name = top;
position = "{141, 528}";
},
{
name = topleft;
position = "{68, 528}";
}
);
layerId = "1F954AD7-537E-453D-9D07-161C7E95D0AA";
paths = (
{
closed = 1;
nodes = (
"182 -195 LINE",
"182 584 LINE",
"150 584 LINE",
"150 -198 LINE"
);
},
{
closed = 1;
nodes = (
"170 557 LINE",
"170 584 LINE",
"55 584 LINE",
"50 557 LINE"
);
}
);
width = 303;
},
{
anchors = (
{
name = bottomleft;
position = "{35, 0}";
},
{
name = center;
position = "{55, 306}";
},
{
name = top;
position = "{201, 553}";
},
{
name = topleft;
position = "{25, 553}";
}
);
layerId = "3FB868F8-5CDC-4A46-BA32-95627737ABE0";
paths = (
{
closed = 1;
nodes = (
"302 -170 LINE",
"302 609 LINE",
"110 609 LINE",
"110 -180 LINE"
);
},
{
closed = 1;
nodes = (
"237 451 LINE",
"237 609 LINE",
"55 609 LINE",
"35 451 LINE"
);
}
);
width = 372;
},
{
anchors = (
{
name = bottomleft;
position = "{49, 0}";
},
{
name = center;
position = "{68, 296}";
},
{
name = top;
position = "{117, 528}";
},
{
name = topleft;
position = "{49, 528}";
}
);
layerId = "BD31AAF9-E65B-4A30-ACC0-7018B0C27C60";
paths = (
{
closed = 1;
nodes = (
"145 -195 LINE",
"145 584 LINE",
"113 584 LINE",
"113 -198 LINE"
);
},
{
closed = 1;
nodes = (
"133 557 LINE",
"133 584 LINE",
"48 584 LINE",
"43 557 LINE"
);
}
);
width = 219;
},
{
anchors = (
{
name = bottomleft;
position = "{37, 0}";
},
{
name = center;
position = "{46, 306}";
},
{
name = top;
position = "{155, 553}";
},
{
name = topleft;
position = "{27, 553}";
}
);
layerId = "AD6F6DAA-2D58-4E1D-98AF-ACAAF76D7B9E";
paths = (
{
closed = 1;
nodes = (
"280 -170 LINE",
"280 609 LINE",
"88 609 LINE",
"88 -180 LINE"
);
},
{
closed = 1;
nodes = (
"215 451 LINE",
"215 609 LINE",
"43 609 LINE",
"23 451 LINE"
);
}
);
width = 323;
}
);
unicode = 05DF;
},
{
glyphname = "nun-hb";
lastChange = "2019-06-25 19:05:54 +0000";
layers = (
{
anchors = (
{
name = bottom;
position = "{162, 0}";
},
{
name = bottomleft;
position = "{21, 0}";
},
{
name = center;
position = "{120, 296}";
},
{
name = top;
position = "{151, 528}";
},
{
name = topleft;
position = "{72, 528}";
}
);
layerId = "1F954AD7-537E-453D-9D07-161C7E95D0AA";
paths = (
{
closed = 1;
nodes = (
"268 0 LINE",
"268 479 LINE SMOOTH",
"268 548 OFFCURVE",
"230 584 OFFCURVE",
"176 584 CURVE SMOOTH",
"96 584 LINE",
"91 557 LINE",
"171 557 LINE SMOOTH",
"211 557 OFFCURVE",
"236 529 OFFCURVE",
"236 476 CURVE SMOOTH",
"236 0 LINE"
);
},
{
closed = 1;
nodes = (
"251 0 LINE",
"251 27 LINE",
"55 27 LINE",
"55 0 LINE"
);
}
);
width = 353;
},
{
anchors = (
{
name = bottom;
position = "{177, 0}";
},
{
name = bottomleft;
position = "{-43, 0}";
},
{
name = center;
position = "{81, 306}";
},
{
name = top;
position = "{193, 553}";
},
{
name = topleft;
position = "{20, 553}";
}
);
layerId = "3FB868F8-5CDC-4A46-BA32-95627737ABE0";
paths = (
{
closed = 1;
nodes = (
"367 0 LINE",
"367 411 LINE SMOOTH",
"367 540 OFFCURVE",
"301 609 OFFCURVE",
"156 609 CURVE SMOOTH",
"75 609 LINE",
"55 451 LINE",
"103 451 LINE SMOOTH",
"156 451 OFFCURVE",
"175 440 OFFCURVE",
"175 392 CURVE SMOOTH",
"175 0 LINE"
);
},
{
closed = 1;
nodes = (
"267 0 LINE",
"267 158 LINE",
"35 158 LINE",
"35 0 LINE"
);
}
);
width = 421;
},
{
anchors = (
{
name = bottom;
position = "{104, 0}";
},
{
name = bottomleft;
position = "{28, 0}";
},
{
name = center;
position = "{71, 296}";
},
{
name = top;
position = "{127, 528}";
},
{
name = topleft;
position = "{69, 528}";
}
);
layerId = "BD31AAF9-E65B-4A30-ACC0-7018B0C27C60";
paths = (
{
closed = 1;
nodes = (
"182 0 LINE",
"182 479 LINE SMOOTH",
"182 548 OFFCURVE",
"154 584 OFFCURVE",
"100 584 CURVE SMOOTH",
"50 584 LINE",
"45 557 LINE",
"95 557 LINE SMOOTH",
"135 557 OFFCURVE",
"150 529 OFFCURVE",
"150 476 CURVE SMOOTH",
"150 0 LINE"
);
},
{
closed = 1;
nodes = (
"165 0 LINE",
"165 27 LINE",
"39 27 LINE",
"39 0 LINE"
);
}
);
width = 246;
},
{
anchors = (
{
name = bottom;
position = "{174, 0}";
},
{
name = bottomleft;
position = "{-2, 0}";
},
{
name = center;
position = "{69, 306}";
},
{
name = top;
position = "{190, 553}";
},
{
name = topleft;
position = "{61, 553}";
}
);
layerId = "AD6F6DAA-2D58-4E1D-98AF-ACAAF76D7B9E";
paths = (
{
closed = 1;
nodes = (
"327 0 LINE",
"327 411 LINE SMOOTH",
"327 540 OFFCURVE",
"279 609 OFFCURVE",
"134 609 CURVE SMOOTH",
"63 609 LINE",
"43 451 LINE",
"81 451 LINE SMOOTH",
"134 451 OFFCURVE",
"135 440 OFFCURVE",
"135 392 CURVE SMOOTH",
"135 0 LINE"
);
},
{
closed = 1;
nodes = (
"227 0 LINE",
"227 158 LINE",
"33 158 LINE",
"33 0 LINE"
);
}
);
width = 376;
}
);
unicode = 05E0;
},
{
glyphname = "samekh-hb";
lastChange = "2019-06-15 12:43:08 +0000";
layers = (
{
anchors = (
{
name = bottom;
position = "{311, 0}";
},
{
name = bottomleft;
position = "{67, 0}";
},
{
name = center;
position = "{310, 296}";
},
{
name = top;
position = "{315, 528}";
},
{
name = topleft;
position = "{23, 528}";
}
);
layerId = "1F954AD7-537E-453D-9D07-161C7E95D0AA";
paths = (
{
closed = 1;
nodes = (
"472 -10 OFFCURVE",
"547 107 OFFCURVE",
"547 331 CURVE SMOOTH",
"547 497 OFFCURVE",
"489 584 OFFCURVE",
"359 584 CURVE SMOOTH",
"55 584 LINE",
"50 557 LINE",
"355 557 LINE SMOOTH",
"467 557 OFFCURVE",
"515 478 OFFCURVE",
"515 328 CURVE SMOOTH",
"515 122 OFFCURVE",
"451 15 OFFCURVE",
"310 15 CURVE SMOOTH",
"180 15 OFFCURVE",
"122 104 OFFCURVE",
"122 295 CURVE SMOOTH",
"122 386 OFFCURVE",
"147 481 OFFCURVE",
"182 552 CURVE",
"199 572 LINE",
"153 562 LINE",
"153 552 LINE",
"118 487 OFFCURVE",
"90 397 OFFCURVE",
"90 308 CURVE",
"90 295 LINE SMOOTH",
"90 88 OFFCURVE",
"159 -10 OFFCURVE",
"310 -10 CURVE SMOOTH"
);
}
);
width = 607;
},
{
anchors = (
{
name = bottom;
position = "{361, 0}";
},
{
name = bottomleft;
position = "{35, 0}";
},
{
name = center;
position = "{362, 306}";
},
{
name = top;
position = "{362, 553}";
},
{
name = topleft;
position = "{-9, 553}";
}
);
layerId = "3FB868F8-5CDC-4A46-BA32-95627737ABE0";
paths = (
{
closed = 1;
nodes = (
"565 -9 OFFCURVE",
"669 113 OFFCURVE",
"669 320 CURVE SMOOTH",
"669 502 OFFCURVE",
"578 609 OFFCURVE",
"379 609 CURVE SMOOTH",
"55 609 LINE",
"35 451 LINE",
"379 451 LINE SMOOTH",
"458 451 OFFCURVE",
"478 403 OFFCURVE",
"478 322 CURVE SMOOTH",
"478 210 OFFCURVE",
"445 144 OFFCURVE",
"363 144 CURVE SMOOTH",
"279 144 OFFCURVE",
"246 207 OFFCURVE",
"246 314 CURVE SMOOTH",
"246 400 OFFCURVE",
"260 451 OFFCURVE",
"305 451 CURVE",
"305 461 LINE",
"149 460 LINE",
"149 445 LINE",
"94 428 OFFCURVE",
"55 363 OFFCURVE",
"55 268 CURVE",
"55 260 LINE SMOOTH",
"55 92 OFFCURVE",
"159 -9 OFFCURVE",
"363 -9 CURVE SMOOTH"
);
}
);
width = 704;
},
{
anchors = (
{
name = bottom;
position = "{212, 0}";
},
{
name = bottomleft;
position = "{84, 0}";
},
{
name = center;
position = "{208, 296}";
},
{
name = top;
position = "{205, 527}";
},
{
name = topleft;
position = "{40, 527}";
}
);
layerId = "BD31AAF9-E65B-4A30-ACC0-7018B0C27C60";
paths = (
{
closed = 1;
nodes = (
"319 -10 OFFCURVE",
"371 97 OFFCURVE",
"371 331 CURVE SMOOTH",
"371 504 OFFCURVE",
"324 584 OFFCURVE",
"223 584 CURVE SMOOTH",
"49 584 LINE",
"44 557 LINE",
"219 557 LINE SMOOTH",
"301 557 OFFCURVE",
"339 485 OFFCURVE",
"339 328 CURVE SMOOTH",
"339 113 OFFCURVE",
"297 15 OFFCURVE",
"204 15 CURVE SMOOTH",
"123 15 OFFCURVE",
"86 103 OFFCURVE",
"86 295 CURVE SMOOTH",
"86 403 OFFCURVE",
"102 483 OFFCURVE",
"136 552 CURVE",
"153 572 LINE",
"107 562 LINE",
"107 552 LINE",
"71 485 OFFCURVE",
"54 408 OFFCURVE",
"54 308 CURVE",
"54 295 LINE SMOOTH",
"54 86 OFFCURVE",
"101 -10 OFFCURVE",
"204 -10 CURVE SMOOTH"
);
}
);
width = 415;
},
{
anchors = (
{
name = bottom;
position = "{307, 0}";
},
{
name = bottomleft;
position = "{82, 0}";
},
{
name = center;
position = "{303, 306}";
},
{
name = top;
position = "{307, 553}";
},
{
name = topleft;
position = "{38, 553}";
}
);
layerId = "AD6F6DAA-2D58-4E1D-98AF-ACAAF76D7B9E";
paths = (
{
closed = 1;
nodes = (
"472 -9 OFFCURVE",
"571 113 OFFCURVE",
"571 320 CURVE SMOOTH",
"571 502 OFFCURVE",
"478 609 OFFCURVE",
"319 609 CURVE SMOOTH",
"53 609 LINE",
"33 451 LINE",
"329 451 LINE SMOOTH",
"363 451 OFFCURVE",
"382 403 OFFCURVE",
"382 322 CURVE SMOOTH",
"382 210 OFFCURVE",
"353 144 OFFCURVE",
"303 144 CURVE SMOOTH",
"258 144 OFFCURVE",
"232 207 OFFCURVE",
"232 314 CURVE SMOOTH",
"232 400 OFFCURVE",
"251 451 OFFCURVE",
"283 451 CURVE",
"283 461 LINE",
"137 460 LINE",
"137 445 LINE",
"78 427 OFFCURVE",
"43 361 OFFCURVE",
"43 268 CURVE",
"43 260 LINE SMOOTH",
"43 91 OFFCURVE",
"139 -9 OFFCURVE",
"303 -9 CURVE SMOOTH"
);
}
);
width = 604;
}
);
unicode = 05E1;
},
{
glyphname = "ayin-hb";
lastChange = "2019-06-15 12:43:08 +0000";
layers = (
{
anchors = (
{
name = bottom;
position = "{271, 0}";
},
{
name = bottomleft;
position = "{7, 0}";
},
{
name = center;
position = "{308, 316}";
},
{
name = top;
position = "{281, 528}";
},
{
name = topleft;
position = "{42, 528}";
}
);
layerId = "1F954AD7-537E-453D-9D07-161C7E95D0AA";
paths = (
{
closed = 1;
nodes = (
"213 10 LINE SMOOTH",
"373 51 OFFCURVE",
"475 109 OFFCURVE",
"489 456 CURVE SMOOTH",
"494 584 LINE",
"462 584 LINE",
"456 452 LINE SMOOTH",
"441 127 OFFCURVE",
"352 74 OFFCURVE",
"211 37 CURVE SMOOTH",
"45 -6 LINE",
"46 -33 LINE"
);
},
{
closed = 1;
nodes = (
"232 27 LINE",
"236 58 OFFCURVE",
"235 83 OFFCURVE",
"230 102 CURVE",
"100 587 LINE",
"70 581 LINE",
"218 27 LINE"
);
}
);
width = 556;
},
{
anchors = (
{
name = bottom;
position = "{302, 0}";
},
{
name = bottomleft;
position = "{-5, 0}";
},
{
name = center;
position = "{357, 416}";
},
{
name = top;
position = "{342, 553}";
},
{
name = topleft;
position = "{30, 553}";
}
);
layerId = "3FB868F8-5CDC-4A46-BA32-95627737ABE0";
paths = (
{
closed = 1;
nodes = (
"288 10 LINE SMOOTH",
"568 63 OFFCURVE",
"601 251 OFFCURVE",
"613 407 CURVE SMOOTH",
"629 609 LINE",
"437 609 LINE",
"422 414 LINE SMOOTH",
"408 231 OFFCURVE",
"369 182 OFFCURVE",
"288 167 CURVE SMOOTH",
"25 118 LINE",
"25 -40 LINE"
);
},
{
closed = 1;
nodes = (
"229 67 LINE",
"289 122 OFFCURVE",
"317 214 OFFCURVE",
"301 291 CURVE",
"245 619 LINE",
"57 597 LINE",
"158 67 LINE"
);
}
);
width = 654;
},
{
anchors = (
{
name = bottom;
position = "{163, 0}";
},
{
name = bottomleft;
position = "{6, 0}";
},
{
name = center;
position = "{221, 325}";
},
{
name = top;
position = "{213, 528}";
},
{
name = topleft;
position = "{59, 528}";
}
);
layerId = "BD31AAF9-E65B-4A30-ACC0-7018B0C27C60";
paths = (
{
closed = 1;
nodes = (
"172 0 LINE SMOOTH",
"314 34 OFFCURVE",
"344 109 OFFCURVE",
"358 456 CURVE SMOOTH",
"363 584 LINE",
"331 584 LINE",
"325 452 LINE SMOOTH",
"310 127 OFFCURVE",
"294 57 OFFCURVE",
"170 27 CURVE SMOOTH",
"34 -6 LINE",
"35 -33 LINE"
);
},
{
closed = 1;
nodes = (
"176 24 LINE",
"181 58 OFFCURVE",
"174 83 OFFCURVE",
"170 102 CURVE",
"87 587 LINE",
"57 581 LINE",
"155 24 LINE"
);
}
);
width = 407;
},
{
anchors = (
{
name = bottom;
position = "{276, 0}";
},
{
name = bottomleft;
position = "{37, 0}";
},
{
name = center;
position = "{289, 444}";
},
{
name = top;
position = "{307, 553}";
},
{
name = topleft;
position = "{76, 553}";
}
);
layerId = "AD6F6DAA-2D58-4E1D-98AF-ACAAF76D7B9E";
paths = (
{
closed = 1;
nodes = (
"271 18 LINE SMOOTH",
"419 52 OFFCURVE",
"495 144 OFFCURVE",
"511 344 CURVE SMOOTH",
"532 609 LINE",
"340 609 LINE",
"315 290 LINE SMOOTH",
"310 231 OFFCURVE",
"303 182 OFFCURVE",
"258 172 CURVE SMOOTH",
"18 118 LINE",
"18 -40 LINE"
);
},
{
closed = 1;
nodes = (
"190 67 LINE",
"259 130 OFFCURVE",
"279 226 OFFCURVE",
"266 291 CURVE",
"216 619 LINE",
"27 597 LINE",
"119 67 LINE"
);
}
);
width = 565;
}
);
unicode = 05E2;
},
{
glyphname = "finalpe-hb";
lastChange = "2019-06-15 12:43:08 +0000";
layers = (
{
anchors = (
{
name = bottom;
position = "{331, 220}";
},
{
name = bottomleft;
position = "{20, 0}";
},
{
name = center;
position = "{332, 269}";
},
{
name = top;
position = "{232, 528}";
},
{
name = topleft;
position = "{20, 528}";
}
);
layerId = "1F954AD7-537E-453D-9D07-161C7E95D0AA";
paths = (
{
closed = 1;
nodes = (
"504 -195 LINE",
"504 297 LINE SMOOTH",
"504 482 OFFCURVE",
"415 594 OFFCURVE",
"263 594 CURVE SMOOTH",
"134 594 OFFCURVE",
"56 513 OFFCURVE",
"56 399 CURVE SMOOTH",
"56 303 OFFCURVE",
"101 234 OFFCURVE",
"198 222 CURVE SMOOTH",
"214 220 OFFCURVE",
"222 220 OFFCURVE",
"229 220 CURVE",
"230 248 LINE",
"224 248 OFFCURVE",
"217 249 OFFCURVE",
"207 250 CURVE SMOOTH",
"125 258 OFFCURVE",
"90 320 OFFCURVE",
"90 399 CURVE SMOOTH",
"90 497 OFFCURVE",
"154 567 OFFCURVE",
"263 567 CURVE SMOOTH",
"394 567 OFFCURVE",
"472 466 OFFCURVE",
"472 297 CURVE SMOOTH",
"472 -198 LINE"
);
}
);
width = 587;
},
{
anchors = (
{
name = bottom;
position = "{348, 225}";
},
{
name = bottomleft;
position = "{21, 0}";
},
{
name = center;
position = "{354, 282}";
},
{
name = top;
position = "{309, 553}";
},
{
name = topleft;
position = "{6, 553}";
}
);
layerId = "3FB868F8-5CDC-4A46-BA32-95627737ABE0";
paths = (
{
closed = 1;
nodes = (
"621 -170 LINE",
"621 311 LINE SMOOTH",
"621 502 OFFCURVE",
"508 619 OFFCURVE",
"309 619 CURVE SMOOTH",
"124 619 OFFCURVE",
"35 529 OFFCURVE",
"35 404 CURVE SMOOTH",
"35 300 OFFCURVE",
"93 227 OFFCURVE",
"178 209 CURVE SMOOTH",
"220 200 OFFCURVE",
"249 197 OFFCURVE",
"270 201 CURVE",
"286 337 LINE",
"276 337 OFFCURVE",
"262 341 OFFCURVE",
"250 347 CURVE SMOOTH",
"230 357 OFFCURVE",
"218 374 OFFCURVE",
"218 398 CURVE SMOOTH",
"218 435 OFFCURVE",
"241 461 OFFCURVE",
"309 461 CURVE SMOOTH",
"396 461 OFFCURVE",
"429 403 OFFCURVE",
"429 310 CURVE SMOOTH",
"429 -180 LINE"
);
}
);
width = 676;
},
{
anchors = (
{
name = bottom;
position = "{273, 235}";
},
{
name = bottomleft;
position = "{51, 0}";
},
{
name = center;
position = "{204, 399}";
},
{
name = top;
position = "{179, 528}";
},
{
name = topleft;
position = "{45, 528}";
}
);
layerId = "BD31AAF9-E65B-4A30-ACC0-7018B0C27C60";
paths = (
{
closed = 1;
nodes = (
"376 -195 LINE",
"376 297 LINE",
"376 482 OFFCURVE",
"319 594 OFFCURVE",
"200 594 CURVE SMOOTH",
"104 594 OFFCURVE",
"44 513 OFFCURVE",
"44 399 CURVE SMOOTH",
"44 303 OFFCURVE",
"89 235 OFFCURVE",
"156 222 CURVE SMOOTH",
"172 219 OFFCURVE",
"180 220 OFFCURVE",
"187 220 CURVE",
"188 248 LINE",
"182 248 OFFCURVE",
"175 248 OFFCURVE",
"165 250 CURVE SMOOTH",
"113 260 OFFCURVE",
"76 320 OFFCURVE",
"76 399 CURVE SMOOTH",
"76 497 OFFCURVE",
"124 567 OFFCURVE",
"200 567 CURVE SMOOTH",
"298 567 OFFCURVE",
"344 466 OFFCURVE",
"344 297 CURVE",
"344 -198 LINE"
);
}
);
width = 447;
},
{
anchors = (
{
name = bottom;
position = "{290, 225}";
},
{
name = bottomleft;
position = "{75, 0}";
},
{
name = center;
position = "{270, 400}";
},
{
name = top;
position = "{297, 553}";
},
{
name = topleft;
position = "{60, 553}";
}
);
layerId = "AD6F6DAA-2D58-4E1D-98AF-ACAAF76D7B9E";
paths = (
{
closed = 1;
nodes = (
"529 -170 LINE",
"529 368 LINE SMOOTH",
"529 533 OFFCURVE",
"436 619 OFFCURVE",
"257 619 CURVE SMOOTH",
"103 619 OFFCURVE",
"23 545 OFFCURVE",
"23 404 CURVE SMOOTH",
"23 296 OFFCURVE",
"72 229 OFFCURVE",
"166 209 CURVE SMOOTH",
"209 200 OFFCURVE",
"240 197 OFFCURVE",
"258 201 CURVE",
"274 337 LINE",
"262 337 OFFCURVE",
"249 340 OFFCURVE",
"238 347 CURVE SMOOTH",
"217 358 OFFCURVE",
"206 376 OFFCURVE",
"206 398 CURVE SMOOTH",
"206 439 OFFCURVE",
"223 461 OFFCURVE",
"257 461 CURVE SMOOTH",
"310 461 OFFCURVE",
"337 429 OFFCURVE",
"337 367 CURVE SMOOTH",
"337 -180 LINE"
);
}
);
width = 561;
}
);
unicode = 05E3;
},
{
glyphname = "pe-hb";
lastChange = "2019-06-15 12:43:08 +0000";
layers = (
{
anchors = (
{
name = bottom;
position = "{258, 0}";
},
{
name = bottomleft;
position = "{60, 0}";
},
{
name = center;
position = "{337, 270}";
},
{
name = top;
position = "{247, 528}";
},
{
name = topleft;
position = "{60, 528}";
}
);
layerId = "1F954AD7-537E-453D-9D07-161C7E95D0AA";
paths = (
{
closed = 1;
nodes = (
"236 0 LINE SMOOTH",
"409 0 OFFCURVE",
"514 122 OFFCURVE",
"514 297 CURVE SMOOTH",
"514 482 OFFCURVE",
"427 594 OFFCURVE",
"275 594 CURVE SMOOTH",
"146 594 OFFCURVE",
"66 513 OFFCURVE",
"66 399 CURVE SMOOTH",
"66 303 OFFCURVE",
"111 234 OFFCURVE",
"208 222 CURVE SMOOTH",
"224 220 OFFCURVE",
"232 220 OFFCURVE",
"239 220 CURVE",
"240 248 LINE",
"234 248 OFFCURVE",
"227 249 OFFCURVE",
"217 250 CURVE SMOOTH",
"135 258 OFFCURVE",
"100 320 OFFCURVE",
"100 399 CURVE SMOOTH",
"100 497 OFFCURVE",
"166 567 OFFCURVE",
"275 567 CURVE SMOOTH",
"406 567 OFFCURVE",
"480 466 OFFCURVE",
"480 297 CURVE SMOOTH",
"480 138 OFFCURVE",
"388 27 OFFCURVE",
"236 27 CURVE SMOOTH",
"82 27 LINE",
"82 0 LINE"
);
}
);
width = 574;
},
{
anchors = (
{
name = bottom;
position = "{312, 0}";
},
{
name = bottomleft;
position = "{38, 0}";
},
{
name = center;
position = "{344, 323}";
},
{
name = top;
position = "{319, 553}";
},
{
name = topleft;
position = "{38, 553}";
}
);
layerId = "3FB868F8-5CDC-4A46-BA32-95627737ABE0";
paths = (
{
closed = 1;
nodes = (
"260 0 LINE SMOOTH",
"487 0 OFFCURVE",
"616 113 OFFCURVE",
"616 310 CURVE SMOOTH",
"616 502 OFFCURVE",
"503 619 OFFCURVE",
"304 619 CURVE SMOOTH",
"119 619 OFFCURVE",
"30 529 OFFCURVE",
"30 404 CURVE SMOOTH",
"30 300 OFFCURVE",
"88 228 OFFCURVE",
"173 209 CURVE SMOOTH",
"215 200 OFFCURVE",
"244 197 OFFCURVE",
"265 201 CURVE",
"281 337 LINE",
"271 337 OFFCURVE",
"257 341 OFFCURVE",
"245 347 CURVE SMOOTH",
"225 356 OFFCURVE",
"213 374 OFFCURVE",
"213 398 CURVE SMOOTH",
"213 435 OFFCURVE",
"236 461 OFFCURVE",
"304 461 CURVE SMOOTH",
"391 461 OFFCURVE",
"421 403 OFFCURVE",
"421 310 CURVE SMOOTH",
"421 213 OFFCURVE",
"372 158 OFFCURVE",
"280 158 CURVE SMOOTH",
"48 158 LINE",
"48 0 LINE"
);
}
);
width = 646;
},
{
anchors = (
{
name = bottom;
position = "{233, 0}";
},
{
name = bottomleft;
position = "{78, 0}";
},
{
name = center;
position = "{212, 400}";
},
{
name = top;
position = "{212, 528}";
},
{
name = topleft;
position = "{65, 528}";
}
);
layerId = "BD31AAF9-E65B-4A30-ACC0-7018B0C27C60";
paths = (
{
closed = 1;
nodes = (
"161 0 LINE SMOOTH",
"301 0 OFFCURVE",
"376 122 OFFCURVE",
"376 297 CURVE SMOOTH",
"376 482 OFFCURVE",
"319 594 OFFCURVE",
"200 594 CURVE SMOOTH",
"104 594 OFFCURVE",
"44 513 OFFCURVE",
"44 399 CURVE SMOOTH",
"44 303 OFFCURVE",
"89 235 OFFCURVE",
"156 222 CURVE SMOOTH",
"172 219 OFFCURVE",
"180 220 OFFCURVE",
"187 220 CURVE",
"188 248 LINE",
"182 248 OFFCURVE",
"175 248 OFFCURVE",
"165 250 CURVE SMOOTH",
"113 260 OFFCURVE",
"78 320 OFFCURVE",
"78 399 CURVE SMOOTH",
"78 497 OFFCURVE",
"124 567 OFFCURVE",
"200 567 CURVE SMOOTH",
"298 567 OFFCURVE",
"342 466 OFFCURVE",
"342 297 CURVE SMOOTH",
"342 138 OFFCURVE",
"280 27 OFFCURVE",
"161 27 CURVE SMOOTH",
"67 27 LINE",
"67 0 LINE"
);
}
);
width = 420;
},
{
anchors = (
{
name = bottom;
position = "{261, 0}";
},
{
name = bottomleft;
position = "{59, 0}";
},
{
name = center;
position = "{265, 397}";
},
{
name = top;
position = "{276, 553}";
},
{
name = topleft;
position = "{59, 553}";
}
);
layerId = "AD6F6DAA-2D58-4E1D-98AF-ACAAF76D7B9E";
paths = (
{
closed = 1;
nodes = (
"219 0 LINE SMOOTH",
"428 0 OFFCURVE",
"534 115 OFFCURVE",
"534 310 CURVE SMOOTH",
"534 504 OFFCURVE",
"433 619 OFFCURVE",
"262 619 CURVE SMOOTH",
"115 619 OFFCURVE",
"28 539 OFFCURVE",
"28 404 CURVE SMOOTH",
"28 302 OFFCURVE",
"81 230 OFFCURVE",
"171 209 CURVE SMOOTH",
"206 201 OFFCURVE",
"236 198 OFFCURVE",
"253 201 CURVE",
"269 337 LINE",
"256 337 OFFCURVE",
"243 341 OFFCURVE",
"235 349 CURVE SMOOTH",
"220 361 OFFCURVE",
"211 379 OFFCURVE",
"211 398 CURVE SMOOTH",
"211 438 OFFCURVE",
"230 461 OFFCURVE",
"262 461 CURVE SMOOTH",
"310 461 OFFCURVE",
"339 405 OFFCURVE",
"339 310 CURVE SMOOTH",
"339 214 OFFCURVE",
"313 158 OFFCURVE",
"239 158 CURVE SMOOTH",
"56 158 LINE",
"56 0 LINE"
);
}
);
width = 562;
}
);
unicode = 05E4;
},
{
glyphname = "finaltsadi-hb";
lastChange = "2019-06-15 12:43:08 +0000";
layers = (
{
anchors = (
{
name = bottomleft;
position = "{-7, 0}";
},
{
name = center;
position = "{210, 424}";
},
{
name = top;
position = "{203, 528}";
},
{
name = topleft;
position = "{-7, 528}";
}
);
layerId = "1F954AD7-537E-453D-9D07-161C7E95D0AA";
paths = (
{
closed = 1;
nodes = (
"348 -195 LINE",
"310 -40 LINE",
"274 108 OFFCURVE",
"230 245 OFFCURVE",
"174 368 CURVE SMOOTH",
"136 451 OFFCURVE",
"87 547 OFFCURVE",
"58 589 CURVE",
"30 579 LINE",
"57 538 OFFCURVE",
"101 452 OFFCURVE",
"140 364 CURVE SMOOTH",
"193 244 OFFCURVE",
"237 109 OFFCURVE",
"273 -40 CURVE",
"311 -200 LINE"
);
},
{
closed = 1;
nodes = (
"356 270 OFFCURVE",
"393 429 OFFCURVE",
"401 496 CURVE SMOOTH",
"411 584 LINE",
"379 584 LINE",
"369 504 LINE SMOOTH",
"361 440 OFFCURVE",
"333 289 OFFCURVE",
"216 242 CURVE",
"225 217 LINE"
);
}
);
width = 471;
},
{
anchors = (
{
name = bottomleft;
position = "{43, 0}";
},
{
name = center;
position = "{333, 504}";
},
{
name = top;
position = "{319, 553}";
},
{
name = topleft;
position = "{21, 553}";
}
);
layerId = "3FB868F8-5CDC-4A46-BA32-95627737ABE0";
paths = (
{
closed = 1;
nodes = (
"481 -170 LINE",
"414 32 LINE",
"383 153 OFFCURVE",
"341 273 OFFCURVE",
"299 394 CURVE SMOOTH",
"274 466 OFFCURVE",
"249 547 OFFCURVE",
"215 619 CURVE",
"14 599 LINE",
"53 519 OFFCURVE",
"82 448 OFFCURVE",
"111 368 CURVE SMOOTH",
"152 256 OFFCURVE",
"192 144 OFFCURVE",
"222 32 CURVE",
"289 -180 LINE"
);
},
{
closed = 1;
nodes = (
"512 205 OFFCURVE",
"573 341 OFFCURVE",
"591 513 CURVE SMOOTH",
"601 609 LINE",
"412 609 LINE",
"402 526 LINE SMOOTH",
"387 402 OFFCURVE",
"385 328 OFFCURVE",
"290 300 CURVE",
"330 177 LINE"
);
}
);
width = 626;
},
{
anchors = (
{
name = bottomleft;
position = "{29, 0}";
},
{
name = center;
position = "{172, 450}";
},
{
name = top;
position = "{171, 528}";
},
{
name = topleft;
position = "{29, 528}";
}
);
layerId = "BD31AAF9-E65B-4A30-ACC0-7018B0C27C60";
paths = (
{
closed = 1;
nodes = (
"249 -196 LINE",
"227 -41 LINE",
"207 107 OFFCURVE",
"178 244 OFFCURVE",
"135 367 CURVE SMOOTH",
"106 450 OFFCURVE",
"71 546 OFFCURVE",
"46 588 CURVE",
"17 578 LINE",
"40 537 OFFCURVE",
"75 451 OFFCURVE",
"105 363 CURVE SMOOTH",
"146 243 OFFCURVE",
"175 108 OFFCURVE",
"195 -41 CURVE",
"217 -201 LINE"
);
},
{
closed = 1;
nodes = (
"262 270 OFFCURVE",
"284 429 OFFCURVE",
"289 496 CURVE SMOOTH",
"296 584 LINE",
"264 584 LINE",
"256 504 LINE SMOOTH",
"250 440 OFFCURVE",
"238 289 OFFCURVE",
"143 242 CURVE",
"152 217 LINE"
);
}
);
width = 345;
},
{
anchors = (
{
name = bottomleft;
position = "{56, 0}";
},
{
name = center;
position = "{277, 535}";
},
{
name = top;
position = "{265, 553}";
},
{
name = topleft;
position = "{34, 553}";
}
);
layerId = "AD6F6DAA-2D58-4E1D-98AF-ACAAF76D7B9E";
paths = (
{
closed = 1;
nodes = (
"387 -170 LINE",
"353 32 LINE",
"335 153 OFFCURVE",
"306 273 OFFCURVE",
"276 394 CURVE SMOOTH",
"258 466 OFFCURVE",
"242 547 OFFCURVE",
"216 619 CURVE",
"13 599 LINE",
"43 519 OFFCURVE",
"65 448 OFFCURVE",
"86 368 CURVE SMOOTH",
"115 256 OFFCURVE",
"143 144 OFFCURVE",
"161 32 CURVE",
"194 -180 LINE"
);
},
{
closed = 1;
nodes = (
"461 205 OFFCURVE",
"507 341 OFFCURVE",
"507 513 CURVE SMOOTH",
"507 609 LINE",
"318 609 LINE",
"317 526 LINE SMOOTH",
"316 402 OFFCURVE",
"321 328 OFFCURVE",
"229 300 CURVE",
"282 177 LINE"
);
}
);
width = 540;
}
);
unicode = 05E5;
},
{
glyphname = "tsadi-hb";
lastChange = "2019-06-25 19:07:38 +0000";
layers = (
{
anchors = (
{
name = bottom;
position = "{232, 0}";
},
{
name = bottomleft;
position = "{18, 0}";
},
{
name = center;
position = "{161, 166}";
},
{
name = top;
position = "{272, 528}";
},
{
name = topleft;
position = "{48, 528}";
}
);
layerId = "1F954AD7-537E-453D-9D07-161C7E95D0AA";
paths = (
{
closed = 1;
nodes = (
"448 27 LINE",
"311 245 LINE",
"99 584 LINE",
"62 584 LINE",
"425 8 LINE"
);
},
{
closed = 1;
nodes = (
"442 0 LINE",
"448 27 LINE",
"431 27 LINE",
"45 27 LINE",
"45 0 LINE"
);
},
{
closed = 1;
nodes = (
"407 270 OFFCURVE",
"444 429 OFFCURVE",
"451 496 CURVE SMOOTH",
"460 584 LINE",
"428 584 LINE",
"419 504 LINE SMOOTH",
"412 440 OFFCURVE",
"383 292 OFFCURVE",
"286 255 CURVE",
"296 228 LINE"
);
}
);
width = 520;
},
{
anchors = (
{
name = bottom;
position = "{262, 0}";
},
{
name = bottomleft;
position = "{-20, 0}";
},
{
name = center;
position = "{110, 268}";
},
{
name = top;
position = "{278, 553}";
},
{
name = topleft;
position = "{-41, 553}";
}
);
layerId = "3FB868F8-5CDC-4A46-BA32-95627737ABE0";
paths = (
{
closed = 1;
nodes = (
"548 110 LINE",
"375 374 LINE",
"240 609 LINE",
"15 609 LINE",
"404 0 LINE"
);
},
{
closed = 1;
nodes = (
"531 0 LINE",
"548 110 LINE",
"493 158 LINE",
"39 158 LINE",
"39 0 LINE"
);
},
{
closed = 1;
nodes = (
"515 278 OFFCURVE",
"566 384 OFFCURVE",
"577 487 CURVE SMOOTH",
"590 609 LINE",
"399 609 LINE",
"385 500 LINE SMOOTH",
"378 445 OFFCURVE",
"374 381 OFFCURVE",
"311 366 CURVE",
"365 243 LINE"
);
}
);
width = 616;
},
{
anchors = (
{
name = bottom;
position = "{161, 0}";
},
{
name = bottomleft;
position = "{27, 0}";
},
{
name = center;
position = "{101, 172}";
},
{
name = top;
position = "{185, 528}";
},
{
name = topleft;
position = "{57, 528}";
}
);
layerId = "BD31AAF9-E65B-4A30-ACC0-7018B0C27C60";
paths = (
{
closed = 1;
nodes = (
"327 27 LINE",
"227 245 LINE",
"72 584 LINE",
"40 584 LINE",
"303 8 LINE"
);
},
{
closed = 1;
nodes = (
"321 0 LINE",
"327 27 LINE",
"310 27 LINE",
"34 27 LINE",
"34 0 LINE"
);
},
{
closed = 1;
nodes = (
"296 270 OFFCURVE",
"323 429 OFFCURVE",
"330 496 CURVE SMOOTH",
"339 584 LINE",
"307 584 LINE",
"298 504 LINE SMOOTH",
"291 440 OFFCURVE",
"272 292 OFFCURVE",
"195 255 CURVE",
"205 228 LINE"
);
}
);
width = 378;
},
{
anchors = (
{
name = bottom;
position = "{255, 0}";
},
{
name = bottomleft;
position = "{54, 0}";
},
{
name = center;
position = "{102, 245}";
},
{
name = top;
position = "{284, 553}";
},
{
name = topleft;
position = "{41, 553}";
}
);
layerId = "AD6F6DAA-2D58-4E1D-98AF-ACAAF76D7B9E";
paths = (
{
closed = 1;
nodes = (
"476 110 LINE",
"313 374 LINE",
"238 609 LINE",
"23 609 LINE",
"312 0 LINE"
);
},
{
closed = 1;
nodes = (
"459 0 LINE",
"476 110 LINE",
"421 158 LINE",
"37 158 LINE",
"37 0 LINE"
);
},
{
closed = 1;
nodes = (
"458 278 OFFCURVE",
"505 384 OFFCURVE",
"513 487 CURVE SMOOTH",
"522 609 LINE",
"341 609 LINE",
"330 500 LINE SMOOTH",
"324 445 OFFCURVE",
"324 381 OFFCURVE",
"261 366 CURVE",
"309 243 LINE"
);
}
);
width = 550;
}
);
unicode = 05E6;
},
{
glyphname = "qof-hb";
lastChange = "2019-06-15 12:43:08 +0000";
layers = (
{
anchors = (
{
name = bottom;
position = "{353, 0}";
},
{
name = bottomleft;
position = "{30, 0}";
},
{
name = center;
position = "{260, 296}";
},
{
name = top;
position = "{296, 528}";
},
{
name = topleft;
position = "{70, 528}";
}
);
layerId = "1F954AD7-537E-453D-9D07-161C7E95D0AA";
paths = (
{
closed = 1;
nodes = (
"370 0 LINE",
"550 557 LINE",
"558 584 LINE",
"87 584 LINE",
"82 557 LINE",
"518 557 LINE",
"338 0 LINE"
);
},
{
closed = 1;
nodes = (
"149 -195 LINE",
"149 400 LINE",
"117 395 LINE",
"117 -198 LINE"
);
}
);
width = 600;
},
{
anchors = (
{
name = bottom;
position = "{405, 0}";
},
{
name = bottomleft;
position = "{-39, 0}";
},
{
name = center;
position = "{317, 316}";
},
{
name = top;
position = "{334, 553}";
},
{
name = topleft;
position = "{25, 553}";
}
);
layerId = "3FB868F8-5CDC-4A46-BA32-95627737ABE0";
paths = (
{
closed = 1;
nodes = (
"503 0 LINE",
"642 498 LINE",
"652 609 LINE",
"55 609 LINE",
"35 453 LINE",
"437 453 LINE",
"311 0 LINE"
);
},
{
closed = 1;
nodes = (
"247 -170 LINE",
"247 346 LINE",
"55 336 LINE",
"55 -180 LINE"
);
}
);
width = 672;
},
{
anchors = (
{
name = bottom;
position = "{238, 0}";
},
{
name = bottomleft;
position = "{42, 0}";
},
{
name = center;
position = "{205, 296}";
},
{
name = top;
position = "{241, 528}";
},
{
name = topleft;
position = "{82, 528}";
}
);
layerId = "BD31AAF9-E65B-4A30-ACC0-7018B0C27C60";
paths = (
{
closed = 1;
nodes = (
"262 0 LINE",
"402 557 LINE",
"408 584 LINE",
"59 584 LINE",
"54 557 LINE",
"370 557 LINE",
"230 0 LINE"
);
},
{
closed = 1;
nodes = (
"111 -195 LINE",
"111 400 LINE",
"79 395 LINE",
"79 -198 LINE"
);
}
);
width = 447;
},
{
anchors = (
{
name = bottom;
position = "{403, 0}";
},
{
name = bottomleft;
position = "{9, 0}";
},
{
name = center;
position = "{282, 306}";
},
{
name = top;
position = "{303, 553}";
},
{
name = topleft;
position = "{62, 553}";
}
);
layerId = "AD6F6DAA-2D58-4E1D-98AF-ACAAF76D7B9E";
paths = (
{
closed = 1;
nodes = (
"461 0 LINE",
"550 498 LINE",
"568 609 LINE",
"53 609 LINE",
"33 453 LINE",
"355 453 LINE",
"279 0 LINE"
);
},
{
closed = 1;
nodes = (
"235 -170 LINE",
"235 366 LINE",
"43 356 LINE",
"43 -180 LINE"
);
}
);
width = 586;
}
);
unicode = 05E7;
},
{
glyphname = "resh-hb";
lastChange = "2019-06-15 12:43:08 +0000";
layers = (
{
anchors = (
{
name = bottom;
position = "{402, 0}";
},
{
name = bottomleft;
position = "{196, 0}";
},
{
name = center;
position = "{196, 296}";
},
{
name = top;
position = "{186, 528}";
},
{
name = topleft;
position = "{3, 528}";
}
);
layerId = "1F954AD7-537E-453D-9D07-161C7E95D0AA";
paths = (
{
closed = 1;
nodes = (
"418 0 LINE",
"418 419 LINE SMOOTH",
"418 527 OFFCURVE",
"361 584 OFFCURVE",
"255 584 CURVE SMOOTH",
"48 584 LINE",
"43 557 LINE",
"250 557 LINE SMOOTH",
"343 557 OFFCURVE",
"386 511 OFFCURVE",
"386 416 CURVE SMOOTH",
"386 0 LINE"
);
}
);
width = 505;
},
{
anchors = (
{
name = bottom;
position = "{403, 0}";
},
{
name = bottomleft;
position = "{142, 0}";
},
{
name = center;
position = "{142, 306}";
},
{
name = top;
position = "{225, 553}";
},
{
name = topleft;
position = "{-50, 553}";
}
);
layerId = "3FB868F8-5CDC-4A46-BA32-95627737ABE0";
paths = (
{
closed = 1;
nodes = (
"499 0 LINE",
"499 382 LINE SMOOTH",
"499 533 OFFCURVE",
"414 609 OFFCURVE",
"247 609 CURVE SMOOTH",
"55 609 LINE",
"35 451 LINE",
"238 451 LINE SMOOTH",
"281 451 OFFCURVE",
"307 427 OFFCURVE",
"307 379 CURVE SMOOTH",
"307 0 LINE"
);
}
);
width = 554;
},
{
anchors = (
{
name = bottom;
position = "{270, 0}";
},
{
name = bottomleft;
position = "{74, 0}";
},
{
name = center;
position = "{124, 296}";
},
{
name = top;
position = "{142, 528}";
},
{
name = topleft;
position = "{32, 528}";
}
);
layerId = "BD31AAF9-E65B-4A30-ACC0-7018B0C27C60";
paths = (
{
closed = 1;
nodes = (
"285 0 LINE",
"285 419 LINE SMOOTH",
"285 527 OFFCURVE",
"248 584 OFFCURVE",
"142 584 CURVE SMOOTH",
"34 584 LINE",
"29 557 LINE",
"137 557 LINE SMOOTH",
"230 557 OFFCURVE",
"253 511 OFFCURVE",
"253 416 CURVE SMOOTH",
"253 0 LINE"
);
}
);
width = 349;
},
{
anchors = (
{
name = bottom;
position = "{319, 0}";
},
{
name = bottomleft;
position = "{193, 0}";
},
{
name = center;
position = "{130, 306}";
},
{
name = top;
position = "{215, 553}";
},
{
name = topleft;
position = "{24, 553}";
}
);
layerId = "AD6F6DAA-2D58-4E1D-98AF-ACAAF76D7B9E";
paths = (
{
closed = 1;
nodes = (
"417 0 LINE",
"417 382 LINE SMOOTH",
"417 533 OFFCURVE",
"352 609 OFFCURVE",
"185 609 CURVE SMOOTH",
"43 609 LINE",
"23 451 LINE",
"176 451 LINE SMOOTH",
"219 451 OFFCURVE",
"225 427 OFFCURVE",
"225 379 CURVE SMOOTH",
"225 0 LINE"
);
}
);
width = 460;
}
);
unicode = 05E8;
},
{
glyphname = "shin-hb";
lastChange = "2019-06-15 12:43:08 +0000";
layers = (
{
anchors = (
{
name = bottom;
position = "{337, 0}";
},
{
name = bottomleft;
position = "{121, 0}";
},
{
name = center;
position = "{425, 213}";
},
{
name = top;
position = "{336, 528}";
},
{
name = topleft;
position = "{88, 528}";
},
{
name = topright;
position = "{588, 528}";
}
);
layerId = "1F954AD7-537E-453D-9D07-161C7E95D0AA";
paths = (
{
closed = 1;
nodes = (
"341 0 LINE SMOOTH",
"512 0 OFFCURVE",
"603 123 OFFCURVE",
"603 331 CURVE SMOOTH",
"603 584 LINE",
"571 584 LINE",
"571 328 LINE SMOOTH",
"571 138 OFFCURVE",
"492 25 OFFCURVE",
"341 25 CURVE SMOOTH",
"326 25 LINE SMOOTH",
"179 25 OFFCURVE",
"102 138 OFFCURVE",
"102 328 CURVE",
"102 584 LINE",
"70 584 LINE",
"70 331 LINE SMOOTH",
"70 123 OFFCURVE",
"159 0 OFFCURVE",
"326 0 CURVE SMOOTH"
);
},
{
closed = 1;
nodes = (
"249 220 OFFCURVE",
"352 308 OFFCURVE",
"352 461 CURVE SMOOTH",
"352 584 LINE",
"320 584 LINE",
"320 458 LINE SMOOTH",
"320 321 OFFCURVE",
"228 243 OFFCURVE",
"92 250 CURVE",
"96 224 LINE"
);
}
);
width = 674;
},
{
anchors = (
{
name = bottom;
position = "{432, 0}";
},
{
name = bottomleft;
position = "{151, 0}";
},
{
name = center;
position = "{468, 256}";
},
{
name = top;
position = "{443, 553}";
},
{
name = topleft;
position = "{148, 553}";
},
{
name = topright;
position = "{679, 553}";
}
);
layerId = "3FB868F8-5CDC-4A46-BA32-95627737ABE0";
paths = (
{
closed = 1;
nodes = (
"417 -9 LINE SMOOTH",
"634 -8 OFFCURVE",
"769 111 OFFCURVE",
"769 368 CURVE SMOOTH",
"769 609 LINE",
"578 609 LINE",
"578 370 LINE SMOOTH",
"578 203 OFFCURVE",
"518 145 OFFCURVE",
"412 144 CURVE SMOOTH",
"411 144 LINE SMOOTH",
"306 144 OFFCURVE",
"246 203 OFFCURVE",
"246 372 CURVE SMOOTH",
"246 609 LINE",
"55 609 LINE",
"55 369 LINE SMOOTH",
"55 112 OFFCURVE",
"193 -9 OFFCURVE",
"415 -9 CURVE SMOOTH"
);
},
{
closed = 1;
nodes = (
"444 234 OFFCURVE",
"509 358 OFFCURVE",
"509 548 CURVE SMOOTH",
"509 609 LINE",
"318 609 LINE",
"318 539 LINE SMOOTH",
"318 421 OFFCURVE",
"308 360 OFFCURVE",
"181 368 CURVE",
"191 241 LINE"
);
}
);
width = 824;
},
{
anchors = (
{
name = bottom;
position = "{220, 0}";
},
{
name = bottomleft;
position = "{92, 0}";
},
{
name = center;
position = "{288, 213}";
},
{
name = top;
position = "{262, 528}";
},
{
name = topleft;
position = "{77, 528}";
},
{
name = topright;
position = "{427, 528}";
}
);
layerId = "BD31AAF9-E65B-4A30-ACC0-7018B0C27C60";
paths = (
{
closed = 1;
nodes = (
"250 0 LINE SMOOTH",
"382 0 OFFCURVE",
"442 92 OFFCURVE",
"442 293 CURVE SMOOTH",
"442 584 LINE",
"410 584 LINE",
"410 290 LINE SMOOTH",
"410 108 OFFCURVE",
"360 25 OFFCURVE",
"250 25 CURVE SMOOTH",
"245 25 LINE SMOOTH",
"139 25 OFFCURVE",
"91 108 OFFCURVE",
"91 290 CURVE",
"91 584 LINE",
"59 584 LINE",
"59 293 LINE SMOOTH",
"59 92 OFFCURVE",
"117 0 OFFCURVE",
"245 0 CURVE SMOOTH"
);
},
{
closed = 1;
nodes = (
"173 220 OFFCURVE",
"266 308 OFFCURVE",
"266 518 CURVE SMOOTH",
"266 584 LINE",
"234 584 LINE",
"234 515 LINE SMOOTH",
"234 321 OFFCURVE",
"152 243 OFFCURVE",
"66 250 CURVE",
"70 224 LINE"
);
}
);
width = 501;
},
{
anchors = (
{
name = bottom;
position = "{336, 0}";
},
{
name = bottomleft;
position = "{100, 0}";
},
{
name = center;
position = "{376, 225}";
},
{
name = top;
position = "{361, 553}";
},
{
name = topleft;
position = "{137, 553}";
},
{
name = topright;
position = "{566, 553}";
}
);
layerId = "AD6F6DAA-2D58-4E1D-98AF-ACAAF76D7B9E";
paths = (
{
closed = 1;
nodes = (
"345 -9 LINE SMOOTH",
"567 -9 OFFCURVE",
"647 111 OFFCURVE",
"647 368 CURVE SMOOTH",
"647 609 LINE",
"456 609 LINE",
"456 370 LINE SMOOTH",
"456 203 OFFCURVE",
"441 144 OFFCURVE",
"340 144 CURVE SMOOTH",
"339 144 LINE SMOOTH",
"249 144 OFFCURVE",
"224 203 OFFCURVE",
"224 372 CURVE SMOOTH",
"224 609 LINE",
"33 609 LINE",
"33 369 LINE SMOOTH",
"33 112 OFFCURVE",
"126 -9 OFFCURVE",
"343 -9 CURVE SMOOTH"
);
},
{
closed = 1;
nodes = (
"372 224 OFFCURVE",
"422 338 OFFCURVE",
"422 528 CURVE SMOOTH",
"422 609 LINE",
"261 609 LINE",
"261 519 LINE SMOOTH",
"261 401 OFFCURVE",
"251 340 OFFCURVE",
"124 348 CURVE",
"134 231 LINE"
);
}
);
width = 680;
}
);
unicode = 05E9;
},
{
glyphname = "tav-hb";
lastChange = "2019-06-15 12:43:08 +0000";
layers = (
{
anchors = (
{
name = bottom;
position = "{352, 0}";
},
{
name = bottomleft;
position = "{33, 0}";
},
{
name = center;
position = "{352, 296}";
},
{
name = top;
position = "{315, 528}";
},
{
name = topleft;
position = "{87, 528}";
}
);
layerId = "1F954AD7-537E-453D-9D07-161C7E95D0AA";
paths = (
{
closed = 1;
nodes = (
"563 0 LINE",
"563 419 LINE SMOOTH",
"563 527 OFFCURVE",
"506 584 OFFCURVE",
"400 584 CURVE SMOOTH",
"155 584 LINE",
"155 557 LINE",
"395 557 LINE SMOOTH",
"488 557 OFFCURVE",
"531 511 OFFCURVE",
"531 416 CURVE SMOOTH",
"531 0 LINE"
);
},
{
closed = 1;
nodes = (
"76 0 LINE SMOOTH",
"147 0 OFFCURVE",
"187 44 OFFCURVE",
"187 120 CURVE SMOOTH",
"187 572 LINE",
"155 572 LINE",
"155 134 LINE SMOOTH",
"155 60 OFFCURVE",
"131 27 OFFCURVE",
"76 27 CURVE SMOOTH",
"40 27 LINE",
"35 0 LINE"
);
},
{
closed = 1;
nodes = (
"160 557 LINE",
"160 584 LINE",
"65 584 LINE",
"60 557 LINE"
);
}
);
width = 648;
},
{
anchors = (
{
name = bottom;
position = "{412, 0}";
},
{
name = bottomleft;
position = "{55, 0}";
},
{
name = center;
position = "{412, 289}";
},
{
name = top;
position = "{412, 536}";
},
{
name = topleft;
position = "{61, 553}";
}
);
layerId = "3FB868F8-5CDC-4A46-BA32-95627737ABE0";
paths = (
{
closed = 1;
nodes = (
"691 0 LINE",
"691 382 LINE SMOOTH",
"691 533 OFFCURVE",
"606 609 OFFCURVE",
"439 609 CURVE SMOOTH",
"138 609 LINE",
"138 451 LINE",
"430 451 LINE SMOOTH",
"473 451 OFFCURVE",
"499 427 OFFCURVE",
"499 379 CURVE SMOOTH",
"499 0 LINE"
);
},
{
closed = 1;
nodes = (
"132 0 LINE SMOOTH",
"262 0 OFFCURVE",
"330 76 OFFCURVE",
"330 221 CURVE SMOOTH",
"330 574 LINE",
"138 574 LINE",
"138 211 LINE SMOOTH",
"138 176 OFFCURVE",
"122 158 OFFCURVE",
"91 158 CURVE SMOOTH",
"55 158 LINE",
"35 0 LINE"
);
},
{
closed = 1;
nodes = (
"249 451 LINE",
"249 609 LINE",
"67 609 LINE",
"47 451 LINE"
);
}
);
width = 746;
},
{
anchors = (
{
name = bottom;
position = "{236, 0}";
},
{
name = bottomleft;
position = "{50, 0}";
},
{
name = center;
position = "{236, 296}";
},
{
name = top;
position = "{236, 528}";
},
{
name = topleft;
position = "{54, 528}";
}
);
layerId = "BD31AAF9-E65B-4A30-ACC0-7018B0C27C60";
paths = (
{
closed = 1;
nodes = (
"382 0 LINE",
"382 419 LINE SMOOTH",
"382 527 OFFCURVE",
"345 584 OFFCURVE",
"239 584 CURVE SMOOTH",
"104 584 LINE",
"104 557 LINE",
"234 557 LINE SMOOTH",
"327 557 OFFCURVE",
"350 511 OFFCURVE",
"350 416 CURVE SMOOTH",
"350 0 LINE"
);
},
{
closed = 1;
nodes = (
"55 0 LINE SMOOTH",
"126 0 OFFCURVE",
"136 44 OFFCURVE",
"136 120 CURVE SMOOTH",
"136 572 LINE",
"104 572 LINE",
"104 134 LINE SMOOTH",
"104 60 OFFCURVE",
"110 27 OFFCURVE",
"55 27 CURVE SMOOTH",
"39 27 LINE",
"34 0 LINE"
);
},
{
closed = 1;
nodes = (
"134 557 LINE",
"134 584 LINE",
"51 584 LINE",
"46 557 LINE"
);
}
);
width = 446;
},
{
anchors = (
{
name = bottom;
position = "{332, 0}";
},
{
name = bottomleft;
position = "{60, 0}";
},
{
name = center;
position = "{332, 306}";
},
{
name = top;
position = "{332, 553}";
},
{
name = topleft;
position = "{60, 553}";
}
);
layerId = "AD6F6DAA-2D58-4E1D-98AF-ACAAF76D7B9E";
paths = (
{
closed = 1;
nodes = (
"569 0 LINE",
"569 382 LINE SMOOTH",
"569 533 OFFCURVE",
"504 609 OFFCURVE",
"337 609 CURVE SMOOTH",
"96 609 LINE",
"96 451 LINE",
"328 451 LINE SMOOTH",
"371 451 OFFCURVE",
"377 427 OFFCURVE",
"377 379 CURVE SMOOTH",
"377 0 LINE"
);
},
{
closed = 1;
nodes = (
"110 0 LINE SMOOTH",
"240 0 OFFCURVE",
"288 76 OFFCURVE",
"288 221 CURVE SMOOTH",
"288 574 LINE",
"96 574 LINE",
"96 211 LINE SMOOTH",
"96 176 OFFCURVE",
"100 158 OFFCURVE",
"69 158 CURVE SMOOTH",
"38 158 LINE",
"18 0 LINE"
);
},
{
closed = 1;
nodes = (
"217 451 LINE",
"217 609 LINE",
"45 609 LINE",
"25 451 LINE"
);
}
);
width = 612;
}
);
unicode = 05EA;
},
{
glyphname = "ayinaltone-hb";
lastChange = "2019-06-14 12:57:39 +0000";
layers = (
{
anchors = (
{
name = bottom;
position = "{286, 0}";
},
{
name = bottomleft;
position = "{20, 0}";
},
{
name = top;
position = "{301, 528}";
},
{
name = topleft;
position = "{63, 528}";
}
);
layerId = "1F954AD7-537E-453D-9D07-161C7E95D0AA";
paths = (
{
closed = 1;
nodes = (
"208 0 LINE SMOOTH",
"373 1 OFFCURVE",
"470 109 OFFCURVE",
"484 456 CURVE SMOOTH",
"489 584 LINE",
"457 584 LINE",
"451 452 LINE SMOOTH",
"436 127 OFFCURVE",
"351 28 OFFCURVE",
"206 27 CURVE SMOOTH",
"40 26 LINE",
"41 -1 LINE"
);
},
{
closed = 1;
nodes = (
"228 22 LINE",
"232 53 OFFCURVE",
"230 83 OFFCURVE",
"225 102 CURVE",
"95 587 LINE",
"65 581 LINE",
"214 22 LINE"
);
}
);
width = 542;
},
{
anchors = (
{
name = bottom;
position = "{299, 0}";
},
{
name = bottomleft;
position = "{10, 0}";
},
{
name = top;
position = "{337, 553}";
},
{
name = topleft;
position = "{37, 553}";
}
);
layerId = "3FB868F8-5CDC-4A46-BA32-95627737ABE0";
paths = (
{
closed = 1;
nodes = (
"288 0 LINE SMOOTH",
"573 0 OFFCURVE",
"601 251 OFFCURVE",
"613 407 CURVE SMOOTH",
"629 609 LINE",
"437 609 LINE",
"422 414 LINE SMOOTH",
"408 231 OFFCURVE",
"369 157 OFFCURVE",
"288 157 CURVE SMOOTH",
"25 158 LINE",
"25 0 LINE"
);
},
{
closed = 1;
nodes = (
"229 67 LINE",
"289 122 OFFCURVE",
"317 214 OFFCURVE",
"301 291 CURVE",
"245 619 LINE",
"57 597 LINE",
"158 67 LINE"
);
}
);
width = 649;
},
{
anchors = (
{
name = bottom;
position = "{231, 0}";
},
{
name = bottomleft;
position = "{22, 0}";
},
{
name = top;
position = "{219, 528}";
},
{
name = topleft;
position = "{65, 528}";
}
);
layerId = "BD31AAF9-E65B-4A30-ACC0-7018B0C27C60";
paths = (
{
closed = 1;
nodes = (
"158 0 LINE SMOOTH",
"323 0 OFFCURVE",
"370 109 OFFCURVE",
"384 456 CURVE SMOOTH",
"389 584 LINE",
"357 584 LINE",
"351 452 LINE SMOOTH",
"336 127 OFFCURVE",
"301 27 OFFCURVE",
"156 27 CURVE SMOOTH",
"30 27 LINE",
"31 0 LINE"
);
},
{
closed = 1;
nodes = (
"171 17 LINE",
"178 48 OFFCURVE",
"174 83 OFFCURVE",
"171 102 CURVE",
"75 587 LINE",
"44 581 LINE",
"157 17 LINE"
);
}
);
width = 413;
},
{
anchors = (
{
name = bottom;
position = "{287, 0}";
},
{
name = bottomleft;
position = "{-2, 0}";
},
{
name = top;
position = "{272, 553}";
},
{
name = topleft;
position = "{41, 553}";
}
);
layerId = "AD6F6DAA-2D58-4E1D-98AF-ACAAF76D7B9E";
paths = (
{
closed = 1;
nodes = (
"268 0 LINE SMOOTH",
"553 0 OFFCURVE",
"561 251 OFFCURVE",
"573 407 CURVE SMOOTH",
"589 609 LINE",
"397 609 LINE",
"382 414 LINE SMOOTH",
"368 231 OFFCURVE",
"349 157 OFFCURVE",
"268 157 CURVE SMOOTH",
"25 158 LINE",
"25 0 LINE"
);
},
{
closed = 1;
nodes = (
"229 67 LINE",
"289 122 OFFCURVE",
"317 214 OFFCURVE",
"301 291 CURVE",
"245 619 LINE",
"57 597 LINE",
"158 67 LINE"
);
}
);
width = 624;
}
);
note = alternativeayin;
unicode = FB20;
},
{
glyphname = "widealef-hb";
lastChange = "2019-06-10 15:19:28 +0000";
layers = (
{
layerId = "1F954AD7-537E-453D-9D07-161C7E95D0AA";
paths = (
{
closed = 1;
nodes = (
"645 0 LINE",
"532 148 OFFCURVE",
"388 307 OFFCURVE",
"291 405 CURVE SMOOTH",
"193 504 OFFCURVE",
"153 542 OFFCURVE",
"110 584 CURVE",
"72 584 LINE",
"114 543 OFFCURVE",
"157 502 OFFCURVE",
"256 401 CURVE SMOOTH",
"351 304 OFFCURVE",
"495 149 OFFCURVE",
"608 0 CURVE"
);
},
{
closed = 1;
nodes = (
"68 0 LINE",
"99 194 LINE SMOOTH",
"116 303 OFFCURVE",
"153 376 OFFCURVE",
"239 424 CURVE",
"224 446 LINE",
"130 393 OFFCURVE",
"87 314 OFFCURVE",
"67 191 CURVE SMOOTH",
"36 0 LINE"
);
},
{
closed = 1;
nodes = (
"539 281 OFFCURVE",
"596 357 OFFCURVE",
"609 481 CURVE SMOOTH",
"619 584 LINE",
"587 584 LINE",
"577 478 LINE SMOOTH",
"565 368 OFFCURVE",
"515 298 OFFCURVE",
"430 250 CURVE",
"445 228 LINE"
);
}
);
width = 683;
},
{
layerId = "3FB868F8-5CDC-4A46-BA32-95627737ABE0";
paths = (
{
closed = 1;
nodes = (
"845 0 LINE",
"717 152 OFFCURVE",
"586 281 OFFCURVE",
"460 434 CURVE SMOOTH",
"431 469 OFFCURVE",
"349 561 OFFCURVE",
"300 609 CURVE",
"54 609 LINE",
"97 570 OFFCURVE",
"223 438 OFFCURVE",
"280 381 CURVE SMOOTH",
"406 255 OFFCURVE",
"492 152 OFFCURVE",
"612 0 CURVE"
);
},
{
closed = 1;
nodes = (
"231 0 LINE",
"259 175 LINE SMOOTH",
"268 233 OFFCURVE",
"273 294 OFFCURVE",
"355 329 CURVE",
"300 452 LINE",
"122 397 OFFCURVE",
"85 291 OFFCURVE",
"69 188 CURVE SMOOTH",
"40 0 LINE"
);
},
{
closed = 1;
nodes = (
"735 258 OFFCURVE",
"791 365 OFFCURVE",
"807 467 CURVE SMOOTH",
"829 609 LINE",
"638 609 LINE",
"615 480 LINE SMOOTH",
"605 426 OFFCURVE",
"594 361 OFFCURVE",
"511 326 CURVE",
"565 203 LINE"
);
}
);
width = 890;
},
{
layerId = "BD31AAF9-E65B-4A30-ACC0-7018B0C27C60";
paths = (
{
closed = 1;
nodes = (
"520 0 LINE",
"433 148 OFFCURVE",
"317 307 OFFCURVE",
"237 405 CURVE SMOOTH",
"156 504 OFFCURVE",
"123 542 OFFCURVE",
"87 584 CURVE",
"51 584 LINE",
"86 543 OFFCURVE",
"122 502 OFFCURVE",
"203 401 CURVE SMOOTH",
"281 303 OFFCURVE",
"398 149 OFFCURVE",
"485 0 CURVE"
);
},
{
closed = 1;
nodes = (
"54 0 LINE",
"78 174 LINE SMOOTH",
"93 283 OFFCURVE",
"126 356 OFFCURVE",
"210 404 CURVE",
"194 426 LINE",
"102 373 OFFCURVE",
"63 294 OFFCURVE",
"46 171 CURVE SMOOTH",
"22 0 LINE"
);
},
{
closed = 1;
nodes = (
"441 301 OFFCURVE",
"494 377 OFFCURVE",
"504 501 CURVE SMOOTH",
"511 584 LINE",
"479 584 LINE",
"472 498 LINE SMOOTH",
"463 388 OFFCURVE",
"417 318 OFFCURVE",
"333 270 CURVE",
"349 248 LINE"
);
}
);
width = 542;
},
{
layerId = "AD6F6DAA-2D58-4E1D-98AF-ACAAF76D7B9E";
paths = (
{
closed = 1;
nodes = (
"679 0 LINE",
"583 152 OFFCURVE",
"481 283 OFFCURVE",
"386 434 CURVE SMOOTH",
"364 469 OFFCURVE",
"301 561 OFFCURVE",
"262 609 CURVE",
"26 609 LINE",
"60 570 OFFCURVE",
"158 438 OFFCURVE",
"204 381 CURVE SMOOTH",
"305 256 OFFCURVE",
"368 152 OFFCURVE",
"456 0 CURVE"
);
},
{
closed = 1;
nodes = (
"206 0 LINE",
"229 145 LINE SMOOTH",
"238 203 OFFCURVE",
"243 264 OFFCURVE",
"295 279 CURVE",
"240 402 LINE",
"92 367 OFFCURVE",
"55 261 OFFCURVE",
"39 158 CURVE SMOOTH",
"15 0 LINE"
);
},
{
closed = 1;
nodes = (
"605 278 OFFCURVE",
"656 384 OFFCURVE",
"667 487 CURVE SMOOTH",
"680 609 LINE",
"489 609 LINE",
"475 500 LINE SMOOTH",
"468 445 OFFCURVE",
"464 381 OFFCURVE",
"401 366 CURVE",
"455 243 LINE"
);
}
);
width = 695;
}
);
note = alefwide;
unicode = FB21;
},
{
glyphname = "widedalet-hb";
lastChange = "2019-06-10 15:19:02 +0000";
layers = (
{
layerId = "1F954AD7-537E-453D-9D07-161C7E95D0AA";
paths = (
{
closed = 1;
nodes = (
"503 0 LINE",
"503 509 LINE",
"503 528 OFFCURVE",
"505 548 OFFCURVE",
"508 557 CURVE",
"484 557 LINE",
"475 550 OFFCURVE",
"471 528 OFFCURVE",
"471 509 CURVE",
"471 0 LINE"
);
},
{
closed = 1;
nodes = (
"593 557 LINE",
"598 584 LINE",
"25 584 LINE",
"25 557 LINE"
);
}
);
width = 632;
},
{
layerId = "3FB868F8-5CDC-4A46-BA32-95627737ABE0";
paths = (
{
closed = 1;
nodes = (
"624 0 LINE",
"624 384 LINE",
"624 416 OFFCURVE",
"624 439 OFFCURVE",
"645 451 CURVE",
"492 451 LINE",
"443 427 OFFCURVE",
"432 366 OFFCURVE",
"432 336 CURVE",
"432 0 LINE"
);
},
{
closed = 1;
nodes = (
"705 451 LINE",
"725 609 LINE",
"45 609 LINE",
"45 451 LINE"
);
}
);
width = 745;
},
{
layerId = "BD31AAF9-E65B-4A30-ACC0-7018B0C27C60";
paths = (
{
closed = 1;
nodes = (
"373 0 LINE",
"373 509 LINE",
"373 528 OFFCURVE",
"375 548 OFFCURVE",
"378 557 CURVE",
"354 557 LINE",
"345 550 OFFCURVE",
"341 528 OFFCURVE",
"341 509 CURVE",
"341 0 LINE"
);
},
{
closed = 1;
nodes = (
"463 557 LINE",
"468 584 LINE",
"35 584 LINE",
"35 557 LINE"
);
}
);
width = 502;
},
{
layerId = "AD6F6DAA-2D58-4E1D-98AF-ACAAF76D7B9E";
paths = (
{
closed = 1;
nodes = (
"474 0 LINE",
"474 384 LINE",
"474 416 OFFCURVE",
"474 439 OFFCURVE",
"495 451 CURVE",
"342 451 LINE",
"293 427 OFFCURVE",
"282 366 OFFCURVE",
"282 336 CURVE",
"282 0 LINE"
);
},
{
closed = 1;
nodes = (
"555 451 LINE",
"575 609 LINE",
"35 609 LINE",
"35 451 LINE"
);
}
);
width = 607;
}
);
note = daletwide;
unicode = FB22;
},
{
glyphname = "widehe-hb";
lastChange = "2019-06-10 15:18:28 +0000";
layers = (
{
layerId = "1F954AD7-537E-453D-9D07-161C7E95D0AA";
paths = (
{
closed = 1;
nodes = (
"681 0 LINE",
"681 419 LINE SMOOTH",
"681 531 OFFCURVE",
"622 584 OFFCURVE",
"521 584 CURVE SMOOTH",
"50 584 LINE",
"45 557 LINE",
"516 557 LINE SMOOTH",
"604 557 OFFCURVE",
"649 518 OFFCURVE",
"649 416 CURVE SMOOTH",
"649 0 LINE"
);
},
{
closed = 1;
nodes = (
"101 0 LINE",
"101 355 LINE",
"69 350 LINE",
"69 0 LINE"
);
}
);
width = 766;
},
{
layerId = "3FB868F8-5CDC-4A46-BA32-95627737ABE0";
paths = (
{
closed = 1;
nodes = (
"789 0 LINE",
"789 382 LINE SMOOTH",
"789 533 OFFCURVE",
"704 609 OFFCURVE",
"537 609 CURVE SMOOTH",
"70 609 LINE",
"50 451 LINE",
"528 451 LINE SMOOTH",
"571 451 OFFCURVE",
"597 427 OFFCURVE",
"597 379 CURVE SMOOTH",
"597 0 LINE"
);
},
{
closed = 1;
nodes = (
"252 0 LINE",
"252 326 LINE",
"60 316 LINE",
"60 0 LINE"
);
}
);
width = 854;
},
{
layerId = "BD31AAF9-E65B-4A30-ACC0-7018B0C27C60";
paths = (
{
closed = 1;
nodes = (
"506 0 LINE",
"506 419 LINE SMOOTH",
"506 527 OFFCURVE",
"449 584 OFFCURVE",
"343 584 CURVE SMOOTH",
"55 584 LINE",
"50 557 LINE",
"338 557 LINE SMOOTH",
"431 557 OFFCURVE",
"474 511 OFFCURVE",
"474 416 CURVE SMOOTH",
"474 0 LINE"
);
},
{
closed = 1;
nodes = (
"101 0 LINE",
"101 355 LINE",
"69 350 LINE",
"69 0 LINE"
);
}
);
width = 556;
},
{
layerId = "AD6F6DAA-2D58-4E1D-98AF-ACAAF76D7B9E";
paths = (
{
closed = 1;
nodes = (
"629 0 LINE",
"629 382 LINE SMOOTH",
"629 533 OFFCURVE",
"544 609 OFFCURVE",
"377 609 CURVE SMOOTH",
"70 609 LINE",
"50 451 LINE",
"368 451 LINE SMOOTH",
"411 451 OFFCURVE",
"437 427 OFFCURVE",
"437 379 CURVE SMOOTH",
"437 0 LINE"
);
},
{
closed = 1;
nodes = (
"252 0 LINE",
"252 326 LINE",
"60 316 LINE",
"60 0 LINE"
);
}
);
width = 689;
}
);
note = hewide;
unicode = FB23;
},
{
glyphname = "widekaf-hb";
lastChange = "2019-06-10 15:18:56 +0000";
layers = (
{
layerId = "1F954AD7-537E-453D-9D07-161C7E95D0AA";
paths = (
{
closed = 1;
nodes = (
"371 0 LINE SMOOTH",
"527 0 OFFCURVE",
"609 100 OFFCURVE",
"609 292 CURVE SMOOTH",
"609 484 OFFCURVE",
"527 584 OFFCURVE",
"371 584 CURVE SMOOTH",
"37 584 LINE",
"32 557 LINE",
"371 557 LINE SMOOTH",
"505 557 OFFCURVE",
"575 466 OFFCURVE",
"575 292 CURVE SMOOTH",
"575 118 OFFCURVE",
"505 27 OFFCURVE",
"371 27 CURVE SMOOTH",
"32 27 LINE",
"32 0 LINE"
);
}
);
width = 650;
},
{
layerId = "3FB868F8-5CDC-4A46-BA32-95627737ABE0";
paths = (
{
closed = 1;
nodes = (
"403 0 LINE SMOOTH",
"597 0 OFFCURVE",
"702 110 OFFCURVE",
"702 297 CURVE SMOOTH",
"702 493 OFFCURVE",
"597 609 OFFCURVE",
"403 609 CURVE SMOOTH",
"45 609 LINE",
"25 451 LINE",
"403 451 LINE SMOOTH",
"475 451 OFFCURVE",
"507 394 OFFCURVE",
"507 297 CURVE SMOOTH",
"507 210 OFFCURVE",
"475 158 OFFCURVE",
"403 158 CURVE SMOOTH",
"25 158 LINE",
"25 0 LINE"
);
}
);
width = 727;
},
{
layerId = "BD31AAF9-E65B-4A30-ACC0-7018B0C27C60";
paths = (
{
closed = 1;
nodes = (
"211 0 LINE SMOOTH",
"367 0 OFFCURVE",
"449 100 OFFCURVE",
"449 292 CURVE SMOOTH",
"449 484 OFFCURVE",
"367 584 OFFCURVE",
"211 584 CURVE SMOOTH",
"67 584 LINE",
"62 557 LINE",
"211 557 LINE SMOOTH",
"345 557 OFFCURVE",
"415 466 OFFCURVE",
"415 292 CURVE SMOOTH",
"415 118 OFFCURVE",
"345 27 OFFCURVE",
"211 27 CURVE SMOOTH",
"62 27 LINE",
"62 0 LINE"
);
}
);
width = 506;
},
{
layerId = "AD6F6DAA-2D58-4E1D-98AF-ACAAF76D7B9E";
paths = (
{
closed = 1;
nodes = (
"233 0 LINE SMOOTH",
"427 0 OFFCURVE",
"532 110 OFFCURVE",
"532 297 CURVE SMOOTH",
"532 493 OFFCURVE",
"427 609 OFFCURVE",
"233 609 CURVE SMOOTH",
"65 609 LINE",
"45 451 LINE",
"233 451 LINE SMOOTH",
"305 451 OFFCURVE",
"337 394 OFFCURVE",
"337 297 CURVE SMOOTH",
"337 210 OFFCURVE",
"305 158 OFFCURVE",
"233 158 CURVE SMOOTH",
"45 158 LINE",
"45 0 LINE"
);
}
);
width = 567;
}
);
note = kafwide;
unicode = FB24;
},
{
glyphname = "widelamed-hb";
lastChange = "2019-06-10 15:18:11 +0000";
layers = (
{
layerId = "1F954AD7-537E-453D-9D07-161C7E95D0AA";
paths = (
{
closed = 1;
nodes = (
"371 0 LINE",
"561 557 LINE",
"561 584 LINE",
"36 584 LINE",
"36 760 LINE",
"10 755 LINE",
"10 557 LINE",
"535 557 LINE",
"345 0 LINE"
);
}
);
width = 601;
},
{
layerId = "3FB868F8-5CDC-4A46-BA32-95627737ABE0";
paths = (
{
closed = 1;
nodes = (
"497 0 LINE",
"696 499 LINE",
"696 609 LINE",
"196 609 LINE",
"196 760 LINE",
"4 740 LINE",
"4 451 LINE",
"484 451 LINE",
"296 0 LINE"
);
}
);
width = 716;
},
{
layerId = "BD31AAF9-E65B-4A30-ACC0-7018B0C27C60";
paths = (
{
closed = 1;
nodes = (
"67 760 LINE",
"35 755 LINE",
"35 557 LINE",
"400 557 LINE",
"220 0 LINE",
"252 0 LINE",
"432 557 LINE",
"429 584 LINE",
"67 584 LINE"
);
}
);
width = 461;
},
{
layerId = "AD6F6DAA-2D58-4E1D-98AF-ACAAF76D7B9E";
paths = (
{
closed = 1;
nodes = (
"212 760 LINE",
"20 740 LINE",
"20 451 LINE",
"330 451 LINE",
"162 0 LINE",
"363 0 LINE",
"542 499 LINE",
"532 609 LINE",
"212 609 LINE"
);
}
);
width = 562;
}
);
note = lamedwide;
unicode = FB25;
},
{
glyphname = "finalwidemem-hb";
lastChange = "2019-06-10 15:18:39 +0000";
layers = (
{
layerId = "1F954AD7-537E-453D-9D07-161C7E95D0AA";
paths = (
{
closed = 1;
nodes = (
"37 584 LINE",
"32 557 LINE",
"115 557 LINE",
"106 550 OFFCURVE",
"102 528 OFFCURVE",
"102 509 CURVE SMOOTH",
"102 0 LINE",
"706 0 LINE",
"706 419 LINE SMOOTH",
"706 527 OFFCURVE",
"649 584 OFFCURVE",
"543 584 CURVE SMOOTH"
);
},
{
closed = 1;
nodes = (
"134 27 LINE",
"134 509 LINE SMOOTH",
"134 528 OFFCURVE",
"136 548 OFFCURVE",
"139 557 CURVE",
"538 557 LINE SMOOTH",
"631 557 OFFCURVE",
"674 511 OFFCURVE",
"674 416 CURVE SMOOTH",
"674 27 LINE"
);
}
);
width = 758;
},
{
layerId = "3FB868F8-5CDC-4A46-BA32-95627737ABE0";
paths = (
{
closed = 1;
nodes = (
"55 609 LINE",
"35 451 LINE",
"145 451 LINE",
"96 427 OFFCURVE",
"85 366 OFFCURVE",
"85 336 CURVE SMOOTH",
"85 0 LINE",
"819 0 LINE",
"819 382 LINE SMOOTH",
"819 533 OFFCURVE",
"734 609 OFFCURVE",
"567 609 CURVE SMOOTH"
);
},
{
closed = 1;
nodes = (
"277 158 LINE",
"277 384 LINE SMOOTH",
"277 406 OFFCURVE",
"277 429 OFFCURVE",
"287 451 CURVE",
"558 451 LINE SMOOTH",
"601 451 OFFCURVE",
"627 427 OFFCURVE",
"627 379 CURVE SMOOTH",
"627 158 LINE"
);
}
);
width = 854;
},
{
layerId = "BD31AAF9-E65B-4A30-ACC0-7018B0C27C60";
paths = (
{
closed = 1;
nodes = (
"47 584 LINE",
"42 557 LINE",
"125 557 LINE",
"116 550 OFFCURVE",
"112 528 OFFCURVE",
"112 509 CURVE SMOOTH",
"112 0 LINE",
"566 0 LINE",
"566 419 LINE SMOOTH",
"566 527 OFFCURVE",
"509 584 OFFCURVE",
"403 584 CURVE SMOOTH"
);
},
{
closed = 1;
nodes = (
"144 27 LINE",
"144 509 LINE SMOOTH",
"144 528 OFFCURVE",
"146 548 OFFCURVE",
"149 557 CURVE",
"398 557 LINE SMOOTH",
"491 557 OFFCURVE",
"534 511 OFFCURVE",
"534 416 CURVE SMOOTH",
"534 27 LINE"
);
}
);
width = 623;
},
{
layerId = "AD6F6DAA-2D58-4E1D-98AF-ACAAF76D7B9E";
paths = (
{
closed = 1;
nodes = (
"45 609 LINE",
"25 451 LINE",
"135 451 LINE",
"86 427 OFFCURVE",
"75 366 OFFCURVE",
"75 336 CURVE SMOOTH",
"75 0 LINE",
"649 0 LINE",
"649 382 LINE SMOOTH",
"649 533 OFFCURVE",
"564 609 OFFCURVE",
"397 609 CURVE SMOOTH"
);
},
{
closed = 1;
nodes = (
"267 158 LINE",
"267 384 LINE SMOOTH",
"267 406 OFFCURVE",
"267 429 OFFCURVE",
"277 451 CURVE",
"388 451 LINE SMOOTH",
"431 451 OFFCURVE",
"457 427 OFFCURVE",
"457 379 CURVE SMOOTH",
"457 158 LINE"
);
}
);
width = 704;
}
);
note = finalmemwide;
unicode = FB26;
},
{
glyphname = "wideresh-hb";
lastChange = "2019-06-10 15:18:43 +0000";
layers = (
{
layerId = "1F954AD7-537E-453D-9D07-161C7E95D0AA";
paths = (
{
closed = 1;
nodes = (
"601 0 LINE",
"601 419 LINE SMOOTH",
"601 531 OFFCURVE",
"542 584 OFFCURVE",
"441 584 CURVE SMOOTH",
"50 584 LINE",
"45 557 LINE",
"436 557 LINE SMOOTH",
"524 557 OFFCURVE",
"569 518 OFFCURVE",
"569 416 CURVE SMOOTH",
"569 0 LINE"
);
}
);
width = 637;
},
{
layerId = "3FB868F8-5CDC-4A46-BA32-95627737ABE0";
paths = (
{
closed = 1;
nodes = (
"689 0 LINE",
"689 382 LINE SMOOTH",
"689 533 OFFCURVE",
"604 609 OFFCURVE",
"437 609 CURVE SMOOTH",
"50 609 LINE",
"30 451 LINE",
"428 451 LINE SMOOTH",
"471 451 OFFCURVE",
"497 427 OFFCURVE",
"497 379 CURVE SMOOTH",
"497 0 LINE"
);
}
);
width = 747;
},
{
layerId = "BD31AAF9-E65B-4A30-ACC0-7018B0C27C60";
paths = (
{
closed = 1;
nodes = (
"413 0 LINE",
"413 419 LINE SMOOTH",
"413 527 OFFCURVE",
"356 584 OFFCURVE",
"250 584 CURVE SMOOTH",
"43 584 LINE",
"38 557 LINE",
"245 557 LINE SMOOTH",
"338 557 OFFCURVE",
"381 511 OFFCURVE",
"381 416 CURVE SMOOTH",
"381 0 LINE"
);
}
);
width = 472;
},
{
layerId = "AD6F6DAA-2D58-4E1D-98AF-ACAAF76D7B9E";
paths = (
{
closed = 1;
nodes = (
"489 0 LINE",
"489 382 LINE SMOOTH",
"489 533 OFFCURVE",
"404 609 OFFCURVE",
"237 609 CURVE SMOOTH",
"45 609 LINE",
"25 451 LINE",
"228 451 LINE SMOOTH",
"271 451 OFFCURVE",
"297 427 OFFCURVE",
"297 379 CURVE SMOOTH",
"297 0 LINE"
);
}
);
width = 547;
}
);
note = reshwide;
unicode = FB27;
},
{
glyphname = "widetav-hb";
lastChange = "2019-06-25 19:03:32 +0000";
layers = (
{
layerId = "1F954AD7-537E-453D-9D07-161C7E95D0AA";
paths = (
{
closed = 1;
nodes = (
"768 0 LINE",
"768 419 LINE SMOOTH",
"768 527 OFFCURVE",
"711 584 OFFCURVE",
"605 584 CURVE SMOOTH",
"160 584 LINE",
"160 557 LINE",
"600 557 LINE SMOOTH",
"693 557 OFFCURVE",
"736 511 OFFCURVE",
"736 416 CURVE SMOOTH",
"736 0 LINE"
);
},
{
closed = 1;
nodes = (
"81 0 LINE SMOOTH",
"152 0 OFFCURVE",
"192 44 OFFCURVE",
"192 120 CURVE SMOOTH",
"192 572 LINE",
"160 572 LINE",
"160 134 LINE SMOOTH",
"160 60 OFFCURVE",
"136 27 OFFCURVE",
"81 27 CURVE SMOOTH",
"45 27 LINE",
"40 0 LINE"
);
},
{
closed = 1;
nodes = (
"170 557 LINE",
"170 584 LINE",
"75 584 LINE",
"70 557 LINE"
);
}
);
width = 782;
},
{
layerId = "3FB868F8-5CDC-4A46-BA32-95627737ABE0";
paths = (
{
closed = 1;
nodes = (
"891 0 LINE",
"891 382 LINE SMOOTH",
"891 533 OFFCURVE",
"806 609 OFFCURVE",
"639 609 CURVE SMOOTH",
"138 609 LINE",
"138 451 LINE",
"630 451 LINE SMOOTH",
"673 451 OFFCURVE",
"699 427 OFFCURVE",
"699 379 CURVE SMOOTH",
"699 0 LINE"
);
},
{
closed = 1;
nodes = (
"132 0 LINE SMOOTH",
"262 0 OFFCURVE",
"330 76 OFFCURVE",
"330 221 CURVE SMOOTH",
"330 574 LINE",
"138 574 LINE",
"138 211 LINE SMOOTH",
"138 176 OFFCURVE",
"122 158 OFFCURVE",
"91 158 CURVE SMOOTH",
"55 158 LINE",
"35 0 LINE"
);
},
{
closed = 1;
nodes = (
"259 451 LINE",
"259 609 LINE",
"77 609 LINE",
"57 451 LINE"
);
}
);
width = 946;
},
{
layerId = "BD31AAF9-E65B-4A30-ACC0-7018B0C27C60";
paths = (
{
closed = 1;
nodes = (
"568 0 LINE",
"568 419 LINE SMOOTH",
"568 527 OFFCURVE",
"511 584 OFFCURVE",
"405 584 CURVE SMOOTH",
"160 584 LINE",
"160 557 LINE",
"400 557 LINE SMOOTH",
"493 557 OFFCURVE",
"536 511 OFFCURVE",
"536 416 CURVE SMOOTH",
"536 0 LINE"
);
},
{
closed = 1;
nodes = (
"81 0 LINE SMOOTH",
"152 0 OFFCURVE",
"192 44 OFFCURVE",
"192 120 CURVE SMOOTH",
"192 572 LINE",
"160 572 LINE",
"160 134 LINE SMOOTH",
"160 60 OFFCURVE",
"136 27 OFFCURVE",
"81 27 CURVE SMOOTH",
"45 27 LINE",
"40 0 LINE"
);
},
{
closed = 1;
nodes = (
"175 557 LINE",
"175 584 LINE",
"82 584 LINE",
"77 557 LINE"
);
}
);
width = 637;
},
{
layerId = "AD6F6DAA-2D58-4E1D-98AF-ACAAF76D7B9E";
paths = (
{
closed = 1;
nodes = (
"681 0 LINE",
"681 382 LINE SMOOTH",
"681 533 OFFCURVE",
"596 609 OFFCURVE",
"429 609 CURVE SMOOTH",
"128 609 LINE",
"128 451 LINE",
"420 451 LINE SMOOTH",
"463 451 OFFCURVE",
"489 427 OFFCURVE",
"489 379 CURVE SMOOTH",
"489 0 LINE"
);
},
{
closed = 1;
nodes = (
"122 0 LINE SMOOTH",
"252 0 OFFCURVE",
"320 76 OFFCURVE",
"320 221 CURVE SMOOTH",
"320 574 LINE",
"128 574 LINE",
"128 211 LINE SMOOTH",
"128 176 OFFCURVE",
"112 158 OFFCURVE",
"81 158 CURVE SMOOTH",
"45 158 LINE",
"25 0 LINE"
);
},
{
closed = 1;
nodes = (
"237 451 LINE",
"237 609 LINE",
"65 609 LINE",
"45 451 LINE"
);
}
);
width = 731;
}
);
note = tavwide;
unicode = FB28;
},
{
glyphname = hyphen;
lastChange = "2016-07-07 18:36:03 +0000";
layers = (
{
layerId = "3FB868F8-5CDC-4A46-BA32-95627737ABE0";
paths = (
{
closed = 1;
nodes = (
"297 192 LINE",
"297 344 LINE",
"21 344 LINE",
"21 192 LINE"
);
}
);
width = 318;
},
{
layerId = "AD6F6DAA-2D58-4E1D-98AF-ACAAF76D7B9E";
paths = (
{
closed = 1;
nodes = (
"296 192 LINE",
"296 344 LINE",
"29 344 LINE",
"29 192 LINE"
);
}
);
width = 325;
},
{
layerId = "1F954AD7-537E-453D-9D07-161C7E95D0AA";
paths = (
{
closed = 1;
nodes = (
"282 259 LINE",
"282 284 LINE",
"40 284 LINE",
"40 259 LINE"
);
}
);
width = 322;
},
{
layerId = "BD31AAF9-E65B-4A30-ACC0-7018B0C27C60";
paths = (
{
closed = 1;
nodes = (
"237 259 LINE",
"237 286 LINE",
"26 286 LINE",
"26 259 LINE"
);
}
);
width = 263;
}
);
leftKerningGroup = hyphen.right;
rightKerningGroup = hyphen.left;
unicode = 002D;
subCategory = Dash;
},
{
glyphname = hyphentwo;
lastChange = "2016-07-07 18:36:03 +0000";
layers = (
{
layerId = "3FB868F8-5CDC-4A46-BA32-95627737ABE0";
paths = (
{
closed = 1;
nodes = (
"297 192 LINE",
"297 344 LINE",
"21 344 LINE",
"21 192 LINE"
);
}
);
width = 318;
},
{
layerId = "AD6F6DAA-2D58-4E1D-98AF-ACAAF76D7B9E";
paths = (
{
closed = 1;
nodes = (
"296 192 LINE",
"296 344 LINE",
"29 344 LINE",
"29 192 LINE"
);
}
);
width = 325;
},
{
layerId = "1F954AD7-537E-453D-9D07-161C7E95D0AA";
paths = (
{
closed = 1;
nodes = (
"282 259 LINE",
"282 284 LINE",
"40 284 LINE",
"40 259 LINE"
);
}
);
width = 322;
},
{
layerId = "BD31AAF9-E65B-4A30-ACC0-7018B0C27C60";
paths = (
{
closed = 1;
nodes = (
"237 259 LINE",
"237 286 LINE",
"26 286 LINE",
"26 259 LINE"
);
}
);
width = 263;
}
);
widthMetricsKey = "=hyphen";
unicode = 2010;
subCategory = Dash;
},
{
glyphname = "nunhafukha-hb";
lastChange = "2016-07-07 18:36:03 +0000";
layers = (
{
layerId = "1F954AD7-537E-453D-9D07-161C7E95D0AA";
paths = (
{
closed = 1;
nodes = (
"315 0 LINE",
"315 27 LINE",
"111 27 LINE",
"111 416 LINE SMOOTH",
"111 518 OFFCURVE",
"162 557 OFFCURVE",
"250 557 CURVE SMOOTH",
"280 557 LINE",
"280 584 LINE",
"245 584 LINE SMOOTH",
"144 584 OFFCURVE",
"85 531 OFFCURVE",
"85 419 CURVE SMOOTH",
"85 0 LINE"
);
}
);
width = 350;
},
{
layerId = "3FB868F8-5CDC-4A46-BA32-95627737ABE0";
paths = (
{
closed = 1;
nodes = (
"449 0 LINE",
"449 158 LINE",
"262 158 LINE",
"262 416 LINE SMOOTH",
"262 440 OFFCURVE",
"271 451 OFFCURVE",
"296 451 CURVE SMOOTH",
"416 451 LINE",
"416 609 LINE",
"243 609 LINE SMOOTH",
"126 609 OFFCURVE",
"70 540 OFFCURVE",
"70 435 CURVE SMOOTH",
"70 0 LINE"
);
}
);
width = 474;
},
{
layerId = "BD31AAF9-E65B-4A30-ACC0-7018B0C27C60";
paths = (
{
closed = 1;
nodes = (
"210 0 LINE",
"210 29 LINE",
"96 29 LINE",
"96 479 LINE",
"96 537 OFFCURVE",
"109 557 OFFCURVE",
"152 557 CURVE SMOOTH",
"184 557 LINE",
"184 584 LINE",
"147 584 LINE SMOOTH",
"93 584 OFFCURVE",
"70 553 OFFCURVE",
"70 487 CURVE SMOOTH",
"70 0 LINE"
);
}
);
width = 245;
},
{
layerId = "AD6F6DAA-2D58-4E1D-98AF-ACAAF76D7B9E";
paths = (
{
closed = 1;
nodes = (
"338 0 LINE",
"338 146 LINE",
"220 146 LINE",
"220 409 LINE SMOOTH",
"220 445 OFFCURVE",
"233 463 OFFCURVE",
"260 463 CURVE SMOOTH",
"306 463 LINE",
"306 609 LINE",
"204 609 LINE SMOOTH",
"95 609 OFFCURVE",
"50 547 OFFCURVE",
"50 417 CURVE SMOOTH",
"50 0 LINE"
);
}
);
width = 358;
}
);
note = uni05C6;
unicode = 05C6;
},
{
glyphname = "paseq-hb";
lastChange = "2016-07-07 18:36:03 +0000";
layers = (
{
layerId = "1F954AD7-537E-453D-9D07-161C7E95D0AA";
paths = (
{
closed = 1;
nodes = (
"253 -251 LINE",
"278 -251 LINE",
"278 763 LINE",
"253 763 LINE"
);
}
);
width = 535;
},
{
layerId = "3FB868F8-5CDC-4A46-BA32-95627737ABE0";
paths = (
{
closed = 1;
nodes = (
"189 -218 LINE",
"320 -218 LINE",
"320 760 LINE",
"189 760 LINE"
);
}
);
width = 509;
},
{
layerId = "BD31AAF9-E65B-4A30-ACC0-7018B0C27C60";
paths = (
{
closed = 1;
nodes = (
"176 -242 LINE",
"202 -242 LINE",
"202 761 LINE",
"176 761 LINE"
);
}
);
width = 378;
},
{
layerId = "AD6F6DAA-2D58-4E1D-98AF-ACAAF76D7B9E";
paths = (
{
closed = 1;
nodes = (
"189 -218 LINE",
"320 -218 LINE",
"320 760 LINE",
"189 760 LINE"
);
}
);
width = 509;
}
);
note = paseq;
unicode = 05C0;
},
{
glyphname = "sofpasuq-hb";
lastChange = "2016-07-07 18:36:03 +0000";
layers = (
{
layerId = "1F954AD7-537E-453D-9D07-161C7E95D0AA";
paths = (
{
closed = 1;
nodes = (
"85 6 OFFCURVE",
"90 -8 OFFCURVE",
"110 -8 CURVE SMOOTH",
"134 -8 OFFCURVE",
"137 6 OFFCURVE",
"137 23 CURVE SMOOTH",
"137 39 OFFCURVE",
"134 54 OFFCURVE",
"110 54 CURVE SMOOTH",
"90 54 OFFCURVE",
"85 39 OFFCURVE",
"85 23 CURVE SMOOTH"
);
},
{
closed = 1;
nodes = (
"85 484 OFFCURVE",
"90 470 OFFCURVE",
"110 470 CURVE SMOOTH",
"134 470 OFFCURVE",
"137 484 OFFCURVE",
"137 501 CURVE SMOOTH",
"137 517 OFFCURVE",
"134 532 OFFCURVE",
"110 532 CURVE SMOOTH",
"90 532 OFFCURVE",
"85 517 OFFCURVE",
"85 501 CURVE SMOOTH"
);
}
);
width = 220;
},
{
layerId = "3FB868F8-5CDC-4A46-BA32-95627737ABE0";
paths = (
{
closed = 1;
nodes = (
"42 15 OFFCURVE",
"89 -12 OFFCURVE",
"146 -12 CURVE SMOOTH",
"200 -12 OFFCURVE",
"246 15 OFFCURVE",
"246 81 CURVE SMOOTH",
"246 150 OFFCURVE",
"200 175 OFFCURVE",
"146 175 CURVE SMOOTH",
"89 175 OFFCURVE",
"42 150 OFFCURVE",
"42 81 CURVE"
);
},
{
closed = 1;
nodes = (
"42 400 OFFCURVE",
"89 373 OFFCURVE",
"146 373 CURVE SMOOTH",
"200 373 OFFCURVE",
"246 400 OFFCURVE",
"246 467 CURVE SMOOTH",
"246 535 OFFCURVE",
"200 560 OFFCURVE",
"146 560 CURVE SMOOTH",
"89 560 OFFCURVE",
"42 535 OFFCURVE",
"42 467 CURVE"
);
}
);
width = 289;
},
{
layerId = "BD31AAF9-E65B-4A30-ACC0-7018B0C27C60";
paths = (
{
closed = 1;
nodes = (
"65 12 OFFCURVE",
"67 -5 OFFCURVE",
"90 -5 CURVE SMOOTH",
"112 -5 OFFCURVE",
"116 11 OFFCURVE",
"116 31 CURVE SMOOTH",
"116 50 OFFCURVE",
"112 66 OFFCURVE",
"90 66 CURVE SMOOTH",
"69 66 OFFCURVE",
"65 50 OFFCURVE",
"65 31 CURVE SMOOTH"
);
},
{
closed = 1;
nodes = (
"65 476 OFFCURVE",
"70 461 OFFCURVE",
"90 461 CURVE SMOOTH",
"108 461 OFFCURVE",
"116 474 OFFCURVE",
"116 497 CURVE SMOOTH",
"116 521 OFFCURVE",
"109 532 OFFCURVE",
"91 532 CURVE SMOOTH",
"70 532 OFFCURVE",
"65 516 OFFCURVE",
"65 496 CURVE SMOOTH"
);
}
);
width = 180;
},
{
layerId = "AD6F6DAA-2D58-4E1D-98AF-ACAAF76D7B9E";
paths = (
{
closed = 1;
nodes = (
"49 22 OFFCURVE",
"84 -12 OFFCURVE",
"142 -12 CURVE SMOOTH",
"198 -12 OFFCURVE",
"231 22 OFFCURVE",
"231 81 CURVE SMOOTH",
"231 141 OFFCURVE",
"200 175 OFFCURVE",
"142 175 CURVE SMOOTH",
"81 175 OFFCURVE",
"49 141 OFFCURVE",
"49 81 CURVE SMOOTH"
);
},
{
closed = 1;
nodes = (
"49 408 OFFCURVE",
"84 374 OFFCURVE",
"142 374 CURVE SMOOTH",
"198 374 OFFCURVE",
"231 408 OFFCURVE",
"231 467 CURVE SMOOTH",
"231 527 OFFCURVE",
"200 561 OFFCURVE",
"142 561 CURVE SMOOTH",
"81 561 OFFCURVE",
"49 527 OFFCURVE",
"49 467 CURVE SMOOTH"
);
}
);
width = 280;
}
);
note = sofpasuq;
unicode = 05C3;
},
{
glyphname = "geresh-hb";
lastChange = "2019-06-14 12:26:45 +0000";
layers = (
{
layerId = "1F954AD7-537E-453D-9D07-161C7E95D0AA";
paths = (
{
closed = 1;
nodes = (
"46 339 LINE",
"78 408 OFFCURVE",
"102 493 OFFCURVE",
"114 575 CURVE",
"114 584 LINE",
"86 584 LINE",
"79 512 OFFCURVE",
"54 409 OFFCURVE",
"23 339 CURVE"
);
}
);
width = 149;
},
{
layerId = "3FB868F8-5CDC-4A46-BA32-95627737ABE0";
paths = (
{
closed = 1;
nodes = (
"146 324 LINE",
"179 398 OFFCURVE",
"214 526 OFFCURVE",
"232 598 CURVE",
"225 609 LINE",
"58 609 LINE",
"49 529 OFFCURVE",
"29 415 OFFCURVE",
"10 324 CURVE"
);
}
);
width = 247;
},
{
layerId = "BD31AAF9-E65B-4A30-ACC0-7018B0C27C60";
paths = (
{
closed = 1;
nodes = (
"43 365 LINE",
"68 437 OFFCURVE",
"85 506 OFFCURVE",
"99 573 CURVE",
"98 584 LINE",
"69 584 LINE",
"62 512 OFFCURVE",
"47 448 OFFCURVE",
"25 365 CURVE"
);
}
);
width = 135;
},
{
layerId = "AD6F6DAA-2D58-4E1D-98AF-ACAAF76D7B9E";
paths = (
{
closed = 1;
nodes = (
"159 324 LINE",
"188 397 OFFCURVE",
"209 488 OFFCURVE",
"224 598 CURVE",
"219 609 LINE",
"61 609 LINE",
"58 542 OFFCURVE",
"37 394 OFFCURVE",
"25 324 CURVE"
);
}
);
width = 259;
}
);
unicode = 05F3;
},
{
glyphname = "gershayim-hb";
lastChange = "2019-06-14 12:26:53 +0000";
layers = (
{
layerId = "1F954AD7-537E-453D-9D07-161C7E95D0AA";
paths = (
{
closed = 1;
nodes = (
"46 339 LINE",
"78 408 OFFCURVE",
"102 493 OFFCURVE",
"114 575 CURVE",
"114 584 LINE",
"86 584 LINE",
"79 512 OFFCURVE",
"54 409 OFFCURVE",
"23 339 CURVE"
);
},
{
closed = 1;
nodes = (
"186 339 LINE",
"218 408 OFFCURVE",
"242 493 OFFCURVE",
"254 575 CURVE",
"254 584 LINE",
"226 584 LINE",
"219 512 OFFCURVE",
"194 409 OFFCURVE",
"163 339 CURVE"
);
}
);
width = 287;
},
{
layerId = "3FB868F8-5CDC-4A46-BA32-95627737ABE0";
paths = (
{
closed = 1;
nodes = (
"146 324 LINE",
"179 398 OFFCURVE",
"214 526 OFFCURVE",
"232 598 CURVE",
"225 609 LINE",
"58 609 LINE",
"49 529 OFFCURVE",
"29 415 OFFCURVE",
"10 324 CURVE"
);
},
{
closed = 1;
nodes = (
"395 324 LINE",
"428 398 OFFCURVE",
"463 526 OFFCURVE",
"481 598 CURVE",
"474 609 LINE",
"307 609 LINE",
"298 529 OFFCURVE",
"278 415 OFFCURVE",
"259 324 CURVE"
);
}
);
width = 496;
},
{
layerId = "BD31AAF9-E65B-4A30-ACC0-7018B0C27C60";
paths = (
{
closed = 1;
nodes = (
"43 365 LINE",
"68 437 OFFCURVE",
"85 506 OFFCURVE",
"99 573 CURVE",
"98 584 LINE",
"69 584 LINE",
"62 512 OFFCURVE",
"47 448 OFFCURVE",
"25 365 CURVE"
);
},
{
closed = 1;
nodes = (
"151 365 LINE",
"176 437 OFFCURVE",
"193 506 OFFCURVE",
"207 573 CURVE",
"206 584 LINE",
"177 584 LINE",
"170 512 OFFCURVE",
"155 448 OFFCURVE",
"133 365 CURVE"
);
}
);
width = 243;
},
{
layerId = "AD6F6DAA-2D58-4E1D-98AF-ACAAF76D7B9E";
paths = (
{
closed = 1;
nodes = (
"159 324 LINE",
"188 397 OFFCURVE",
"209 488 OFFCURVE",
"224 598 CURVE",
"219 609 LINE",
"61 609 LINE",
"58 542 OFFCURVE",
"37 394 OFFCURVE",
"25 324 CURVE"
);
},
{
closed = 1;
nodes = (
"388 324 LINE",
"417 397 OFFCURVE",
"439 488 OFFCURVE",
"454 598 CURVE",
"448 609 LINE",
"291 609 LINE",
"284 519 OFFCURVE",
"271 421 OFFCURVE",
"254 324 CURVE"
);
}
);
width = 479;
}
);
unicode = 05F4;
},
{
glyphname = "maqaf-hb";
lastChange = "2019-06-10 15:57:43 +0000";
layers = (
{
layerId = "1F954AD7-537E-453D-9D07-161C7E95D0AA";
paths = (
{
closed = 1;
nodes = (
"272 557 LINE",
"272 584 LINE",
"30 584 LINE",
"30 557 LINE"
);
}
);
width = 312;
},
{
layerId = "3FB868F8-5CDC-4A46-BA32-95627737ABE0";
paths = (
{
closed = 1;
nodes = (
"286 451 LINE",
"286 609 LINE",
"10 609 LINE",
"10 451 LINE"
);
}
);
width = 306;
},
{
layerId = "BD31AAF9-E65B-4A30-ACC0-7018B0C27C60";
paths = (
{
closed = 1;
nodes = (
"237 557 LINE",
"237 584 LINE",
"36 584 LINE",
"36 557 LINE"
);
}
);
width = 273;
},
{
layerId = "AD6F6DAA-2D58-4E1D-98AF-ACAAF76D7B9E";
paths = (
{
closed = 1;
nodes = (
"272 451 LINE",
"272 609 LINE",
"25 609 LINE",
"25 451 LINE"
);
}
);
width = 297;
}
);
unicode = 05BE;
},
{
glyphname = "alternativeplus-hb";
lastChange = "2016-07-07 18:36:03 +0000";
layers = (
{
layerId = "1F954AD7-537E-453D-9D07-161C7E95D0AA";
paths = (
{
closed = 1;
nodes = (
"297 583 LINE",
"273 583 LINE",
"273 365 LINE",
"55 365 LINE",
"55 341 LINE",
"515 341 LINE",
"515 365 LINE",
"297 365 LINE"
);
}
);
width = 570;
},
{
layerId = "3FB868F8-5CDC-4A46-BA32-95627737ABE0";
paths = (
{
closed = 1;
nodes = (
"348 640 LINE",
"217 640 LINE",
"217 461 LINE",
"35 461 LINE",
"35 330 LINE",
"530 330 LINE",
"530 461 LINE",
"348 461 LINE"
);
}
);
width = 566;
},
{
layerId = "BD31AAF9-E65B-4A30-ACC0-7018B0C27C60";
paths = (
{
closed = 1;
nodes = (
"257 583 LINE",
"233 583 LINE",
"233 365 LINE",
"55 365 LINE",
"55 341 LINE",
"435 341 LINE",
"435 365 LINE",
"257 365 LINE"
);
}
);
width = 490;
},
{
layerId = "AD6F6DAA-2D58-4E1D-98AF-ACAAF76D7B9E";
paths = (
{
closed = 1;
nodes = (
"309 640 LINE",
"178 640 LINE",
"178 461 LINE",
"36 461 LINE",
"36 330 LINE",
"451 330 LINE",
"451 461 LINE",
"309 461 LINE"
);
}
);
width = 487;
}
);
note = alt_plussign;
unicode = FB29;
},
{
glyphname = "shindot-hb";
lastChange = "2019-06-10 07:53:30 +0000";
layers = (
{
anchors = (
{
name = _topright;
position = "{72, 528}";
}
);
layerId = "1F954AD7-537E-453D-9D07-161C7E95D0AA";
paths = (
{
closed = 1;
nodes = (
"85 655 OFFCURVE",
"95 665 OFFCURVE",
"95 678 CURVE SMOOTH",
"95 690 OFFCURVE",
"85 700 OFFCURVE",
"73 700 CURVE SMOOTH",
"60 700 OFFCURVE",
"50 690 OFFCURVE",
"50 678 CURVE SMOOTH",
"50 665 OFFCURVE",
"60 655 OFFCURVE",
"73 655 CURVE SMOOTH"
);
}
);
width = 144;
},
{
anchors = (
{
name = _topright;
position = "{101, 553}";
}
);
layerId = "3FB868F8-5CDC-4A46-BA32-95627737ABE0";
paths = (
{
closed = 1;
nodes = (
"123 673 OFFCURVE",
"142 692 OFFCURVE",
"142 715 CURVE SMOOTH",
"142 738 OFFCURVE",
"123 757 OFFCURVE",
"100 757 CURVE SMOOTH",
"77 757 OFFCURVE",
"58 738 OFFCURVE",
"58 715 CURVE SMOOTH",
"58 692 OFFCURVE",
"77 673 OFFCURVE",
"100 673 CURVE SMOOTH"
);
}
);
width = 202;
},
{
anchors = (
{
name = _topright;
position = "{72, 528}";
}
);
layerId = "BD31AAF9-E65B-4A30-ACC0-7018B0C27C60";
paths = (
{
closed = 1;
nodes = (
"85 655 OFFCURVE",
"95 665 OFFCURVE",
"95 678 CURVE SMOOTH",
"95 690 OFFCURVE",
"85 700 OFFCURVE",
"73 700 CURVE SMOOTH",
"60 700 OFFCURVE",
"50 690 OFFCURVE",
"50 678 CURVE SMOOTH",
"50 665 OFFCURVE",
"60 655 OFFCURVE",
"73 655 CURVE SMOOTH"
);
}
);
width = 144;
},
{
anchors = (
{
name = _topright;
position = "{101, 553}";
}
);
layerId = "AD6F6DAA-2D58-4E1D-98AF-ACAAF76D7B9E";
paths = (
{
closed = 1;
nodes = (
"123 669 OFFCURVE",
"142 688 OFFCURVE",
"142 711 CURVE SMOOTH",
"142 734 OFFCURVE",
"123 753 OFFCURVE",
"100 753 CURVE SMOOTH",
"77 753 OFFCURVE",
"58 734 OFFCURVE",
"58 711 CURVE SMOOTH",
"58 688 OFFCURVE",
"77 669 OFFCURVE",
"100 669 CURVE SMOOTH"
);
}
);
width = 202;
}
);
note = shindot;
unicode = 05C1;
},
{
glyphname = "etnahtaleft-hb";
lastChange = "2016-07-07 18:36:03 +0000";
layers = (
{
anchors = (
{
name = _bottomleft;
position = "{114, 0}";
}
);
layerId = "1F954AD7-537E-453D-9D07-161C7E95D0AA";
paths = (
{
closed = 1;
nodes = (
"83 -202 LINE",
"83 -185 LINE SMOOTH",
"83 -158 OFFCURVE",
"92 -147 OFFCURVE",
"115 -147 CURVE SMOOTH",
"137 -147 OFFCURVE",
"146 -158 OFFCURVE",
"146 -185 CURVE SMOOTH",
"146 -202 LINE",
"171 -202 LINE",
"171 -185 LINE SMOOTH",
"171 -147 OFFCURVE",
"157 -129 OFFCURVE",
"127 -124 CURVE",
"127 -82 LINE",
"101 -82 LINE",
"101 -124 LINE",
"72 -129 OFFCURVE",
"58 -147 OFFCURVE",
"58 -185 CURVE SMOOTH",
"58 -202 LINE"
);
}
);
width = 229;
},
{
anchors = (
{
name = _bottomleft;
position = "{146, 0}";
}
);
layerId = "3FB868F8-5CDC-4A46-BA32-95627737ABE0";
paths = (
{
closed = 1;
nodes = (
"101 -238 LINE",
"101 -214 LINE SMOOTH",
"101 -178 OFFCURVE",
"113 -163 OFFCURVE",
"147 -163 CURVE SMOOTH",
"179 -163 OFFCURVE",
"191 -178 OFFCURVE",
"191 -214 CURVE SMOOTH",
"191 -238 LINE",
"243 -238 LINE",
"243 -213 LINE SMOOTH",
"243 -154 OFFCURVE",
"221 -125 OFFCURVE",
"172 -117 CURVE",
"172 -70 LINE",
"120 -70 LINE",
"120 -117 LINE",
"73 -125 OFFCURVE",
"50 -154 OFFCURVE",
"50 -213 CURVE SMOOTH",
"50 -238 LINE"
);
}
);
width = 293;
},
{
anchors = (
{
name = _bottomleft;
position = "{106, 0}";
}
);
layerId = "BD31AAF9-E65B-4A30-ACC0-7018B0C27C60";
paths = (
{
closed = 1;
nodes = (
"75 -202 LINE",
"75 -185 LINE SMOOTH",
"75 -158 OFFCURVE",
"84 -147 OFFCURVE",
"107 -147 CURVE SMOOTH",
"129 -147 OFFCURVE",
"138 -158 OFFCURVE",
"138 -185 CURVE SMOOTH",
"138 -202 LINE",
"163 -202 LINE",
"163 -185 LINE SMOOTH",
"163 -147 OFFCURVE",
"149 -129 OFFCURVE",
"119 -124 CURVE",
"119 -82 LINE",
"93 -82 LINE",
"93 -124 LINE",
"64 -129 OFFCURVE",
"50 -147 OFFCURVE",
"50 -185 CURVE SMOOTH",
"50 -202 LINE"
);
}
);
width = 213;
},
{
anchors = (
{
name = _bottomleft;
position = "{146, 0}";
}
);
layerId = "AD6F6DAA-2D58-4E1D-98AF-ACAAF76D7B9E";
paths = (
{
closed = 1;
nodes = (
"107 -217 LINE",
"107 -196 LINE SMOOTH",
"107 -165 OFFCURVE",
"117 -152 OFFCURVE",
"147 -152 CURVE SMOOTH",
"175 -152 OFFCURVE",
"186 -165 OFFCURVE",
"186 -196 CURVE SMOOTH",
"186 -217 LINE",
"231 -217 LINE",
"231 -195 LINE SMOOTH",
"231 -144 OFFCURVE",
"212 -118 OFFCURVE",
"169 -111 CURVE",
"169 -70 LINE",
"123 -70 LINE",
"123 -111 LINE",
"82 -118 OFFCURVE",
"62 -144 OFFCURVE",
"62 -195 CURVE SMOOTH",
"62 -217 LINE"
);
}
);
width = 293;
}
);
note = uni0591;
unicode = 0591;
},
{
glyphname = "segolta-hb";
lastChange = "2019-06-10 07:49:45 +0000";
layers = (
{
anchors = (
{
name = _topleft;
position = "{120, 528}";
}
);
layerId = "1F954AD7-537E-453D-9D07-161C7E95D0AA";
paths = (
{
closed = 1;
nodes = (
"132 744 OFFCURVE",
"142 754 OFFCURVE",
"142 767 CURVE SMOOTH",
"142 779 OFFCURVE",
"132 789 OFFCURVE",
"120 789 CURVE SMOOTH",
"107 789 OFFCURVE",
"97 779 OFFCURVE",
"97 767 CURVE SMOOTH",
"97 754 OFFCURVE",
"107 744 OFFCURVE",
"120 744 CURVE SMOOTH"
);
},
{
closed = 1;
nodes = (
"85 655 OFFCURVE",
"95 665 OFFCURVE",
"95 678 CURVE SMOOTH",
"95 690 OFFCURVE",
"85 700 OFFCURVE",
"73 700 CURVE SMOOTH",
"60 700 OFFCURVE",
"50 690 OFFCURVE",
"50 678 CURVE SMOOTH",
"50 665 OFFCURVE",
"60 655 OFFCURVE",
"73 655 CURVE SMOOTH"
);
},
{
closed = 1;
nodes = (
"180 655 OFFCURVE",
"190 665 OFFCURVE",
"190 678 CURVE SMOOTH",
"190 690 OFFCURVE",
"180 700 OFFCURVE",
"168 700 CURVE SMOOTH",
"155 700 OFFCURVE",
"145 690 OFFCURVE",
"145 678 CURVE SMOOTH",
"145 665 OFFCURVE",
"155 655 OFFCURVE",
"168 655 CURVE SMOOTH"
);
}
);
width = 239;
},
{
anchors = (
{
name = _topleft;
position = "{230, 553}";
}
);
layerId = "3FB868F8-5CDC-4A46-BA32-95627737ABE0";
paths = (
{
closed = 1;
nodes = (
"188 778 OFFCURVE",
"207 797 OFFCURVE",
"207 820 CURVE SMOOTH",
"207 843 OFFCURVE",
"188 862 OFFCURVE",
"165 862 CURVE SMOOTH",
"142 862 OFFCURVE",
"123 843 OFFCURVE",
"123 820 CURVE SMOOTH",
"123 797 OFFCURVE",
"142 778 OFFCURVE",
"165 778 CURVE SMOOTH"
);
},
{
closed = 1;
nodes = (
"123 672 OFFCURVE",
"142 691 OFFCURVE",
"142 714 CURVE SMOOTH",
"142 737 OFFCURVE",
"123 756 OFFCURVE",
"100 756 CURVE SMOOTH",
"77 756 OFFCURVE",
"58 737 OFFCURVE",
"58 714 CURVE SMOOTH",
"58 691 OFFCURVE",
"77 672 OFFCURVE",
"100 672 CURVE SMOOTH"
);
},
{
closed = 1;
nodes = (
"254 672 OFFCURVE",
"273 691 OFFCURVE",
"273 714 CURVE SMOOTH",
"273 737 OFFCURVE",
"254 756 OFFCURVE",
"231 756 CURVE SMOOTH",
"208 756 OFFCURVE",
"189 737 OFFCURVE",
"189 714 CURVE SMOOTH",
"189 691 OFFCURVE",
"208 672 OFFCURVE",
"231 672 CURVE SMOOTH"
);
}
);
width = 331;
},
{
anchors = (
{
name = _topleft;
position = "{110, 528}";
}
);
layerId = "BD31AAF9-E65B-4A30-ACC0-7018B0C27C60";
paths = (
{
closed = 1;
nodes = (
"122 744 OFFCURVE",
"132 754 OFFCURVE",
"132 767 CURVE SMOOTH",
"132 779 OFFCURVE",
"122 789 OFFCURVE",
"110 789 CURVE SMOOTH",
"97 789 OFFCURVE",
"87 779 OFFCURVE",
"87 767 CURVE SMOOTH",
"87 754 OFFCURVE",
"97 744 OFFCURVE",
"110 744 CURVE SMOOTH"
);
},
{
closed = 1;
nodes = (
"85 655 OFFCURVE",
"95 665 OFFCURVE",
"95 678 CURVE SMOOTH",
"95 690 OFFCURVE",
"85 700 OFFCURVE",
"73 700 CURVE SMOOTH",
"60 700 OFFCURVE",
"50 690 OFFCURVE",
"50 678 CURVE SMOOTH",
"50 665 OFFCURVE",
"60 655 OFFCURVE",
"73 655 CURVE SMOOTH"
);
},
{
closed = 1;
nodes = (
"160 655 OFFCURVE",
"170 665 OFFCURVE",
"170 678 CURVE SMOOTH",
"170 690 OFFCURVE",
"160 700 OFFCURVE",
"148 700 CURVE SMOOTH",
"135 700 OFFCURVE",
"125 690 OFFCURVE",
"125 678 CURVE SMOOTH",
"125 665 OFFCURVE",
"135 655 OFFCURVE",
"148 655 CURVE SMOOTH"
);
}
);
width = 219;
},
{
anchors = (
{
name = _topleft;
position = "{222, 553}";
}
);
layerId = "AD6F6DAA-2D58-4E1D-98AF-ACAAF76D7B9E";
paths = (
{
closed = 1;
nodes = (
"188 778 OFFCURVE",
"207 797 OFFCURVE",
"207 820 CURVE SMOOTH",
"207 843 OFFCURVE",
"188 862 OFFCURVE",
"165 862 CURVE SMOOTH",
"142 862 OFFCURVE",
"123 843 OFFCURVE",
"123 820 CURVE SMOOTH",
"123 797 OFFCURVE",
"142 778 OFFCURVE",
"165 778 CURVE SMOOTH"
);
},
{
closed = 1;
nodes = (
"123 672 OFFCURVE",
"142 691 OFFCURVE",
"142 714 CURVE SMOOTH",
"142 737 OFFCURVE",
"123 756 OFFCURVE",
"100 756 CURVE SMOOTH",
"77 756 OFFCURVE",
"58 737 OFFCURVE",
"58 714 CURVE SMOOTH",
"58 691 OFFCURVE",
"77 672 OFFCURVE",
"100 672 CURVE SMOOTH"
);
},
{
closed = 1;
nodes = (
"254 672 OFFCURVE",
"273 691 OFFCURVE",
"273 714 CURVE SMOOTH",
"273 737 OFFCURVE",
"254 756 OFFCURVE",
"231 756 CURVE SMOOTH",
"208 756 OFFCURVE",
"189 737 OFFCURVE",
"189 714 CURVE SMOOTH",
"189 691 OFFCURVE",
"208 672 OFFCURVE",
"231 672 CURVE SMOOTH"
);
}
);
width = 331;
}
);
note = uni0592;
unicode = 0592;
},
{
glyphname = "shalshelet-hb";
lastChange = "2016-07-07 18:36:03 +0000";
layers = (
{
anchors = (
{
name = _top;
position = "{94, 528}";
}
);
layerId = "1F954AD7-537E-453D-9D07-161C7E95D0AA";
paths = (
{
closed = 1;
nodes = (
"86 650 LINE",
"132 673 LINE",
"92 696 LINE",
"132 719 LINE",
"92 742 LINE",
"132 765 LINE",
"95 765 LINE",
"55 742 LINE",
"95 719 LINE",
"55 696 LINE",
"95 673 LINE",
"50 650 LINE"
);
}
);
width = 188;
},
{
anchors = (
{
name = _top;
position = "{129, 553}";
}
);
layerId = "3FB868F8-5CDC-4A46-BA32-95627737ABE0";
paths = (
{
closed = 1;
nodes = (
"114 659 LINE",
"208 705 LINE",
"125 751 LINE",
"208 798 LINE",
"125 844 LINE",
"208 890 LINE",
"133 890 LINE",
"50 844 LINE",
"133 798 LINE",
"50 751 LINE",
"133 705 LINE",
"50 659 LINE"
);
}
);
width = 258;
},
{
anchors = (
{
name = _top;
position = "{94, 528}";
}
);
layerId = "BD31AAF9-E65B-4A30-ACC0-7018B0C27C60";
paths = (
{
closed = 1;
nodes = (
"86 650 LINE",
"132 673 LINE",
"92 696 LINE",
"132 719 LINE",
"92 742 LINE",
"132 765 LINE",
"95 765 LINE",
"55 742 LINE",
"95 719 LINE",
"55 696 LINE",
"95 673 LINE",
"50 650 LINE"
);
}
);
width = 182;
},
{
anchors = (
{
name = _top;
position = "{129, 553}";
}
);
layerId = "AD6F6DAA-2D58-4E1D-98AF-ACAAF76D7B9E";
paths = (
{
closed = 1;
nodes = (
"116 659 LINE",
"198 699 LINE",
"125 740 LINE",
"198 781 LINE",
"125 821 LINE",
"198 862 LINE",
"133 862 LINE",
"60 821 LINE",
"133 781 LINE",
"60 740 LINE",
"133 699 LINE",
"60 659 LINE"
);
}
);
width = 258;
}
);
note = uni0593;
unicode = 0593;
},
{
glyphname = "zaqefqatan-hb";
lastChange = "2019-06-10 07:53:24 +0000";
layers = (
{
anchors = (
{
name = _top;
position = "{72, 528}";
}
);
layerId = "1F954AD7-537E-453D-9D07-161C7E95D0AA";
paths = (
{
closed = 1;
nodes = (
"84 744 OFFCURVE",
"94 754 OFFCURVE",
"94 767 CURVE SMOOTH",
"94 779 OFFCURVE",
"84 789 OFFCURVE",
"72 789 CURVE SMOOTH",
"59 789 OFFCURVE",
"49 779 OFFCURVE",
"49 767 CURVE SMOOTH",
"49 754 OFFCURVE",
"59 744 OFFCURVE",
"72 744 CURVE SMOOTH"
);
},
{
closed = 1;
nodes = (
"85 655 OFFCURVE",
"95 665 OFFCURVE",
"95 678 CURVE SMOOTH",
"95 690 OFFCURVE",
"85 700 OFFCURVE",
"73 700 CURVE SMOOTH",
"60 700 OFFCURVE",
"50 690 OFFCURVE",
"50 678 CURVE SMOOTH",
"50 665 OFFCURVE",
"60 655 OFFCURVE",
"73 655 CURVE SMOOTH"
);
}
);
width = 144;
},
{
anchors = (
{
name = _top;
position = "{101, 553}";
}
);
layerId = "3FB868F8-5CDC-4A46-BA32-95627737ABE0";
paths = (
{
closed = 1;
nodes = (
"124 778 OFFCURVE",
"143 797 OFFCURVE",
"143 820 CURVE SMOOTH",
"143 843 OFFCURVE",
"124 862 OFFCURVE",
"101 862 CURVE SMOOTH",
"78 862 OFFCURVE",
"59 843 OFFCURVE",
"59 820 CURVE SMOOTH",
"59 797 OFFCURVE",
"78 778 OFFCURVE",
"101 778 CURVE SMOOTH"
);
},
{
closed = 1;
nodes = (
"124 673 OFFCURVE",
"143 692 OFFCURVE",
"143 715 CURVE SMOOTH",
"143 738 OFFCURVE",
"124 757 OFFCURVE",
"101 757 CURVE SMOOTH",
"78 757 OFFCURVE",
"59 738 OFFCURVE",
"59 715 CURVE SMOOTH",
"59 692 OFFCURVE",
"78 673 OFFCURVE",
"101 673 CURVE SMOOTH"
);
}
);
width = 202;
},
{
anchors = (
{
name = _top;
position = "{72, 528}";
}
);
layerId = "BD31AAF9-E65B-4A30-ACC0-7018B0C27C60";
paths = (
{
closed = 1;
nodes = (
"84 744 OFFCURVE",
"94 754 OFFCURVE",
"94 767 CURVE SMOOTH",
"94 779 OFFCURVE",
"84 789 OFFCURVE",
"72 789 CURVE SMOOTH",
"59 789 OFFCURVE",
"49 779 OFFCURVE",
"49 767 CURVE SMOOTH",
"49 754 OFFCURVE",
"59 744 OFFCURVE",
"72 744 CURVE SMOOTH"
);
},
{
closed = 1;
nodes = (
"85 655 OFFCURVE",
"95 665 OFFCURVE",
"95 678 CURVE SMOOTH",
"95 690 OFFCURVE",
"85 700 OFFCURVE",
"73 700 CURVE SMOOTH",
"60 700 OFFCURVE",
"50 690 OFFCURVE",
"50 678 CURVE SMOOTH",
"50 665 OFFCURVE",
"60 655 OFFCURVE",
"73 655 CURVE SMOOTH"
);
}
);
width = 144;
},
{
anchors = (
{
name = _top;
position = "{101, 553}";
}
);
layerId = "AD6F6DAA-2D58-4E1D-98AF-ACAAF76D7B9E";
paths = (
{
closed = 1;
nodes = (
"124 778 OFFCURVE",
"143 797 OFFCURVE",
"143 820 CURVE SMOOTH",
"143 843 OFFCURVE",
"124 862 OFFCURVE",
"101 862 CURVE SMOOTH",
"78 862 OFFCURVE",
"59 843 OFFCURVE",
"59 820 CURVE SMOOTH",
"59 797 OFFCURVE",
"78 778 OFFCURVE",
"101 778 CURVE SMOOTH"
);
},
{
closed = 1;
nodes = (
"124 673 OFFCURVE",
"143 692 OFFCURVE",
"143 715 CURVE SMOOTH",
"143 738 OFFCURVE",
"124 757 OFFCURVE",
"101 757 CURVE SMOOTH",
"78 757 OFFCURVE",
"59 738 OFFCURVE",
"59 715 CURVE SMOOTH",
"59 692 OFFCURVE",
"78 673 OFFCURVE",
"101 673 CURVE SMOOTH"
);
}
);
width = 202;
}
);
note = uni0594;
unicode = 0594;
},
{
glyphname = "zaqefgadol-hb";
lastChange = "2019-06-10 07:53:22 +0000";
layers = (
{
anchors = (
{
name = _top;
position = "{102, 528}";
}
);
layerId = "1F954AD7-537E-453D-9D07-161C7E95D0AA";
paths = (
{
closed = 1;
nodes = (
"75 650 LINE",
"75 795 LINE",
"50 795 LINE",
"50 650 LINE"
);
},
{
closed = 1;
nodes = (
"144 744 OFFCURVE",
"154 754 OFFCURVE",
"154 767 CURVE SMOOTH",
"154 779 OFFCURVE",
"144 789 OFFCURVE",
"132 789 CURVE SMOOTH",
"119 789 OFFCURVE",
"109 779 OFFCURVE",
"109 767 CURVE SMOOTH",
"109 754 OFFCURVE",
"119 744 OFFCURVE",
"132 744 CURVE SMOOTH"
);
},
{
closed = 1;
nodes = (
"145 655 OFFCURVE",
"155 665 OFFCURVE",
"155 678 CURVE SMOOTH",
"155 690 OFFCURVE",
"145 700 OFFCURVE",
"133 700 CURVE SMOOTH",
"120 700 OFFCURVE",
"110 690 OFFCURVE",
"110 678 CURVE SMOOTH",
"110 665 OFFCURVE",
"120 655 OFFCURVE",
"133 655 CURVE SMOOTH"
);
}
);
width = 204;
},
{
anchors = (
{
name = _top;
position = "{144, 553}";
}
);
layerId = "3FB868F8-5CDC-4A46-BA32-95627737ABE0";
paths = (
{
closed = 1;
nodes = (
"107 673 LINE",
"107 862 LINE",
"50 862 LINE",
"50 673 LINE"
);
},
{
closed = 1;
nodes = (
"220 778 OFFCURVE",
"239 797 OFFCURVE",
"239 820 CURVE SMOOTH",
"239 843 OFFCURVE",
"220 862 OFFCURVE",
"197 862 CURVE SMOOTH",
"174 862 OFFCURVE",
"155 843 OFFCURVE",
"155 820 CURVE SMOOTH",
"155 797 OFFCURVE",
"174 778 OFFCURVE",
"197 778 CURVE SMOOTH"
);
},
{
closed = 1;
nodes = (
"220 673 OFFCURVE",
"239 692 OFFCURVE",
"239 715 CURVE SMOOTH",
"239 738 OFFCURVE",
"220 757 OFFCURVE",
"197 757 CURVE SMOOTH",
"174 757 OFFCURVE",
"155 738 OFFCURVE",
"155 715 CURVE SMOOTH",
"155 692 OFFCURVE",
"174 673 OFFCURVE",
"197 673 CURVE SMOOTH"
);
}
);
width = 298;
},
{
anchors = (
{
name = _top;
position = "{97, 528}";
}
);
layerId = "BD31AAF9-E65B-4A30-ACC0-7018B0C27C60";
paths = (
{
closed = 1;
nodes = (
"75 650 LINE",
"75 795 LINE",
"50 795 LINE",
"50 650 LINE"
);
},
{
closed = 1;
nodes = (
"144 744 OFFCURVE",
"154 754 OFFCURVE",
"154 767 CURVE SMOOTH",
"154 779 OFFCURVE",
"144 789 OFFCURVE",
"132 789 CURVE SMOOTH",
"119 789 OFFCURVE",
"109 779 OFFCURVE",
"109 767 CURVE SMOOTH",
"109 754 OFFCURVE",
"119 744 OFFCURVE",
"132 744 CURVE SMOOTH"
);
},
{
closed = 1;
nodes = (
"145 655 OFFCURVE",
"155 665 OFFCURVE",
"155 678 CURVE SMOOTH",
"155 690 OFFCURVE",
"145 700 OFFCURVE",
"133 700 CURVE SMOOTH",
"120 700 OFFCURVE",
"110 690 OFFCURVE",
"110 678 CURVE SMOOTH",
"110 665 OFFCURVE",
"120 655 OFFCURVE",
"133 655 CURVE SMOOTH"
);
}
);
width = 194;
},
{
anchors = (
{
name = _top;
position = "{145, 553}";
}
);
layerId = "AD6F6DAA-2D58-4E1D-98AF-ACAAF76D7B9E";
paths = (
{
closed = 1;
nodes = (
"107 673 LINE",
"107 862 LINE",
"50 862 LINE",
"50 673 LINE"
);
},
{
closed = 1;
nodes = (
"220 778 OFFCURVE",
"239 797 OFFCURVE",
"239 820 CURVE SMOOTH",
"239 843 OFFCURVE",
"220 862 OFFCURVE",
"197 862 CURVE SMOOTH",
"174 862 OFFCURVE",
"155 843 OFFCURVE",
"155 820 CURVE SMOOTH",
"155 797 OFFCURVE",
"174 778 OFFCURVE",
"197 778 CURVE SMOOTH"
);
},
{
closed = 1;
nodes = (
"220 673 OFFCURVE",
"239 692 OFFCURVE",
"239 715 CURVE SMOOTH",
"239 738 OFFCURVE",
"220 757 OFFCURVE",
"197 757 CURVE SMOOTH",
"174 757 OFFCURVE",
"155 738 OFFCURVE",
"155 715 CURVE SMOOTH",
"155 692 OFFCURVE",
"174 673 OFFCURVE",
"197 673 CURVE SMOOTH"
);
}
);
width = 298;
}
);
note = uni0595;
unicode = 0595;
},
{
glyphname = "tipehaleft-hb";
lastChange = "2016-07-07 18:36:03 +0000";
layers = (
{
anchors = (
{
name = _bottomleft;
position = "{65, 0}";
}
);
layerId = "1F954AD7-537E-453D-9D07-161C7E95D0AA";
paths = (
{
closed = 1;
nodes = (
"159 -159 LINE",
"99 -159 OFFCURVE",
"79 -131 OFFCURVE",
"79 -82 CURVE",
"50 -82 LINE",
"50 -149 OFFCURVE",
"83 -188 OFFCURVE",
"159 -188 CURVE"
);
}
);
width = 209;
},
{
anchors = (
{
name = _bottomleft;
position = "{78, 0}";
}
);
layerId = "3FB868F8-5CDC-4A46-BA32-95627737ABE0";
paths = (
{
closed = 1;
nodes = (
"214 -170 LINE",
"146 -170 OFFCURVE",
"105 -133 OFFCURVE",
"105 -70 CURVE",
"50 -70 LINE",
"50 -167 OFFCURVE",
"110 -224 OFFCURVE",
"214 -224 CURVE"
);
}
);
width = 264;
},
{
anchors = (
{
name = _bottomleft;
position = "{65, 0}";
}
);
layerId = "BD31AAF9-E65B-4A30-ACC0-7018B0C27C60";
paths = (
{
closed = 1;
nodes = (
"159 -159 LINE",
"99 -159 OFFCURVE",
"79 -131 OFFCURVE",
"79 -82 CURVE",
"50 -82 LINE",
"50 -149 OFFCURVE",
"83 -188 OFFCURVE",
"159 -188 CURVE"
);
}
);
width = 209;
},
{
anchors = (
{
name = _bottomleft;
position = "{85, 0}";
}
);
layerId = "AD6F6DAA-2D58-4E1D-98AF-ACAAF76D7B9E";
paths = (
{
closed = 1;
nodes = (
"204 -158 LINE",
"144 -158 OFFCURVE",
"108 -125 OFFCURVE",
"108 -70 CURVE",
"60 -70 LINE",
"60 -155 OFFCURVE",
"113 -205 OFFCURVE",
"204 -205 CURVE"
);
}
);
width = 264;
}
);
note = uni0596;
unicode = 0596;
},
{
glyphname = "reviamugrash-hb";
lastChange = "2016-07-07 18:36:03 +0000";
layers = (
{
anchors = (
{
name = _topleft;
position = "{115, 528}";
}
);
layerId = "1F954AD7-537E-453D-9D07-161C7E95D0AA";
paths = (
{
closed = 1;
nodes = (
"131 692 LINE",
"93 735 LINE",
"55 692 LINE",
"93 650 LINE"
);
}
);
width = 186;
},
{
anchors = (
{
name = _topleft;
position = "{197, 553}";
}
);
layerId = "3FB868F8-5CDC-4A46-BA32-95627737ABE0";
paths = (
{
closed = 1;
nodes = (
"204 735 LINE",
"127 820 LINE",
"50 735 LINE",
"127 650 LINE"
);
}
);
width = 254;
},
{
anchors = (
{
name = _topleft;
position = "{110, 528}";
}
);
layerId = "BD31AAF9-E65B-4A30-ACC0-7018B0C27C60";
paths = (
{
closed = 1;
nodes = (
"126 692 LINE",
"88 735 LINE",
"50 692 LINE",
"88 650 LINE"
);
}
);
width = 176;
},
{
anchors = (
{
name = _topleft;
position = "{188, 553}";
}
);
layerId = "AD6F6DAA-2D58-4E1D-98AF-ACAAF76D7B9E";
paths = (
{
closed = 1;
nodes = (
"195 725 LINE",
"127 799 LINE",
"59 725 LINE",
"127 650 LINE"
);
}
);
width = 254;
}
);
note = uni0597;
unicode = 0597;
},
{
glyphname = "zarqa-hb";
lastChange = "2016-07-07 18:36:03 +0000";
layers = (
{
anchors = (
{
name = _top;
position = "{135, 528}";
}
);
layerId = "1F954AD7-537E-453D-9D07-161C7E95D0AA";
paths = (
{
closed = 1;
nodes = (
"89 670 LINE",
"78 675 OFFCURVE",
"72 683 OFFCURVE",
"72 695 CURVE SMOOTH",
"72 709 OFFCURVE",
"80 717 OFFCURVE",
"91 717 CURVE SMOOTH",
"104 717 OFFCURVE",
"110 710 OFFCURVE",
"127 686 CURVE SMOOTH",
"147 659 OFFCURVE",
"160 651 OFFCURVE",
"179 651 CURVE SMOOTH",
"203 651 OFFCURVE",
"220 667 OFFCURVE",
"220 693 CURVE SMOOTH",
"220 715 OFFCURVE",
"210 730 OFFCURVE",
"189 738 CURVE",
"181 717 LINE",
"192 712 OFFCURVE",
"198 705 OFFCURVE",
"198 693 CURVE SMOOTH",
"198 678 OFFCURVE",
"190 671 OFFCURVE",
"179 671 CURVE SMOOTH",
"167 671 OFFCURVE",
"158 679 OFFCURVE",
"143 701 CURVE SMOOTH",
"123 728 OFFCURVE",
"110 737 OFFCURVE",
"92 737 CURVE SMOOTH",
"67 737 OFFCURVE",
"50 720 OFFCURVE",
"50 695 CURVE SMOOTH",
"50 672 OFFCURVE",
"60 657 OFFCURVE",
"81 650 CURVE"
);
}
);
width = 270;
},
{
anchors = (
{
name = _top;
position = "{202, 553}";
}
);
layerId = "3FB868F8-5CDC-4A46-BA32-95627737ABE0";
paths = (
{
closed = 1;
nodes = (
"120 686 LINE",
"100 695 OFFCURVE",
"90 708 OFFCURVE",
"90 730 CURVE SMOOTH",
"90 754 OFFCURVE",
"104 769 OFFCURVE",
"123 769 CURVE SMOOTH",
"146 769 OFFCURVE",
"157 758 OFFCURVE",
"188 715 CURVE SMOOTH",
"223 666 OFFCURVE",
"247 651 OFFCURVE",
"281 651 CURVE SMOOTH",
"323 651 OFFCURVE",
"354 681 OFFCURVE",
"354 726 CURVE SMOOTH",
"354 765 OFFCURVE",
"335 792 OFFCURVE",
"299 806 CURVE",
"284 769 LINE",
"304 761 OFFCURVE",
"314 748 OFFCURVE",
"314 726 CURVE SMOOTH",
"314 701 OFFCURVE",
"300 687 OFFCURVE",
"281 687 CURVE SMOOTH",
"259 687 OFFCURVE",
"244 702 OFFCURVE",
"216 740 CURVE SMOOTH",
"180 790 OFFCURVE",
"157 805 OFFCURVE",
"125 805 CURVE SMOOTH",
"81 805 OFFCURVE",
"50 774 OFFCURVE",
"50 730 CURVE SMOOTH",
"50 690 OFFCURVE",
"69 662 OFFCURVE",
"105 650 CURVE"
);
}
);
width = 404;
},
{
anchors = (
{
name = _top;
position = "{135, 528}";
}
);
layerId = "BD31AAF9-E65B-4A30-ACC0-7018B0C27C60";
paths = (
{
closed = 1;
nodes = (
"89 670 LINE",
"78 675 OFFCURVE",
"72 683 OFFCURVE",
"72 695 CURVE SMOOTH",
"72 709 OFFCURVE",
"80 717 OFFCURVE",
"91 717 CURVE SMOOTH",
"104 717 OFFCURVE",
"110 710 OFFCURVE",
"127 686 CURVE SMOOTH",
"147 659 OFFCURVE",
"160 651 OFFCURVE",
"179 651 CURVE SMOOTH",
"203 651 OFFCURVE",
"220 667 OFFCURVE",
"220 693 CURVE SMOOTH",
"220 715 OFFCURVE",
"210 730 OFFCURVE",
"189 738 CURVE",
"181 717 LINE",
"192 712 OFFCURVE",
"198 705 OFFCURVE",
"198 693 CURVE SMOOTH",
"198 678 OFFCURVE",
"190 671 OFFCURVE",
"179 671 CURVE SMOOTH",
"167 671 OFFCURVE",
"158 679 OFFCURVE",
"143 701 CURVE SMOOTH",
"123 728 OFFCURVE",
"110 737 OFFCURVE",
"92 737 CURVE SMOOTH",
"67 737 OFFCURVE",
"50 720 OFFCURVE",
"50 695 CURVE SMOOTH",
"50 672 OFFCURVE",
"60 657 OFFCURVE",
"81 650 CURVE"
);
}
);
width = 270;
},
{
anchors = (
{
name = _top;
position = "{202, 553}";
}
);
layerId = "AD6F6DAA-2D58-4E1D-98AF-ACAAF76D7B9E";
paths = (
{
closed = 1;
nodes = (
"130 682 LINE",
"113 689 OFFCURVE",
"104 701 OFFCURVE",
"104 720 CURVE SMOOTH",
"104 741 OFFCURVE",
"116 754 OFFCURVE",
"133 754 CURVE SMOOTH",
"153 754 OFFCURVE",
"163 745 OFFCURVE",
"190 707 CURVE SMOOTH",
"220 664 OFFCURVE",
"241 651 OFFCURVE",
"271 651 CURVE SMOOTH",
"308 651 OFFCURVE",
"335 677 OFFCURVE",
"335 717 CURVE SMOOTH",
"335 751 OFFCURVE",
"319 775 OFFCURVE",
"287 787 CURVE",
"274 754 LINE",
"291 747 OFFCURVE",
"300 736 OFFCURVE",
"300 717 CURVE SMOOTH",
"300 695 OFFCURVE",
"288 682 OFFCURVE",
"271 682 CURVE SMOOTH",
"252 682 OFFCURVE",
"239 696 OFFCURVE",
"214 729 CURVE SMOOTH",
"183 773 OFFCURVE",
"163 786 OFFCURVE",
"134 786 CURVE SMOOTH",
"96 786 OFFCURVE",
"69 759 OFFCURVE",
"69 720 CURVE SMOOTH",
"69 685 OFFCURVE",
"85 661 OFFCURVE",
"117 650 CURVE"
);
}
);
width = 404;
}
);
note = uni0598;
unicode = 0598;
},
{
glyphname = "pashta-hb";
lastChange = "2016-07-07 18:36:03 +0000";
layers = (
{
anchors = (
{
name = _topleft;
position = "{159, 528}";
}
);
layerId = "1F954AD7-537E-453D-9D07-161C7E95D0AA";
paths = (
{
closed = 1;
nodes = (
"159 650 LINE",
"159 717 OFFCURVE",
"126 756 OFFCURVE",
"50 756 CURVE",
"50 727 LINE",
"110 727 OFFCURVE",
"130 699 OFFCURVE",
"130 650 CURVE"
);
}
);
width = 209;
},
{
anchors = (
{
name = _topleft;
position = "{214, 553}";
}
);
layerId = "3FB868F8-5CDC-4A46-BA32-95627737ABE0";
paths = (
{
closed = 1;
nodes = (
"214 650 LINE",
"214 749 OFFCURVE",
"153 805 OFFCURVE",
"50 805 CURVE",
"50 750 LINE",
"120 750 OFFCURVE",
"159 713 OFFCURVE",
"159 650 CURVE"
);
}
);
width = 264;
},
{
anchors = (
{
name = _topleft;
position = "{159, 528}";
}
);
layerId = "BD31AAF9-E65B-4A30-ACC0-7018B0C27C60";
paths = (
{
closed = 1;
nodes = (
"159 650 LINE",
"159 717 OFFCURVE",
"126 756 OFFCURVE",
"50 756 CURVE",
"50 727 LINE",
"110 727 OFFCURVE",
"130 699 OFFCURVE",
"130 650 CURVE"
);
}
);
width = 209;
},
{
anchors = (
{
name = _topleft;
position = "{204, 553}";
}
);
layerId = "AD6F6DAA-2D58-4E1D-98AF-ACAAF76D7B9E";
paths = (
{
closed = 1;
nodes = (
"204 650 LINE",
"204 737 OFFCURVE",
"150 786 OFFCURVE",
"60 786 CURVE",
"60 738 LINE",
"121 738 OFFCURVE",
"156 705 OFFCURVE",
"156 650 CURVE"
);
}
);
width = 264;
}
);
note = uni0599;
unicode = 0599;
},
{
glyphname = "yetiv-hb";
lastChange = "2016-07-07 18:36:03 +0000";
layers = (
{
anchors = (
{
name = _bottomleft;
position = "{102, 0}";
}
);
layerId = "1F954AD7-537E-453D-9D07-161C7E95D0AA";
paths = (
{
closed = 1;
nodes = (
"154 -229 LINE",
"80 -154 LINE",
"151 -82 LINE",
"121 -82 LINE",
"50 -153 LINE",
"125 -229 LINE"
);
}
);
width = 229;
},
{
anchors = (
{
name = _bottomleft;
position = "{132, 0}";
}
);
layerId = "3FB868F8-5CDC-4A46-BA32-95627737ABE0";
paths = (
{
closed = 1;
nodes = (
"213 -252 LINE",
"122 -160 LINE",
"213 -69 LINE",
"141 -69 LINE",
"50 -160 LINE",
"141 -252 LINE"
);
}
);
width = 263;
},
{
anchors = (
{
name = _bottomleft;
position = "{102, 0}";
}
);
layerId = "BD31AAF9-E65B-4A30-ACC0-7018B0C27C60";
paths = (
{
closed = 1;
nodes = (
"154 -229 LINE",
"80 -154 LINE",
"151 -82 LINE",
"121 -82 LINE",
"50 -153 LINE",
"125 -229 LINE"
);
}
);
width = 204;
},
{
anchors = (
{
name = _bottomleft;
position = "{132, 0}";
}
);
layerId = "AD6F6DAA-2D58-4E1D-98AF-ACAAF76D7B9E";
paths = (
{
closed = 1;
nodes = (
"203 -230 LINE",
"123 -149 LINE",
"203 -69 LINE",
"140 -69 LINE",
"60 -149 LINE",
"140 -230 LINE"
);
}
);
width = 263;
}
);
note = uni059A;
unicode = 059A;
},
{
glyphname = "tevirleft-hb";
lastChange = "2016-07-07 18:36:03 +0000";
layers = (
{
anchors = (
{
name = _bottomleft;
position = "{145, 0}";
}
);
layerId = "1F954AD7-537E-453D-9D07-161C7E95D0AA";
paths = (
{
closed = 1;
nodes = (
"126 -188 OFFCURVE",
"159 -149 OFFCURVE",
"159 -82 CURVE",
"130 -82 LINE",
"130 -131 OFFCURVE",
"110 -159 OFFCURVE",
"50 -159 CURVE",
"50 -188 LINE"
);
},
{
closed = 1;
nodes = (
"87 -123 OFFCURVE",
"97 -113 OFFCURVE",
"97 -100 CURVE SMOOTH",
"97 -87 OFFCURVE",
"87 -77 OFFCURVE",
"74 -77 CURVE SMOOTH",
"62 -77 OFFCURVE",
"52 -87 OFFCURVE",
"52 -100 CURVE SMOOTH",
"52 -113 OFFCURVE",
"62 -123 OFFCURVE",
"74 -123 CURVE SMOOTH"
);
}
);
width = 209;
},
{
anchors = (
{
name = _bottomleft;
position = "{207, 0}";
}
);
layerId = "3FB868F8-5CDC-4A46-BA32-95627737ABE0";
paths = (
{
closed = 1;
nodes = (
"175 -224 OFFCURVE",
"234 -166 OFFCURVE",
"234 -70 CURVE",
"179 -70 LINE",
"179 -133 OFFCURVE",
"137 -170 OFFCURVE",
"68 -170 CURVE",
"68 -224 LINE"
);
},
{
closed = 1;
nodes = (
"112 -117 OFFCURVE",
"130 -100 OFFCURVE",
"130 -77 CURVE SMOOTH",
"130 -54 OFFCURVE",
"112 -36 OFFCURVE",
"89 -36 CURVE SMOOTH",
"67 -36 OFFCURVE",
"50 -55 OFFCURVE",
"50 -77 CURVE SMOOTH",
"50 -100 OFFCURVE",
"67 -117 OFFCURVE",
"89 -117 CURVE SMOOTH"
);
}
);
width = 284;
},
{
anchors = (
{
name = _bottomleft;
position = "{145, 0}";
}
);
layerId = "BD31AAF9-E65B-4A30-ACC0-7018B0C27C60";
paths = (
{
closed = 1;
nodes = (
"126 -188 OFFCURVE",
"159 -149 OFFCURVE",
"159 -82 CURVE",
"130 -82 LINE",
"130 -131 OFFCURVE",
"110 -159 OFFCURVE",
"50 -159 CURVE",
"50 -188 LINE"
);
},
{
closed = 1;
nodes = (
"87 -123 OFFCURVE",
"97 -113 OFFCURVE",
"97 -100 CURVE SMOOTH",
"97 -87 OFFCURVE",
"87 -77 OFFCURVE",
"74 -77 CURVE SMOOTH",
"62 -77 OFFCURVE",
"52 -87 OFFCURVE",
"52 -100 CURVE SMOOTH",
"52 -113 OFFCURVE",
"62 -123 OFFCURVE",
"74 -123 CURVE SMOOTH"
);
}
);
width = 209;
},
{
anchors = (
{
name = _bottomleft;
position = "{199, 0}";
}
);
layerId = "AD6F6DAA-2D58-4E1D-98AF-ACAAF76D7B9E";
paths = (
{
closed = 1;
nodes = (
"171 -201 OFFCURVE",
"223 -150 OFFCURVE",
"223 -66 CURVE",
"174 -66 LINE",
"174 -121 OFFCURVE",
"138 -154 OFFCURVE",
"77 -154 CURVE",
"77 -201 LINE"
);
},
{
closed = 1;
nodes = (
"116 -107 OFFCURVE",
"131 -92 OFFCURVE",
"131 -72 CURVE SMOOTH",
"131 -52 OFFCURVE",
"116 -36 OFFCURVE",
"96 -36 CURVE SMOOTH",
"76 -36 OFFCURVE",
"61 -53 OFFCURVE",
"61 -72 CURVE SMOOTH",
"61 -92 OFFCURVE",
"76 -107 OFFCURVE",
"96 -107 CURVE SMOOTH"
);
}
);
width = 284;
}
);
note = uni059B;
unicode = 059B;
},
{
glyphname = "gereshaccent-hb";
lastChange = "2016-07-07 18:36:03 +0000";
layers = (
{
anchors = (
{
name = _topleft;
position = "{65, 528}";
}
);
layerId = "1F954AD7-537E-453D-9D07-161C7E95D0AA";
paths = (
{
closed = 1;
nodes = (
"79 650 LINE",
"79 699 OFFCURVE",
"99 727 OFFCURVE",
"159 727 CURVE",
"159 756 LINE",
"83 756 OFFCURVE",
"50 717 OFFCURVE",
"50 650 CURVE"
);
}
);
width = 209;
},
{
anchors = (
{
name = _topleft;
position = "{78, 553}";
}
);
layerId = "3FB868F8-5CDC-4A46-BA32-95627737ABE0";
paths = (
{
closed = 1;
nodes = (
"105 636 LINE",
"105 700 OFFCURVE",
"146 736 OFFCURVE",
"214 736 CURVE",
"214 791 LINE",
"111 791 OFFCURVE",
"50 734 OFFCURVE",
"50 636 CURVE"
);
}
);
width = 264;
},
{
anchors = (
{
name = _topleft;
position = "{65, 528}";
}
);
layerId = "BD31AAF9-E65B-4A30-ACC0-7018B0C27C60";
paths = (
{
closed = 1;
nodes = (
"79 650 LINE",
"79 699 OFFCURVE",
"99 727 OFFCURVE",
"159 727 CURVE",
"159 756 LINE",
"83 756 OFFCURVE",
"50 717 OFFCURVE",
"50 650 CURVE"
);
}
);
width = 209;
},
{
anchors = (
{
name = _topleft;
position = "{85, 553}";
}
);
layerId = "AD6F6DAA-2D58-4E1D-98AF-ACAAF76D7B9E";
paths = (
{
closed = 1;
nodes = (
"108 636 LINE",
"108 692 OFFCURVE",
"144 724 OFFCURVE",
"204 724 CURVE",
"204 772 LINE",
"114 772 OFFCURVE",
"60 722 OFFCURVE",
"60 636 CURVE"
);
}
);
width = 264;
}
);
note = uni059C;
unicode = 059C;
},
{
glyphname = "gereshmuqdam-hb";
lastChange = "2016-07-07 18:36:03 +0000";
layers = (
{
anchors = (
{
name = _top;
position = "{119, 528}";
}
);
layerId = "1F954AD7-537E-453D-9D07-161C7E95D0AA";
paths = (
{
closed = 1;
nodes = (
"79 650 LINE",
"79 699 OFFCURVE",
"99 727 OFFCURVE",
"159 727 CURVE",
"159 756 LINE",
"83 756 OFFCURVE",
"50 717 OFFCURVE",
"50 650 CURVE"
);
}
);
width = 209;
},
{
anchors = (
{
name = _top;
position = "{160, 553}";
}
);
layerId = "3FB868F8-5CDC-4A46-BA32-95627737ABE0";
paths = (
{
closed = 1;
nodes = (
"105 636 LINE",
"105 700 OFFCURVE",
"146 736 OFFCURVE",
"214 736 CURVE",
"214 791 LINE",
"111 791 OFFCURVE",
"50 734 OFFCURVE",
"50 636 CURVE"
);
}
);
width = 264;
},
{
anchors = (
{
name = _top;
position = "{119, 528}";
}
);
layerId = "BD31AAF9-E65B-4A30-ACC0-7018B0C27C60";
paths = (
{
closed = 1;
nodes = (
"79 650 LINE",
"79 699 OFFCURVE",
"99 727 OFFCURVE",
"159 727 CURVE",
"159 756 LINE",
"83 756 OFFCURVE",
"50 717 OFFCURVE",
"50 650 CURVE"
);
}
);
width = 209;
},
{
anchors = (
{
name = _top;
position = "{157, 553}";
}
);
layerId = "AD6F6DAA-2D58-4E1D-98AF-ACAAF76D7B9E";
paths = (
{
closed = 1;
nodes = (
"108 636 LINE",
"108 692 OFFCURVE",
"144 724 OFFCURVE",
"204 724 CURVE",
"204 772 LINE",
"114 772 OFFCURVE",
"60 722 OFFCURVE",
"60 636 CURVE"
);
}
);
width = 264;
}
);
note = uni059D;
unicode = 059D;
},
{
glyphname = "gershayimaccent-hb";
lastChange = "2016-07-07 18:36:03 +0000";
layers = (
{
anchors = (
{
name = _top;
position = "{119, 528}";
}
);
layerId = "1F954AD7-537E-453D-9D07-161C7E95D0AA";
paths = (
{
closed = 1;
nodes = (
"188 650 LINE",
"188 699 OFFCURVE",
"208 727 OFFCURVE",
"268 727 CURVE",
"268 756 LINE",
"192 756 OFFCURVE",
"159 717 OFFCURVE",
"159 650 CURVE"
);
},
{
closed = 1;
nodes = (
"79 650 LINE",
"79 699 OFFCURVE",
"99 727 OFFCURVE",
"159 727 CURVE",
"159 756 LINE",
"83 756 OFFCURVE",
"50 717 OFFCURVE",
"50 650 CURVE"
);
}
);
width = 318;
},
{
anchors = (
{
name = _top;
position = "{166, 553}";
}
);
layerId = "3FB868F8-5CDC-4A46-BA32-95627737ABE0";
paths = (
{
closed = 1;
nodes = (
"272 636 LINE",
"272 700 OFFCURVE",
"314 736 OFFCURVE",
"382 736 CURVE",
"382 791 LINE",
"279 791 OFFCURVE",
"216 734 OFFCURVE",
"216 636 CURVE"
);
},
{
closed = 1;
nodes = (
"106 636 LINE",
"106 700 OFFCURVE",
"148 736 OFFCURVE",
"216 736 CURVE",
"216 791 LINE",
"110 791 OFFCURVE",
"50 733 OFFCURVE",
"50 636 CURVE"
);
}
);
width = 432;
},
{
anchors = (
{
name = _top;
position = "{119, 528}";
}
);
layerId = "BD31AAF9-E65B-4A30-ACC0-7018B0C27C60";
paths = (
{
closed = 1;
nodes = (
"188 650 LINE",
"188 699 OFFCURVE",
"208 727 OFFCURVE",
"268 727 CURVE",
"268 756 LINE",
"192 756 OFFCURVE",
"159 717 OFFCURVE",
"159 650 CURVE"
);
},
{
closed = 1;
nodes = (
"79 650 LINE",
"79 699 OFFCURVE",
"99 727 OFFCURVE",
"159 727 CURVE",
"159 756 LINE",
"83 756 OFFCURVE",
"50 717 OFFCURVE",
"50 650 CURVE"
);
}
);
width = 318;
},
{
anchors = (
{
name = _top;
position = "{172, 553}";
}
);
layerId = "AD6F6DAA-2D58-4E1D-98AF-ACAAF76D7B9E";
paths = (
{
closed = 1;
nodes = (
"265 636 LINE",
"265 692 OFFCURVE",
"302 724 OFFCURVE",
"362 724 CURVE",
"362 772 LINE",
"271 772 OFFCURVE",
"216 722 OFFCURVE",
"216 636 CURVE"
);
},
{
closed = 1;
nodes = (
"120 636 LINE",
"120 692 OFFCURVE",
"156 724 OFFCURVE",
"216 724 CURVE",
"216 772 LINE",
"123 772 OFFCURVE",
"70 721 OFFCURVE",
"70 636 CURVE"
);
}
);
width = 432;
}
);
note = uni059E;
unicode = 059E;
},
{
glyphname = "qarneypara-hb";
lastChange = "2016-07-07 18:36:03 +0000";
layers = (
{
anchors = (
{
name = _top;
position = "{196, 528}";
}
);
layerId = "1F954AD7-537E-453D-9D07-161C7E95D0AA";
paths = (
{
closed = 1;
nodes = (
"256 673 LINE",
"264 669 OFFCURVE",
"274 667 OFFCURVE",
"284 667 CURVE SMOOTH",
"317 667 OFFCURVE",
"342 693 OFFCURVE",
"342 725 CURVE SMOOTH",
"342 757 OFFCURVE",
"316 782 OFFCURVE",
"284 782 CURVE SMOOTH",
"252 782 OFFCURVE",
"226 757 OFFCURVE",
"226 725 CURVE SMOOTH",
"226 714 OFFCURVE",
"229 704 OFFCURVE",
"234 696 CURVE",
"210 672 LINE",
"232 650 LINE"
);
},
{
closed = 1;
nodes = (
"182 672 LINE",
"158 696 LINE",
"163 704 OFFCURVE",
"166 714 OFFCURVE",
"166 725 CURVE SMOOTH",
"166 757 OFFCURVE",
"140 782 OFFCURVE",
"108 782 CURVE SMOOTH",
"76 782 OFFCURVE",
"50 757 OFFCURVE",
"50 725 CURVE SMOOTH",
"50 693 OFFCURVE",
"75 667 OFFCURVE",
"108 667 CURVE SMOOTH",
"118 667 OFFCURVE",
"128 669 OFFCURVE",
"136 673 CURVE",
"160 650 LINE"
);
},
{
closed = 1;
nodes = (
"90 692 OFFCURVE",
"75 707 OFFCURVE",
"75 725 CURVE SMOOTH",
"75 742 OFFCURVE",
"91 758 OFFCURVE",
"109 758 CURVE SMOOTH",
"126 758 OFFCURVE",
"141 743 OFFCURVE",
"141 725 CURVE SMOOTH",
"141 706 OFFCURVE",
"126 692 OFFCURVE",
"109 692 CURVE SMOOTH"
);
},
{
closed = 1;
nodes = (
"266 692 OFFCURVE",
"251 706 OFFCURVE",
"251 725 CURVE SMOOTH",
"251 743 OFFCURVE",
"266 758 OFFCURVE",
"283 758 CURVE SMOOTH",
"301 758 OFFCURVE",
"317 742 OFFCURVE",
"317 725 CURVE SMOOTH",
"317 707 OFFCURVE",
"302 692 OFFCURVE",
"283 692 CURVE SMOOTH"
);
}
);
width = 392;
},
{
anchors = (
{
name = _top;
position = "{300, 553}";
}
);
layerId = "3FB868F8-5CDC-4A46-BA32-95627737ABE0";
paths = (
{
closed = 1;
nodes = (
"396 670 LINE",
"411 663 OFFCURVE",
"428 659 OFFCURVE",
"446 659 CURVE SMOOTH",
"505 659 OFFCURVE",
"550 705 OFFCURVE",
"550 762 CURVE SMOOTH",
"550 820 OFFCURVE",
"503 864 OFFCURVE",
"446 864 CURVE SMOOTH",
"389 864 OFFCURVE",
"343 819 OFFCURVE",
"343 762 CURVE SMOOTH",
"343 743 OFFCURVE",
"348 725 OFFCURVE",
"357 711 CURVE",
"314 668 LINE",
"354 629 LINE"
);
},
{
closed = 1;
nodes = (
"286 668 LINE",
"243 711 LINE",
"252 725 OFFCURVE",
"257 743 OFFCURVE",
"257 762 CURVE SMOOTH",
"257 819 OFFCURVE",
"211 864 OFFCURVE",
"154 864 CURVE SMOOTH",
"97 864 OFFCURVE",
"50 819 OFFCURVE",
"50 762 CURVE SMOOTH",
"50 705 OFFCURVE",
"95 659 OFFCURVE",
"154 659 CURVE SMOOTH",
"172 659 OFFCURVE",
"189 663 OFFCURVE",
"204 670 CURVE",
"246 629 LINE"
);
},
{
closed = 1;
nodes = (
"126 710 OFFCURVE",
"102 734 OFFCURVE",
"102 762 CURVE SMOOTH",
"102 789 OFFCURVE",
"127 813 OFFCURVE",
"155 813 CURVE SMOOTH",
"181 813 OFFCURVE",
"205 790 OFFCURVE",
"205 762 CURVE SMOOTH",
"205 733 OFFCURVE",
"182 710 OFFCURVE",
"155 710 CURVE SMOOTH"
);
},
{
closed = 1;
nodes = (
"418 710 OFFCURVE",
"395 733 OFFCURVE",
"395 762 CURVE SMOOTH",
"395 790 OFFCURVE",
"419 813 OFFCURVE",
"445 813 CURVE SMOOTH",
"473 813 OFFCURVE",
"498 789 OFFCURVE",
"498 762 CURVE SMOOTH",
"498 734 OFFCURVE",
"474 710 OFFCURVE",
"445 710 CURVE SMOOTH"
);
}
);
width = 600;
},
{
anchors = (
{
name = _top;
position = "{191, 528}";
}
);
layerId = "BD31AAF9-E65B-4A30-ACC0-7018B0C27C60";
paths = (
{
closed = 1;
nodes = (
"246 673 LINE",
"254 669 OFFCURVE",
"264 667 OFFCURVE",
"274 667 CURVE SMOOTH",
"307 667 OFFCURVE",
"332 693 OFFCURVE",
"332 725 CURVE SMOOTH",
"332 757 OFFCURVE",
"306 782 OFFCURVE",
"274 782 CURVE SMOOTH",
"242 782 OFFCURVE",
"216 757 OFFCURVE",
"216 725 CURVE SMOOTH",
"216 714 OFFCURVE",
"219 704 OFFCURVE",
"224 696 CURVE",
"200 672 LINE",
"222 650 LINE"
);
},
{
closed = 1;
nodes = (
"182 672 LINE",
"158 696 LINE",
"163 704 OFFCURVE",
"166 714 OFFCURVE",
"166 725 CURVE SMOOTH",
"166 757 OFFCURVE",
"140 782 OFFCURVE",
"108 782 CURVE SMOOTH",
"76 782 OFFCURVE",
"50 757 OFFCURVE",
"50 725 CURVE SMOOTH",
"50 693 OFFCURVE",
"75 667 OFFCURVE",
"108 667 CURVE SMOOTH",
"118 667 OFFCURVE",
"128 669 OFFCURVE",
"136 673 CURVE",
"160 650 LINE"
);
},
{
closed = 1;
nodes = (
"90 692 OFFCURVE",
"75 707 OFFCURVE",
"75 725 CURVE SMOOTH",
"75 742 OFFCURVE",
"91 758 OFFCURVE",
"109 758 CURVE SMOOTH",
"126 758 OFFCURVE",
"141 743 OFFCURVE",
"141 725 CURVE SMOOTH",
"141 706 OFFCURVE",
"126 692 OFFCURVE",
"109 692 CURVE SMOOTH"
);
},
{
closed = 1;
nodes = (
"256 692 OFFCURVE",
"241 706 OFFCURVE",
"241 725 CURVE SMOOTH",
"241 743 OFFCURVE",
"256 758 OFFCURVE",
"273 758 CURVE SMOOTH",
"291 758 OFFCURVE",
"307 742 OFFCURVE",
"307 725 CURVE SMOOTH",
"307 707 OFFCURVE",
"292 692 OFFCURVE",
"273 692 CURVE SMOOTH"
);
}
);
width = 382;
},
{
anchors = (
{
name = _top;
position = "{300, 553}";
}
);
layerId = "AD6F6DAA-2D58-4E1D-98AF-ACAAF76D7B9E";
paths = (
{
closed = 1;
nodes = (
"384 665 LINE",
"397 659 OFFCURVE",
"412 655 OFFCURVE",
"428 655 CURVE SMOOTH",
"480 655 OFFCURVE",
"519 696 OFFCURVE",
"519 746 CURVE SMOOTH",
"519 797 OFFCURVE",
"478 835 OFFCURVE",
"428 835 CURVE SMOOTH",
"378 835 OFFCURVE",
"338 796 OFFCURVE",
"338 746 CURVE SMOOTH",
"338 729 OFFCURVE",
"342 713 OFFCURVE",
"350 701 CURVE",
"312 663 LINE",
"347 629 LINE"
);
},
{
closed = 1;
nodes = (
"288 663 LINE",
"250 701 LINE",
"258 713 OFFCURVE",
"262 729 OFFCURVE",
"262 746 CURVE SMOOTH",
"262 796 OFFCURVE",
"222 835 OFFCURVE",
"172 835 CURVE SMOOTH",
"122 835 OFFCURVE",
"81 796 OFFCURVE",
"81 746 CURVE SMOOTH",
"81 696 OFFCURVE",
"120 655 OFFCURVE",
"172 655 CURVE SMOOTH",
"188 655 OFFCURVE",
"203 659 OFFCURVE",
"216 665 CURVE",
"253 629 LINE"
);
},
{
closed = 1;
nodes = (
"147 700 OFFCURVE",
"126 721 OFFCURVE",
"126 746 CURVE SMOOTH",
"126 769 OFFCURVE",
"148 790 OFFCURVE",
"173 790 CURVE SMOOTH",
"196 790 OFFCURVE",
"217 770 OFFCURVE",
"217 746 CURVE SMOOTH",
"217 720 OFFCURVE",
"196 700 OFFCURVE",
"173 700 CURVE SMOOTH"
);
},
{
closed = 1;
nodes = (
"404 700 OFFCURVE",
"383 720 OFFCURVE",
"383 746 CURVE SMOOTH",
"383 770 OFFCURVE",
"404 790 OFFCURVE",
"427 790 CURVE SMOOTH",
"452 790 OFFCURVE",
"474 769 OFFCURVE",
"474 746 CURVE SMOOTH",
"474 721 OFFCURVE",
"453 700 OFFCURVE",
"427 700 CURVE SMOOTH"
);
}
);
width = 600;
}
);
note = uni059F;
unicode = 059F;
},
{
glyphname = "telishagedola-hb";
lastChange = "2016-07-07 18:36:03 +0000";
layers = (
{
anchors = (
{
name = _top;
position = "{116, 528}";
}
);
layerId = "1F954AD7-537E-453D-9D07-161C7E95D0AA";
paths = (
{
closed = 1;
nodes = (
"96 673 LINE",
"104 669 OFFCURVE",
"114 667 OFFCURVE",
"124 667 CURVE SMOOTH",
"157 667 OFFCURVE",
"182 693 OFFCURVE",
"182 725 CURVE SMOOTH",
"182 757 OFFCURVE",
"156 782 OFFCURVE",
"124 782 CURVE SMOOTH",
"92 782 OFFCURVE",
"66 757 OFFCURVE",
"66 725 CURVE SMOOTH",
"66 714 OFFCURVE",
"69 704 OFFCURVE",
"74 696 CURVE",
"50 672 LINE",
"72 650 LINE"
);
},
{
closed = 1;
nodes = (
"106 692 OFFCURVE",
"91 706 OFFCURVE",
"91 725 CURVE SMOOTH",
"91 743 OFFCURVE",
"106 758 OFFCURVE",
"123 758 CURVE SMOOTH",
"141 758 OFFCURVE",
"157 742 OFFCURVE",
"157 725 CURVE SMOOTH",
"157 707 OFFCURVE",
"142 692 OFFCURVE",
"123 692 CURVE SMOOTH"
);
}
);
width = 232;
},
{
anchors = (
{
name = _top;
position = "{168, 553}";
}
);
layerId = "3FB868F8-5CDC-4A46-BA32-95627737ABE0";
paths = (
{
closed = 1;
nodes = (
"132 670 LINE",
"147 663 OFFCURVE",
"164 659 OFFCURVE",
"182 659 CURVE SMOOTH",
"241 659 OFFCURVE",
"286 705 OFFCURVE",
"286 762 CURVE SMOOTH",
"286 820 OFFCURVE",
"239 864 OFFCURVE",
"182 864 CURVE SMOOTH",
"125 864 OFFCURVE",
"79 819 OFFCURVE",
"79 762 CURVE SMOOTH",
"79 743 OFFCURVE",
"84 725 OFFCURVE",
"93 711 CURVE",
"50 668 LINE",
"90 629 LINE"
);
},
{
closed = 1;
nodes = (
"154 710 OFFCURVE",
"131 733 OFFCURVE",
"131 762 CURVE SMOOTH",
"131 790 OFFCURVE",
"155 813 OFFCURVE",
"181 813 CURVE SMOOTH",
"209 813 OFFCURVE",
"234 789 OFFCURVE",
"234 762 CURVE SMOOTH",
"234 734 OFFCURVE",
"210 710 OFFCURVE",
"181 710 CURVE SMOOTH"
);
}
);
width = 336;
},
{
anchors = (
{
name = _top;
position = "{116, 528}";
}
);
layerId = "BD31AAF9-E65B-4A30-ACC0-7018B0C27C60";
paths = (
{
closed = 1;
nodes = (
"96 673 LINE",
"104 669 OFFCURVE",
"114 667 OFFCURVE",
"124 667 CURVE SMOOTH",
"157 667 OFFCURVE",
"182 693 OFFCURVE",
"182 725 CURVE SMOOTH",
"182 757 OFFCURVE",
"156 782 OFFCURVE",
"124 782 CURVE SMOOTH",
"92 782 OFFCURVE",
"66 757 OFFCURVE",
"66 725 CURVE SMOOTH",
"66 714 OFFCURVE",
"69 704 OFFCURVE",
"74 696 CURVE",
"50 672 LINE",
"72 650 LINE"
);
},
{
closed = 1;
nodes = (
"106 692 OFFCURVE",
"91 706 OFFCURVE",
"91 725 CURVE SMOOTH",
"91 743 OFFCURVE",
"106 758 OFFCURVE",
"123 758 CURVE SMOOTH",
"141 758 OFFCURVE",
"157 742 OFFCURVE",
"157 725 CURVE SMOOTH",
"157 707 OFFCURVE",
"142 692 OFFCURVE",
"123 692 CURVE SMOOTH"
);
}
);
width = 232;
},
{
anchors = (
{
name = _top;
position = "{168, 553}";
}
);
layerId = "AD6F6DAA-2D58-4E1D-98AF-ACAAF76D7B9E";
paths = (
{
closed = 1;
nodes = (
"136 665 LINE",
"150 659 OFFCURVE",
"164 655 OFFCURVE",
"180 655 CURVE SMOOTH",
"232 655 OFFCURVE",
"272 696 OFFCURVE",
"272 746 CURVE SMOOTH",
"272 797 OFFCURVE",
"230 835 OFFCURVE",
"180 835 CURVE SMOOTH",
"130 835 OFFCURVE",
"90 796 OFFCURVE",
"90 746 CURVE SMOOTH",
"90 729 OFFCURVE",
"94 713 OFFCURVE",
"102 701 CURVE",
"64 663 LINE",
"100 629 LINE"
);
},
{
closed = 1;
nodes = (
"156 700 OFFCURVE",
"136 720 OFFCURVE",
"136 746 CURVE SMOOTH",
"136 770 OFFCURVE",
"157 790 OFFCURVE",
"179 790 CURVE SMOOTH",
"204 790 OFFCURVE",
"226 769 OFFCURVE",
"226 746 CURVE SMOOTH",
"226 721 OFFCURVE",
"205 700 OFFCURVE",
"179 700 CURVE SMOOTH"
);
}
);
width = 336;
}
);
note = uni05A0;
unicode = 05A0;
},
